<svg width="18" height="13" viewBox="0 0 18 13" fill="none" xmlns="http://www.w3.org/2000/svg">
<path d="M4 9V7H6V9H4ZM14 1.49408C13.9968 0.668375 13.3265 0 12.5 0H2.4231C1.59467 0 0.923096 0.671573 0.923096 1.5V8.6154L0.923108 8.62345V10.5C0.923108 11.8807 2.0424 13 3.42311 13H14.577C15.9577 13 17.077 11.8807 17.077 10.5V4.5C17.077 3.67157 16.4054 3 15.577 3H15L15 10.2308C15 10.5069 14.7761 10.7308 14.5 10.7308C14.2239 10.7308 14 10.5069 14 10.2308V1.49408ZM3 3.5C3 3.22386 3.22386 3 3.5 3H11.5C11.7761 3 12 3.22386 12 3.5C12 3.77614 11.7761 4 11.5 4H3.5C3.22386 4 3 3.77614 3 3.5ZM8.5 6H11.5C11.7761 6 12 6.22386 12 6.5C12 6.77614 11.7761 7 11.5 7H8.5C8.22386 7 8 6.77614 8 6.5C8 6.22386 8.22386 6 8.5 6ZM8 9.5C8 9.22386 8.22386 9 8.5 9H11.5C11.7761 9 12 9.22386 12 9.5C12 9.77614 11.7761 10 11.5 10H8.5C8.22386 10 8 9.77614 8 9.5ZM3.5 6H6.5C6.77614 6 7 6.22386 7 6.5V9.5C7 9.77614 6.77614 10 6.5 10H3.5C3.22386 10 3 9.77614 3 9.5V6.5C3 6.22386 3.22386 6 3.5 6Z" />
</svg>
