<svg width="18" height="18" viewBox="0 0 17 18" fill="none" xmlns="http://www.w3.org/2000/svg">
<path d="M9.5 3C9.5 2.17157 8.82843 1.5 8 1.5C7.17157 1.5 6.5 2.17157 6.5 3H9.5ZM5.5 3C5.5 1.61929 6.61929 0.5 8 0.5C9.38071 0.5 10.5 1.61929 10.5 3H15.5C15.7761 3 16 3.22386 16 3.5C16 3.77614 15.7761 4 15.5 4H14.4456L13.9614 8.19628C13.4961 8.06833 13.006 8 12.5 8C9.46243 8 7 10.4624 7 13.5C7 14.8296 7.47182 16.0491 8.25716 17H5.72813C4.20431 17 2.92256 15.8576 2.7479 14.3439L1.55437 4H0.5C0.223858 4 0 3.77614 0 3.5C0 3.22386 0.223858 3 0.5 3H5.5ZM17 13.5C17 15.9853 14.9853 18 12.5 18C10.0147 18 8 15.9853 8 13.5C8 11.0147 10.0147 9 12.5 9C14.9853 9 17 11.0147 17 13.5ZM14.3536 12.3536C14.5488 12.1583 14.5488 11.8417 14.3536 11.6464C14.1583 11.4512 13.8417 11.4512 13.6464 11.6464L12.5 12.7929L11.3536 11.6464C11.1583 11.4512 10.8417 11.4512 10.6464 11.6464C10.4512 11.8417 10.4512 12.1583 10.6464 12.3536L11.7929 13.5L10.6464 14.6464C10.4512 14.8417 10.4512 15.1583 10.6464 15.3536C10.8417 15.5488 11.1583 15.5488 11.3536 15.3536L12.5 14.2071L13.6464 15.3536C13.8417 15.5488 14.1583 15.5488 14.3536 15.3536C14.5488 15.1583 14.5488 14.8417 14.3536 14.6464L13.2071 13.5L14.3536 12.3536Z" fill="#EB5757"/>
</svg>
