<svg viewBox="0 0 201 240" fill="none" xmlns="http://www.w3.org/2000/svg">
<g opacity="0.3">
<path opacity="0.3" d="M140.1 49.24C134.632 49.2373 129.389 47.0641 125.522 43.1976C121.656 39.3312 119.482 34.0879 119.48 28.62V0H27.3398C23.8051 -2.4406e-07 20.3051 0.696337 17.0396 2.04932C13.774 3.4023 10.8068 5.38537 8.30786 7.88525C5.80891 10.3851 3.82711 13.3529 2.47534 16.6189C1.12358 19.8849 0.428376 23.3853 0.429689 26.92V189.13C0.428376 192.665 1.12358 196.165 2.47534 199.431C3.82711 202.697 5.80891 205.665 8.30786 208.165C10.8068 210.665 13.774 212.648 17.0396 214.001C20.3051 215.354 23.8051 216.05 27.3398 216.05H137.94C141.474 216.05 144.974 215.354 148.24 214.001C151.506 212.648 154.472 210.665 156.971 208.165C159.47 205.665 161.452 202.697 162.804 199.431C164.156 196.165 164.851 192.665 164.85 189.13V49.25L140.1 49.24Z" fill="#5659E9"/>
</g>
<path d="M164.85 49.24H140.1C134.632 49.2373 129.389 47.0641 125.522 43.1976C121.656 39.3312 119.482 34.0879 119.48 28.62V0L164.85 49.24Z" fill="#5659E9"/>
<path d="M184.37 170.6H59.3298C50.4601 170.6 43.2698 177.79 43.2698 186.66V223.94C43.2698 232.81 50.4601 240 59.3298 240H184.37C193.24 240 200.43 232.81 200.43 223.94V186.66C200.43 177.79 193.24 170.6 184.37 170.6Z" fill="#5659E9"/>
<path d="M76.6497 213.37V220.65H69.1199V213.37H76.6497Z" fill="white"/>
<path d="M98.9998 190.58V211.12C98.9998 214.273 98.143 216.697 96.4297 218.39C95.4733 219.272 94.3492 219.952 93.1243 220.39C91.8993 220.828 90.5986 221.015 89.2998 220.94C87.8773 221.016 86.4538 220.81 85.1116 220.333C83.7693 219.856 82.5349 219.117 81.4797 218.16C79.5531 216.3 78.5865 213.633 78.5798 210.16H85.7698C85.7698 212.97 86.8397 214.37 88.9597 214.37C90.8097 214.37 91.7297 213.29 91.7297 211.14V190.6L98.9998 190.58Z" fill="white"/>
<path d="M111.06 210.1V220.65H103.79V190.58H115.57C119.136 190.58 121.856 191.463 123.73 193.23C124.678 194.159 125.418 195.278 125.903 196.514C126.387 197.75 126.604 199.074 126.54 200.4C126.567 202.147 126.136 203.871 125.29 205.4C124.419 206.891 123.124 208.088 121.57 208.84C119.698 209.729 117.641 210.161 115.57 210.1H111.06ZM119.14 200.4C119.14 197.733 117.68 196.4 114.76 196.4H111.06V204.23H114.76C117.68 204.257 119.14 202.98 119.14 200.4V200.4Z" fill="white"/>
<path d="M175.51 193C177.931 194.821 179.56 197.502 180.06 200.49H172.36C171.839 199.444 171.017 198.577 170 198C168.854 197.32 167.542 196.973 166.21 197C165.176 196.958 164.145 197.144 163.191 197.545C162.237 197.946 161.383 198.552 160.69 199.32C159.223 201.069 158.476 203.311 158.6 205.59C158.6 208.45 159.33 210.647 160.79 212.18C161.611 212.976 162.589 213.592 163.662 213.988C164.735 214.384 165.878 214.552 167.02 214.48C168.651 214.51 170.249 214.008 171.57 213.05C172.919 212.043 173.894 210.614 174.34 208.99H165.15V203.76H180.42V210.95C179.836 212.74 178.913 214.4 177.7 215.84C176.386 217.392 174.752 218.64 172.91 219.5C170.827 220.462 168.554 220.941 166.26 220.9C163.47 220.973 160.71 220.307 158.26 218.97C156.019 217.71 154.194 215.823 153.01 213.54C151.737 211.069 151.101 208.319 151.16 205.54C151.11 202.778 151.745 200.046 153.01 197.59C154.192 195.313 156.008 193.427 158.24 192.16C160.654 190.833 163.376 190.167 166.13 190.23C169.477 190.084 172.778 191.059 175.51 193V193Z" fill="white"/>
<path d="M104.73 146.41H60.5598C56.2358 146.405 52.0903 144.685 49.0327 141.627C45.9751 138.57 44.255 134.424 44.2498 130.1V85.9302C44.255 81.6061 45.9751 77.4606 49.0327 74.4031C52.0903 71.3455 56.2358 69.6254 60.5598 69.6201H104.73C109.053 69.6254 113.197 71.3458 116.253 74.4037C119.309 77.4615 121.027 81.607 121.03 85.9302V130.1C121.027 134.423 119.309 138.569 116.253 141.627C113.197 144.684 109.053 146.405 104.73 146.41ZM60.5598 76.8301C58.1472 76.8327 55.8339 77.7924 54.1279 79.4984C52.4219 81.2044 51.4624 83.5175 51.4597 85.9302V130.1C51.4624 132.513 52.4219 134.826 54.1279 136.532C55.8339 138.238 58.1472 139.197 60.5598 139.2H104.73C107.141 139.197 109.454 138.238 111.158 136.531C112.862 134.825 113.82 132.512 113.82 130.1V85.9302C113.82 83.5184 112.862 81.2053 111.158 79.499C109.454 77.7927 107.141 76.8327 104.73 76.8301H60.5598Z" fill="#5659E9"/>
<path d="M117.43 121.7V130.1C117.427 133.467 116.088 136.696 113.707 139.077C111.326 141.458 108.097 142.797 104.73 142.8H60.5598C57.1916 142.8 53.9613 141.462 51.5796 139.08C49.1979 136.698 47.8599 133.468 47.8599 130.1V116C54.9299 114.48 65.6998 114 78.7698 119.22L86.8699 111.5L92.3896 125.5C92.3896 125.5 93.8697 120.35 98.6497 121.08C103.43 121.81 111.17 124.4 114.48 122.19C115.372 121.675 116.419 121.501 117.43 121.7V121.7Z" fill="#5659E9"/>
<path d="M101.96 94.9498C104.671 94.9498 106.87 92.7516 106.87 90.0399C106.87 87.3282 104.671 85.1299 101.96 85.1299C99.248 85.1299 97.0498 87.3282 97.0498 90.0399C97.0498 92.7516 99.248 94.9498 101.96 94.9498Z" fill="#5659E9"/>
<path d="M137.14 196.36V202.65H147.3V208.14H137.14V214.82H148.58V220.64H129.86V190.57H148.58V196.36H137.14Z" fill="white"/>
</svg>
