<svg width="18" height="18" viewBox="0 0 18 18" fill="none" xmlns="http://www.w3.org/2000/svg">
<path d="M3.75 0H2.75C1.23122 0 0 1.23122 0 2.75V15.25C0 16.7688 1.23122 18 2.75 18H3V12C3 10.7574 4.00736 9.75 5.25 9.75H12.75C13.9926 9.75 15 10.7574 15 12V18H15.25C16.7688 18 18 16.7688 18 15.25V5.28553C18 4.42358 17.6576 3.59693 17.0481 2.98744L15.0126 0.951903C14.4114 0.35079 13.5991 0.00946645 12.75 0.000194002V4.5C12.75 5.74264 11.7426 6.75 10.5 6.75H6C4.75736 6.75 3.75 5.74264 3.75 4.5V0ZM11.25 0V4.5C11.25 4.91421 10.9142 5.25 10.5 5.25H6C5.58579 5.25 5.25 4.91421 5.25 4.5V0H11.25ZM13.5 18V12C13.5 11.5858 13.1642 11.25 12.75 11.25H5.25C4.83579 11.25 4.5 11.5858 4.5 12V18H13.5Z" fill="white"/>
</svg>
