<svg width="25" height="27" viewBox="0 0 25 27" fill="none" xmlns="http://www.w3.org/2000/svg">
<path d="M10.5 3.7998C14.6421 3.7998 18 7.15767 18 11.2998C18 13.01 17.4276 14.5864 16.464 15.8481L21.2071 20.5927C21.5976 20.9832 21.5976 21.6164 21.2071 22.0069C20.8466 22.3674 20.2794 22.3951 19.8871 22.0901L19.7929 22.0069L15.0483 17.2638C13.7866 18.2274 12.2101 18.7998 10.5 18.7998C6.35786 18.7998 3 15.4419 3 11.2998C3 7.15767 6.35786 3.7998 10.5 3.7998ZM10.5 5.7998C7.46243 5.7998 5 8.26224 5 11.2998C5 14.3374 7.46243 16.7998 10.5 16.7998C13.5376 16.7998 16 14.3374 16 11.2998C16 8.26224 13.5376 5.7998 10.5 5.7998Z" fill="#B6B6B6"/>
</svg>
