<svg width="18" height="14" viewBox="0 0 18 14" fill="none" xmlns="http://www.w3.org/2000/svg">
<path d="M3 11.5V8.16498L7.00843 10.4663C8.24174 11.1743 9.75826 11.1743 10.9916 10.4663L15 8.16498V11.5C15 11.6326 14.9473 11.7598 14.8536 11.8536L14.852 11.8551L14.8496 11.8574L14.8428 11.8642L14.8201 11.8859C14.801 11.9039 14.7741 11.9288 14.7394 11.9596C14.6701 12.0213 14.5696 12.1067 14.4389 12.2079C14.1777 12.41 13.7948 12.6761 13.2978 12.9412C12.3033 13.4716 10.8479 14 9 14C7.15211 14 5.69675 13.4716 4.70221 12.9412C4.20518 12.6761 3.82226 12.41 3.5611 12.2079C3.43043 12.1067 3.32994 12.0213 3.26059 11.9596C3.22591 11.9288 3.19898 11.9039 3.17992 11.8859L3.15724 11.8642C3.05938 11.7684 3 11.6378 3 11.5ZM17.7489 5.43369L10.4937 9.59903C9.56869 10.1301 8.4313 10.1301 7.50632 9.59903L1 5.86367L1 10.5C1 10.7761 0.776142 11 0.5 11C0.223858 11 0 10.7761 0 10.5V5.00008C0 4.81007 0.105983 4.64474 0.262058 4.56014L7.5063 0.401043C7.85317 0.201895 8.22992 0.0774271 8.61413 0.02764C8.73586 0.0118659 8.85834 0.00358839 8.98086 0.00280758C9.37393 0.000302475 9.76739 0.0749629 10.1377 0.226789C10.2591 0.276576 10.3781 0.334661 10.4937 0.401044L17.749 4.56646C17.9042 4.65561 18 4.82101 18 5.00008C18 5.17914 17.9042 5.34454 17.7489 5.43369Z"/>
</svg>
