<svg width="186" height="130" viewBox="0 0 186 130" fill="none" xmlns="http://www.w3.org/2000/svg">
<g clip-path="url(#clip0_296_1462)">
<path d="M153.71 110.387C154.462 104.337 158.211 98.3764 163.981 96.4077C161.705 102.634 161.706 109.465 163.982 115.692C164.869 118.09 166.104 120.665 165.27 123.081C164.752 124.585 163.482 125.736 162.063 126.455C160.645 127.175 159.07 127.518 157.515 127.854L157.209 128.107C154.74 122.533 152.957 116.436 153.71 110.387Z" fill="#F0F0F0"/>
<path d="M164.038 96.522C160.678 100.287 158.59 105.014 158.07 110.033C157.939 111.112 157.978 112.204 158.187 113.27C158.425 114.302 158.934 115.252 159.662 116.02C160.327 116.751 161.091 117.421 161.567 118.3C161.804 118.754 161.942 119.252 161.972 119.763C162.003 120.274 161.925 120.785 161.744 121.264C161.324 122.468 160.497 123.45 159.654 124.382C158.718 125.416 157.73 126.476 157.332 127.848C157.284 128.014 157.029 127.93 157.077 127.764C157.769 125.377 160.086 124.022 161.191 121.872C161.706 120.869 161.923 119.705 161.439 118.646C161.017 117.72 160.229 117.029 159.549 116.295C158.828 115.556 158.299 114.651 158.007 113.66C157.745 112.608 157.663 111.519 157.766 110.439C157.958 108.005 158.532 105.617 159.467 103.361C160.519 100.781 162.005 98.3996 163.86 96.3205C163.975 96.1918 164.152 96.3942 164.038 96.522Z" fill="white"/>
<path d="M158.142 108.407C157.312 108.206 156.58 107.716 156.078 107.025C155.576 106.333 155.336 105.486 155.4 104.634C155.414 104.462 155.683 104.475 155.669 104.648C155.607 105.441 155.831 106.23 156.3 106.873C156.769 107.515 157.452 107.969 158.226 108.152C158.395 108.192 158.309 108.447 158.142 108.407Z" fill="white"/>
<path d="M159.276 115.695C160.776 114.799 161.883 113.372 162.377 111.696C162.425 111.53 162.68 111.615 162.632 111.781C162.115 113.523 160.96 115.006 159.397 115.935C159.248 116.023 159.128 115.783 159.276 115.695Z" fill="white"/>
<path d="M160.768 101.035C161.073 101.18 161.41 101.247 161.747 101.23C162.084 101.213 162.412 101.112 162.7 100.937C162.848 100.847 162.968 101.088 162.821 101.177C162.501 101.369 162.139 101.48 161.767 101.5C161.394 101.519 161.023 101.448 160.684 101.291C160.651 101.278 160.624 101.254 160.608 101.223C160.592 101.191 160.589 101.155 160.599 101.121C160.61 101.087 160.634 101.059 160.666 101.043C160.698 101.027 160.735 101.024 160.768 101.035Z" fill="white"/>
<path d="M181.567 107.213C181.476 107.272 181.386 107.331 181.295 107.392C180.08 108.191 178.932 109.088 177.862 110.073C177.778 110.147 177.694 110.224 177.612 110.302C175.06 112.702 172.975 115.555 171.465 118.717C170.865 119.975 170.361 121.278 169.959 122.612C169.403 124.456 168.948 126.499 167.848 128.007C167.735 128.166 167.612 128.317 167.48 128.461H157.541C157.519 128.449 157.496 128.44 157.473 128.429L157.077 128.447C157.093 128.377 157.111 128.304 157.127 128.234C157.136 128.193 157.147 128.152 157.156 128.111C157.163 128.084 157.17 128.057 157.174 128.032C157.176 128.023 157.179 128.014 157.181 128.007C157.185 127.982 157.192 127.959 157.197 127.937C157.297 127.531 157.399 127.125 157.505 126.719C157.505 126.717 157.505 126.717 157.507 126.715C158.322 123.624 159.401 120.574 160.909 117.785C160.954 117.701 161 117.615 161.05 117.531C161.736 116.277 162.524 115.082 163.406 113.957C163.89 113.342 164.406 112.753 164.95 112.19C166.359 110.74 167.987 109.52 169.775 108.576C173.34 106.694 177.467 105.973 181.277 107.122C181.374 107.152 181.469 107.181 181.567 107.213Z" fill="#F0F0F0"/>
<path d="M181.544 107.339C176.595 108.322 172.082 110.84 168.645 114.534C167.891 115.316 167.265 116.212 166.79 117.189C166.358 118.156 166.192 119.221 166.311 120.273C166.402 121.256 166.609 122.252 166.46 123.24C166.376 123.745 166.186 124.226 165.903 124.652C165.619 125.078 165.249 125.44 164.817 125.713C163.756 126.422 162.505 126.708 161.271 126.944C159.901 127.207 158.474 127.458 157.33 128.314C157.192 128.418 157.039 128.197 157.177 128.093C159.167 126.604 161.832 126.917 164.009 125.866C165.024 125.375 165.898 124.576 166.149 123.439C166.369 122.446 166.157 121.419 166.056 120.425C165.925 119.4 166.047 118.359 166.411 117.392C166.835 116.394 167.426 115.475 168.157 114.675C169.777 112.847 171.673 111.286 173.777 110.048C176.171 108.621 178.791 107.614 181.524 107.071C181.693 107.038 181.713 107.306 181.544 107.339Z" fill="white"/>
<path d="M169.681 113.279C169.14 112.618 168.851 111.787 168.866 110.932C168.881 110.078 169.199 109.257 169.764 108.616C169.878 108.487 170.085 108.659 169.97 108.788C169.443 109.384 169.147 110.149 169.134 110.945C169.122 111.74 169.394 112.514 169.902 113.126C170.012 113.259 169.791 113.412 169.681 113.279Z" fill="white"/>
<path d="M166.199 119.781C167.936 119.969 169.679 119.495 171.082 118.455C171.221 118.352 171.374 118.573 171.235 118.676C169.773 119.756 167.958 120.245 166.151 120.045C165.979 120.026 166.028 119.762 166.199 119.781Z" fill="white"/>
<path d="M176.216 108.974C176.373 109.274 176.601 109.53 176.88 109.719C177.16 109.908 177.482 110.025 177.818 110.059C177.991 110.076 177.941 110.34 177.77 110.324C177.399 110.284 177.044 110.155 176.734 109.946C176.425 109.738 176.171 109.456 175.996 109.127C175.976 109.098 175.969 109.062 175.976 109.027C175.982 108.992 176.001 108.961 176.03 108.94C176.059 108.92 176.095 108.913 176.13 108.919C176.165 108.925 176.196 108.945 176.216 108.974Z" fill="white"/>
<path d="M121.609 79.8447C121.814 79.6322 121.971 79.3773 122.067 79.0978C122.164 78.8182 122.198 78.521 122.167 78.2269C122.136 77.9329 122.041 77.6491 121.889 77.3958C121.736 77.1424 121.53 76.9255 121.285 76.7604L123.122 69.8118L119.582 71.0025L118.38 77.4184C118.13 77.8489 118.047 78.3561 118.146 78.844C118.244 79.3319 118.519 79.7666 118.917 80.0656C119.315 80.3647 119.809 80.5074 120.305 80.4667C120.801 80.426 121.265 80.2046 121.609 79.8447Z" fill="#9E616A"/>
<path d="M137.988 126.518L135.522 126.517L134.349 117.006L137.988 117.007L137.988 126.518Z" fill="#9E616A"/>
<path d="M138.616 128.908L130.666 128.908V128.807C130.666 127.986 130.992 127.199 131.572 126.619C132.152 126.038 132.939 125.712 133.76 125.712L138.617 125.713L138.616 128.908Z" fill="#2F2E41"/>
<path d="M126.322 126.518L123.856 126.517L122.683 117.006L126.322 117.007L126.322 126.518Z" fill="#9E616A"/>
<path d="M126.951 128.908L119 128.908V128.807C119 127.986 119.326 127.199 119.906 126.619C120.487 126.038 121.274 125.712 122.095 125.712L126.951 125.713L126.951 128.908Z" fill="#2F2E41"/>
<path d="M124.951 69.2113L124.004 69.4727C124.004 69.4727 121.531 85.5029 121.33 93.9505C121.129 102.398 121.934 123.718 121.934 123.718H127.163L131.387 87.5143L133.398 123.718H139.03C139.03 123.718 143.052 76.2509 141.242 72.4294C139.432 68.6079 124.951 69.2113 124.951 69.2113Z" fill="#2F2E41"/>
<path d="M132.494 40.9257C135.104 40.9257 137.22 38.8102 137.22 36.2005C137.22 33.5909 135.104 31.4753 132.494 31.4753C129.885 31.4753 127.769 33.5909 127.769 36.2005C127.769 38.8102 129.885 40.9257 132.494 40.9257Z" fill="#9E616A"/>
<path d="M144.46 47.0867L137.126 42.2937L129.526 42.593L122.135 46.6844L124.951 62.3727L123.744 71.4236C123.744 71.4236 134.605 70.2168 137.019 72.027C138.428 73.101 140.091 73.7938 141.846 74.0384L141.443 58.5512L144.46 47.0867Z" fill="#3F3D56"/>
<path d="M123.543 46.4834L122.783 46.3257L122.135 46.6845C122.135 46.6845 120.325 49.0981 120.325 51.3105C120.325 53.523 118.112 74.843 118.112 74.843L122.135 76.6532L125.353 59.9592L123.543 46.4834Z" fill="#3F3D56"/>
<path d="M136.633 32.736C136.633 32.736 137.868 30.3734 135.149 30.1586C135.149 30.1586 132.832 28.056 130.469 29.7742C130.469 29.7742 129.18 29.7742 128.476 31.2325C128.476 31.2325 127.462 30.8481 127.239 31.8768C127.239 31.8768 126.498 34.0247 127.239 35.9577C127.981 37.8907 128.227 38.1055 128.227 38.1055C128.227 38.1055 127.009 34.0528 129.975 33.838C132.941 33.6232 136.261 31.7695 136.508 34.132C136.755 36.4946 137.127 37.0767 137.127 37.0767C137.127 37.0767 139.475 33.7025 136.633 32.736Z" fill="#2F2E41"/>
<path d="M75.5724 60.5335H17.043V16.6868H75.5724V60.5335Z" fill="white"/>
<path d="M75.5724 60.5335H17.043V16.6868H75.5724V60.5335ZM17.6464 17.2902V59.9301H74.969V17.2902H17.6464Z" fill="#E6E6E6"/>
<path d="M46.2895 49.8369C52.4445 49.8369 57.4341 44.8473 57.4341 38.6924C57.4341 32.5374 52.4445 27.5479 46.2895 27.5479C40.1346 27.5479 35.145 32.5374 35.145 38.6924C35.145 44.8473 40.1346 49.8369 46.2895 49.8369Z" fill="#4345FD"/>
<path d="M50.9172 37.7564H47.128V33.9673C47.128 33.7308 47.0341 33.504 46.8669 33.3368C46.6997 33.1696 46.4729 33.0757 46.2364 33.0757C46 33.0757 45.7732 33.1696 45.606 33.3368C45.4387 33.504 45.3448 33.7308 45.3448 33.9673V37.7564H41.5557C41.3192 37.7564 41.0924 37.8504 40.9252 38.0176C40.758 38.1848 40.6641 38.4116 40.6641 38.648C40.6641 38.8845 40.758 39.1113 40.9252 39.2785C41.0924 39.4457 41.3192 39.5397 41.5557 39.5397H45.3448V43.3288C45.3448 43.5653 45.4387 43.792 45.606 43.9593C45.7732 44.1265 46 44.2204 46.2364 44.2204C46.4729 44.2204 46.6997 44.1265 46.8669 43.9593C47.0341 43.792 47.128 43.5653 47.128 43.3288V39.5397H50.9172C51.1536 39.5397 51.3804 39.4457 51.5476 39.2785C51.7148 39.1113 51.8088 38.8845 51.8088 38.648C51.8088 38.4116 51.7148 38.1848 51.5476 38.0176C51.3804 37.8504 51.1536 37.7564 50.9172 37.7564Z" fill="white"/>
<path d="M21.8709 16.5037H0V0H21.8709V16.5037Z" fill="white"/>
<path d="M21.8709 16.5037H0V0H21.8709V16.5037ZM0.402264 16.1015H21.4686V0.402264H0.402264V16.1015Z" fill="#E6E6E6"/>
<path d="M18.9859 4.49487H2.88452V5.56831H18.9859V4.49487Z" fill="#E4E4E4"/>
<path d="M18.9859 7.71484H2.88452V8.78829H18.9859V7.71484Z" fill="#E4E4E4"/>
<path d="M18.9859 10.9353H2.88452V12.0087H18.9859V10.9353Z" fill="#E4E4E4"/>
<path d="M167.289 128.936H145.418V112.433H167.289V128.936Z" fill="white"/>
<path d="M167.289 128.936H145.418V112.433H167.289V128.936ZM145.821 128.534H166.887V112.835H145.821V128.534Z" fill="#E6E6E6"/>
<path d="M164.404 116.928H148.303V118.001H164.404V116.928Z" fill="#E4E4E4"/>
<path d="M164.404 120.148H148.303V121.221H164.404V120.148Z" fill="#E4E4E4"/>
<path d="M164.404 123.368H148.303V124.441H164.404V123.368Z" fill="#E4E4E4"/>
<path d="M154.007 99.3232L137.671 84.7813L148.644 72.4541L164.98 86.9959L154.007 99.3232Z" fill="white"/>
<path d="M154.007 99.3232L137.671 84.7813L148.644 72.4541L164.98 86.9959L154.007 99.3232ZM138.239 84.7483L153.974 98.7552L164.412 87.0289L148.677 73.022L138.239 84.7483Z" fill="#E6E6E6"/>
<path d="M147.81 77.7295L147.096 78.5312L159.123 89.237L159.837 88.4352L147.81 77.7295Z" fill="#E4E4E4"/>
<path d="M145.669 80.1347L144.955 80.9365L156.982 91.6423L157.696 90.8405L145.669 80.1347Z" fill="#E4E4E4"/>
<path d="M143.528 82.5403L142.814 83.342L154.841 94.0478L155.555 93.246L143.528 82.5403Z" fill="#E4E4E4"/>
<path d="M34.2541 26.158H9.85547V7.74683H34.2541V26.158Z" fill="white"/>
<path d="M34.2541 26.158H9.85547V7.74683H34.2541V26.158ZM10.3042 25.7092H33.8053V8.19557H10.3042V25.7092Z" fill="#E6E6E6"/>
<path d="M31.0358 12.7612H13.0735V13.9587H31.0358V12.7612Z" fill="#4345FD"/>
<path d="M31.0358 16.3535H13.0735V17.551H31.0358V16.3535Z" fill="#4345FD"/>
<path d="M31.0358 19.946H13.0735V21.1435H31.0358V19.946Z" fill="#4345FD"/>
<path d="M97.5724 74.3561H60.3396V46.2603H97.5724V74.3561Z" fill="white"/>
<path d="M97.5724 74.3561H60.3396V46.2603H97.5724V74.3561ZM61.0244 73.6713H96.8876V46.9451H61.0244V73.6713Z" fill="#E6E6E6"/>
<path d="M92.6614 53.9124H65.2505V55.7398H92.6614V53.9124Z" fill="#4345FD"/>
<path d="M92.6614 59.3943H65.2505V61.2217H92.6614V59.3943Z" fill="#4345FD"/>
<path d="M92.6614 64.8765H65.2505V66.7039H92.6614V64.8765Z" fill="#4345FD"/>
<path d="M185.76 129.124H89.158C89.0946 129.124 89.0339 129.099 88.9891 129.054C88.9443 129.009 88.9192 128.948 88.9192 128.885C88.9192 128.822 88.9443 128.761 88.9891 128.716C89.0339 128.671 89.0946 128.646 89.158 128.646H185.76C185.824 128.646 185.885 128.671 185.93 128.716C185.975 128.761 186 128.821 186 128.885C186 128.949 185.975 129.009 185.93 129.054C185.885 129.099 185.824 129.124 185.76 129.124Z" fill="#CACACA"/>
<path d="M141.96 79.6933C141.816 79.435 141.73 79.1484 141.709 78.8535C141.688 78.5585 141.731 78.2625 141.837 77.9863C141.942 77.7101 142.107 77.4604 142.32 77.2547C142.532 77.0491 142.787 76.8925 143.067 76.796L143.079 69.6086L146.193 71.6701L145.704 78.1793C145.835 78.6596 145.785 79.1712 145.564 79.6173C145.343 80.0633 144.966 80.4127 144.505 80.5993C144.043 80.7859 143.529 80.7968 143.06 80.6298C142.591 80.4628 142.2 80.1296 141.96 79.6933Z" fill="#9E616A"/>
<path d="M142.248 47.8914L143.639 46.5503L144.661 47.288C144.661 47.288 145.667 48.4948 146.472 52.1152C147.276 55.7356 146.472 75.6476 146.472 75.6476L142.047 75.0442L142.65 64.5854L140.84 55.7356L142.248 47.8914Z" fill="#3F3D56"/>
</g>
<defs>
<clipPath id="clip0_296_1462">
<rect width="186" height="129.125" fill="white"/>
</clipPath>
</defs>
</svg>
