<svg viewBox="0 0 140 120" fill="none" xmlns="http://www.w3.org/2000/svg">
<g clip-path="url(#clip0_330_2107)">
<path d="M72.5831 17.9738C72.6898 18.281 72.8627 18.561 73.0893 18.7941C73.316 19.0273 73.591 19.2079 73.8951 19.3232C74.1991 19.4386 74.5247 19.4859 74.849 19.4618C75.1733 19.4376 75.4883 19.3427 75.772 19.1837L95.0627 25.3715L101.447 20.3625L76.5647 16.0056C76.266 15.5468 75.8093 15.2136 75.2812 15.069C74.7532 14.9244 74.1905 14.9786 73.6997 15.2212C73.2089 15.4638 72.8242 15.878 72.6184 16.3853C72.4126 16.8927 72.4 17.4578 72.5831 17.9738Z" fill="#FFB6B6"/>
<path d="M108.314 26.2432C108.314 26.2432 108.139 25.8145 105.831 26.7472C102.965 27.9048 87.7117 27.1309 86.8664 22.9719C86.5966 23.2505 86.2417 23.4313 85.8577 23.486C85.4737 23.5406 85.0825 23.466 84.7456 23.2738L87.1302 18.0401C88.3714 17.6433 89.0459 17.3497 89.1261 17.8552L92.858 17.6357L107.972 20.1799L108.39 25.3971L108.314 26.2432Z" fill="#F2F2F2"/>
<path d="M103.56 20.9959L111.066 20.3461L118.103 23.5627L122.054 78.2238L106.548 71.0524L99.8948 72.8931L103.56 20.9959Z" fill="#F2F2F2"/>
<path d="M122.027 116.393L119.18 116.393L117.825 105.411L122.027 105.412L122.027 116.393Z" fill="#FFB6B6"/>
<path d="M122.753 119.153L113.573 119.153V119.036C113.573 118.089 113.949 117.18 114.619 116.51C115.289 115.84 116.198 115.463 117.146 115.463L118.823 114.191L121.952 115.464L122.753 115.464L122.753 119.153Z" fill="#2F2E41"/>
<path d="M110.994 114.599L108.217 115.226L104.476 104.812L108.575 103.887L110.994 114.599Z" fill="#FFB6B6"/>
<path d="M112.31 117.131L103.355 119.153L103.33 119.04C103.121 118.115 103.288 117.146 103.794 116.345C104.3 115.543 105.104 114.976 106.028 114.767L106.028 114.767L107.384 113.157L110.716 113.709L111.497 113.532L112.31 117.131Z" fill="#2F2E41"/>
<path d="M125.633 49.2573C126.968 53.2832 126.826 57.6532 125.312 62.3434L124.664 88.7505C125.735 89.9284 125.898 100.469 124.25 103.908C122.048 108.501 124.073 109.115 122.516 112.161H118.002L115.915 98.3577L115.767 87.169C115.167 85.7494 115.659 80.7534 115.659 80.7534L115.486 70.3939L107.346 88.5413C111.034 91.6978 110.702 101.894 110.763 106.416L111.972 111.753L106.416 112.25L103.964 105.013L101.207 100.553C99.8027 92.651 99.3861 86.85 100.584 84.4804L108.755 54.0796L125.633 49.2573Z" fill="#2F2E41"/>
<path d="M126.211 47.9137L125.467 46.4254C124.556 40.7814 123.656 35.5173 124.878 30.7822C124.955 26.6486 123.678 22.7652 120.13 20.6447L118.53 19.6875L117.72 17.6328L110.26 17.815L110.239 20.5086L107.567 24.7695V24.7871L107.734 47.973L108.471 50.3658L107.358 53.1493L107.949 54.9253L122.655 52.5742L124.365 52.2998C124.562 52.2366 124.753 52.1535 124.933 52.0517C125.547 51.711 126.028 51.1735 126.299 50.526C126.314 50.4887 126.327 50.4536 126.34 50.4163C126.456 50.1141 126.523 49.7954 126.538 49.4723C126.565 48.9333 126.452 48.3965 126.211 47.9137Z" fill="#3F3D56"/>
<path opacity="0.2" d="M126.538 49.4722C126.523 49.7953 126.456 50.1139 126.34 50.4162L124.933 52.0516C124.753 52.1534 124.562 52.2365 124.365 52.2997L122.655 52.5741L125.129 47.9224L119.691 36.0177L126.538 49.4722Z" fill="black"/>
<path d="M11.0042 97.57C9.27643 97.5875 7.54997 97.468 5.84109 97.2125C4.24993 96.9433 3.44312 96.5611 3.44312 96.0763L3.4437 96.0676L6.41203 73.4677L4.91705 69.1821C4.85429 69.0022 4.83577 68.8098 4.86304 68.6212C4.89032 68.4326 4.96259 68.2533 5.07376 68.0985C5.18492 67.9437 5.33171 67.8179 5.50173 67.7318C5.67174 67.6457 5.85998 67.6018 6.05055 67.6038L15.8817 67.7062C16.0688 67.7082 16.2528 67.7543 16.4186 67.8409C16.5845 67.9274 16.7276 68.0519 16.8361 68.2043C16.9447 68.3566 17.0158 68.5325 17.0435 68.7175C17.0713 68.9025 17.0549 69.0915 16.9957 69.269L15.5963 73.4671L18.5647 96.0676C18.5653 97.2554 13.8125 97.57 11.0042 97.57Z" fill="#F2F2F2"/>
<path d="M10.2031 94.3885H5.40088V94.6586H10.2031V94.3885Z" fill="#CCCCCC"/>
<path d="M10.2031 92.7683H5.40088V93.0384H10.2031V92.7683Z" fill="#CCCCCC"/>
<path d="M10.2031 91.1481H5.40088V91.4181H10.2031V91.1481Z" fill="#CCCCCC"/>
<path d="M10.2031 89.5278H5.40088V89.7979H10.2031V89.5278Z" fill="#CCCCCC"/>
<path d="M10.2031 87.9076H5.40088V88.1776H10.2031V87.9076Z" fill="#CCCCCC"/>
<path d="M54.2103 97.57C52.4825 97.5875 50.756 97.468 49.0471 97.2125C47.456 96.9433 46.6492 96.5611 46.6492 96.0763L46.6498 96.0676L49.6181 73.4677L48.1231 69.1821C48.0603 69.0022 48.0418 68.8098 48.0691 68.6212C48.0964 68.4326 48.1686 68.2533 48.2798 68.0985C48.391 67.9437 48.5378 67.8179 48.7078 67.7318C48.8778 67.6457 49.066 67.6018 49.2566 67.6038L59.0878 67.7062C59.2749 67.7082 59.4588 67.7543 59.6247 67.8409C59.7905 67.9274 59.9336 68.0519 60.0422 68.2043C60.1508 68.3566 60.2219 68.5325 60.2496 68.7175C60.2773 68.9025 60.2609 69.0915 60.2018 69.269L58.8024 73.4671L61.7708 96.0676C61.7714 97.2554 57.0186 97.57 54.2103 97.57Z" fill="#F2F2F2"/>
<path d="M53.4092 94.3885H48.6069V94.6586H53.4092V94.3885Z" fill="#CCCCCC"/>
<path d="M53.4092 92.7683H48.6069V93.0384H53.4092V92.7683Z" fill="#CCCCCC"/>
<path d="M53.4092 91.1481H48.6069V91.4181H53.4092V91.1481Z" fill="#CCCCCC"/>
<path d="M53.4092 89.5278H48.6069V89.7979H53.4092V89.5278Z" fill="#CCCCCC"/>
<path d="M53.4092 87.9076H48.6069V88.1776H53.4092V87.9076Z" fill="#CCCCCC"/>
<path d="M33.9573 97.57C32.2296 97.5875 30.5031 97.468 28.7942 97.2125C27.2031 96.9433 26.3962 96.5611 26.3962 96.0763L26.3968 96.0676L29.3652 73.4677L27.8702 69.1821C27.8074 69.0022 27.7889 68.8098 27.8162 68.6212C27.8434 68.4326 27.9157 68.2533 28.0269 68.0985C28.138 67.9437 28.2848 67.8179 28.4549 67.7318C28.6249 67.6457 28.8131 67.6018 29.0037 67.6038L38.8349 67.7062C39.0219 67.7082 39.2059 67.7543 39.3718 67.8409C39.5376 67.9274 39.6807 68.0519 39.7893 68.2043C39.8979 68.3566 39.9689 68.5325 39.9967 68.7175C40.0244 68.9025 40.008 69.0915 39.9488 69.269L38.5494 73.4671L41.5178 96.0676C41.5184 97.2554 36.7656 97.57 33.9573 97.57Z" fill="#F2F2F2"/>
<path d="M33.1562 94.3885H28.354V94.6586H33.1562V94.3885Z" fill="#CCCCCC"/>
<path d="M33.1562 92.7683H28.354V93.0384H33.1562V92.7683Z" fill="#CCCCCC"/>
<path d="M33.1562 91.1481H28.354V91.4181H33.1562V91.1481Z" fill="#CCCCCC"/>
<path d="M33.1562 89.5278H28.354V89.7979H33.1562V89.5278Z" fill="#CCCCCC"/>
<path d="M33.1562 87.9076H28.354V88.1776H33.1562V87.9076Z" fill="#CCCCCC"/>
<path d="M65.8895 99.2492H56.7082V83.857H65.8895C66.3909 83.857 66.8717 83.6578 67.2262 83.3033C67.5807 82.9488 67.7798 82.468 67.7798 81.9667C67.7798 81.4654 67.5807 80.9846 67.2262 80.6301C66.8717 80.2756 66.3909 80.0764 65.8895 80.0764H1.89027C1.38894 80.0764 0.908144 80.2756 0.553649 80.6301C0.199154 80.9846 0 81.4654 0 81.9667C0 82.468 0.199154 82.9488 0.553649 83.3033C0.908144 83.6578 1.38894 83.857 1.89027 83.857H9.72141V99.2492H1.89027C1.38894 99.2492 0.908144 99.4484 0.553649 99.8028C0.199154 100.157 0 100.638 0 101.139C0 101.641 0.199154 102.122 0.553649 102.476C0.908144 102.831 1.38894 103.03 1.89027 103.03H65.8895C66.1379 103.03 66.384 102.981 66.6135 102.886C66.8431 102.792 67.0517 102.652 67.2275 102.477C67.4032 102.301 67.5426 102.093 67.6377 101.863C67.7329 101.634 67.7818 101.388 67.7818 101.139C67.7818 100.891 67.7329 100.645 67.6377 100.416C67.5426 100.186 67.4032 99.9777 67.2275 99.8021C67.0517 99.6266 66.8431 99.4874 66.6135 99.3925C66.384 99.2976 66.1379 99.2489 65.8895 99.2492ZM13.502 99.2492V83.857H52.9277V99.2492H13.502Z" fill="#CCCCCC"/>
<path d="M64.4027 119.178C59.7066 119.178 55.3268 118.875 52.0703 118.324C48.053 117.644 46.1001 116.657 46.1001 115.305L46.1023 115.263L53.1534 61.5721L49.6232 51.4524C49.4538 50.9763 49.4031 50.466 49.4754 49.9659C49.5477 49.4657 49.7409 48.9907 50.0382 48.5821C50.3287 48.1671 50.7171 47.8304 51.1691 47.6018C51.6211 47.3732 52.1226 47.2599 52.629 47.272L76.0054 47.5155C76.5009 47.5206 76.9882 47.6428 77.4275 47.872C77.8668 48.1013 78.2457 48.4311 78.5334 48.8346C78.821 49.2381 79.0092 49.7038 79.0827 50.1939C79.1561 50.6839 79.1127 51.1844 78.956 51.6545L75.6514 61.5684L82.7038 115.263V115.284C82.7046 116.742 80.4936 117.776 75.9446 118.448C71.4757 119.107 66.3843 119.178 64.4027 119.178Z" fill="white"/>
<path d="M64.4027 119.178C59.7066 119.178 55.3268 118.875 52.0703 118.324C48.053 117.644 46.1001 116.657 46.1001 115.305L46.1023 115.263L53.1534 61.5721L49.6232 51.4524C49.4538 50.9763 49.4031 50.466 49.4754 49.9659C49.5477 49.4657 49.7409 48.9907 50.0382 48.5821C50.3287 48.1671 50.7171 47.8304 51.1691 47.6018C51.6211 47.3732 52.1226 47.2599 52.629 47.272L76.0054 47.5155C76.5009 47.5206 76.9882 47.6428 77.4275 47.872C77.8668 48.1013 78.2457 48.4311 78.5334 48.8346C78.821 49.2381 79.0092 49.7038 79.0827 50.1939C79.1561 50.6839 79.1127 51.1844 78.956 51.6545L75.6514 61.5684L82.7038 115.263V115.284C82.7046 116.742 80.4936 117.776 75.9446 118.448C71.4757 119.107 66.3843 119.178 64.4027 119.178ZM52.5644 47.9136C52.1709 47.9132 51.7832 48.0078 51.4342 48.1894C51.0852 48.3711 50.7853 48.6343 50.5599 48.9568C50.3233 49.282 50.1695 49.6599 50.112 50.0579C50.0544 50.4559 50.0948 50.8619 50.2297 51.2407L53.81 61.5044L53.8002 61.58L46.741 115.326C46.7423 115.853 47.4485 116.891 52.1776 117.69C55.3997 118.236 59.7413 118.536 64.4027 118.536C68.4999 118.536 72.7797 118.266 75.8508 117.812C79.7741 117.234 82.0342 116.32 82.0613 115.304L74.9954 61.5056L78.3467 51.4514C78.4714 51.0773 78.5059 50.6791 78.4475 50.2891C78.389 49.8992 78.2393 49.5286 78.0104 49.2075C77.7815 48.8864 77.48 48.6239 77.1304 48.4415C76.7809 48.2591 76.3931 48.1618 75.9988 48.1577L52.6188 47.9142C52.6006 47.9137 52.5824 47.9136 52.5644 47.9136Z" fill="#3F3D56"/>
<path opacity="0.5" d="M77.7283 108.736H51.0771L55.302 80.1678L55.417 79.3804L57.1771 67.4874C57.2845 66.7619 58.1197 67.3253 58.7102 66.8904C62.3767 64.1904 66.0871 64.1121 69.8297 66.7144C70.4082 67.1167 71.2073 66.6459 71.3153 67.3422L73.1643 79.2714L73.3429 80.4252L77.7283 108.736Z" fill="#4345FD"/>
<path d="M74.4391 112.736H54.338C53.8111 112.736 53.2903 112.623 52.8111 112.403C52.332 112.184 51.9058 111.864 51.5615 111.465C51.2172 111.066 50.963 110.598 50.8161 110.091C50.6691 109.585 50.633 109.054 50.7101 108.532L56.583 68.8187C56.6133 68.6157 56.6968 68.4242 56.8248 68.2638C56.9529 68.1033 57.1211 67.9795 57.3124 67.905C57.5037 67.8304 57.7113 67.8077 57.9141 67.8391C58.117 67.8706 58.308 67.9551 58.4677 68.084C62.047 70.9513 65.948 70.8867 70.0621 67.8931C70.2216 67.7765 70.4086 67.7031 70.6049 67.6803C70.8012 67.6574 71.0001 67.6858 71.1821 67.7626C71.368 67.8389 71.5309 67.9621 71.6551 68.1201C71.7792 68.2781 71.8602 68.4655 71.8903 68.6641L78.0633 108.508C78.1443 109.03 78.1112 109.565 77.9662 110.073C77.8213 110.582 77.568 111.054 77.2237 111.455C76.8794 111.857 76.4523 112.18 75.9716 112.401C75.4909 112.622 74.9681 112.736 74.4391 112.736Z" fill="#4345FD"/>
<path d="M66.3509 108.08H54.9304V108.723H66.3509V108.08Z" fill="white"/>
<path d="M66.3509 104.227H54.9304V104.869H66.3509V104.227Z" fill="white"/>
<path d="M66.3509 100.374H54.9304V101.016H66.3509V100.374Z" fill="white"/>
<path d="M66.3509 96.521H54.9304V97.1632H66.3509V96.521Z" fill="white"/>
<path d="M66.3509 92.6677H54.9304V93.3099H66.3509V92.6677Z" fill="white"/>
<path d="M73.8814 82.5597C72.9957 83.4392 71.9301 84.1168 70.7579 84.5458C69.5857 84.9747 68.3345 85.145 67.0902 85.045C65.671 84.9165 64.3769 84.3867 63.1311 83.7188C61.8435 83.0285 60.5977 82.2033 59.172 81.8179C57.9229 81.4808 56.4427 81.4358 55.3702 82.2707C55.2825 82.3386 55.1754 82.3768 55.0645 82.3797C54.9537 82.3826 54.8448 82.35 54.7537 82.2867L54.8757 81.4519C56.0702 80.617 57.5215 80.4886 58.944 80.7744C61.8082 81.3524 63.982 83.7221 66.9168 84.0624C68.1828 84.205 69.4644 84.0307 70.6464 83.5555C71.8284 83.0802 72.8738 82.3187 73.6888 81.3395L73.692 81.3363L73.8814 82.5597Z" fill="white"/>
<path d="M140 119.195C140 119.23 139.993 119.264 139.98 119.295C139.967 119.327 139.948 119.356 139.924 119.38C139.899 119.405 139.87 119.424 139.839 119.437C139.807 119.45 139.773 119.457 139.739 119.457H0.278322C0.209039 119.457 0.142593 119.429 0.0936024 119.38C0.044612 119.331 0.0170898 119.265 0.0170898 119.195C0.0170898 119.126 0.044612 119.06 0.0936024 119.011C0.142593 118.962 0.209039 118.934 0.278322 118.934H139.739C139.773 118.934 139.807 118.941 139.839 118.954C139.87 118.967 139.899 118.986 139.924 119.01C139.948 119.035 139.967 119.063 139.98 119.095C139.993 119.127 140 119.161 140 119.195Z" fill="#CCCCCC"/>
<path d="M111.024 20.3373L118.53 19.6875L125.567 22.9042L129.518 77.5652L114.011 70.3939L107.358 72.2346L111.024 20.3373Z" fill="#F2F2F2"/>
<path d="M73.979 20.2699C74.7064 20.2699 75.2961 19.6802 75.2961 18.9528C75.2961 18.2253 74.7064 17.6356 73.979 17.6356C73.2516 17.6356 72.6619 18.2253 72.6619 18.9528C72.6619 19.6802 73.2516 20.2699 73.979 20.2699Z" fill="#4345FD"/>
<path d="M71.7837 36.295C72.5111 36.295 73.1008 35.7053 73.1008 34.9779C73.1008 34.2505 72.5111 33.6608 71.7837 33.6608C71.0563 33.6608 70.4666 34.2505 70.4666 34.9779C70.4666 35.7053 71.0563 36.295 71.7837 36.295Z" fill="#4345FD"/>
<path d="M64.759 45.7345C65.4865 45.7345 66.0762 45.1448 66.0762 44.4174C66.0762 43.6899 65.4865 43.1002 64.759 43.1002C64.0316 43.1002 63.4419 43.6899 63.4419 44.4174C63.4419 45.1448 64.0316 45.7345 64.759 45.7345Z" fill="#4345FD"/>
<path d="M97.6404 55.9395V41.8002C97.6407 41.5141 97.7545 41.2397 97.9569 41.0373C98.1592 40.835 98.4336 40.7211 98.7198 40.7208H109.398C109.684 40.7211 109.959 40.835 110.161 41.0373C110.363 41.2397 110.477 41.5141 110.478 41.8002V55.9395C110.477 56.2257 110.363 56.5001 110.161 56.7025C109.959 56.9048 109.684 57.0186 109.398 57.019H98.7198C98.4336 57.0186 98.1592 56.9048 97.9569 56.7025C97.7545 56.5001 97.6407 56.2257 97.6404 55.9395Z" fill="#E6E6E6"/>
<path d="M98.4595 51.6688V42.5788C98.4598 42.3108 98.5664 42.0538 98.7559 41.8643C98.9454 41.6748 99.2024 41.5682 99.4704 41.5679H108.647C108.916 41.5682 109.172 41.6748 109.362 41.8643C109.552 42.0538 109.658 42.3108 109.658 42.5788V55.1608C109.658 55.4289 109.552 55.6858 109.362 55.8753C109.172 56.0648 108.916 56.1714 108.647 56.1717H102.962C101.769 56.1704 100.624 55.6956 99.7799 54.8514C98.9357 54.0072 98.4608 52.8626 98.4595 51.6688Z" fill="white"/>
<path d="M99.9453 45.115C99.9456 44.8531 100.05 44.602 100.235 44.4168C100.42 44.2317 100.671 44.1275 100.933 44.1272H107.299C107.561 44.1272 107.813 44.2313 107.998 44.4165C108.183 44.6018 108.287 44.8531 108.287 45.115C108.287 45.377 108.183 45.6283 107.998 45.8136C107.813 45.9988 107.561 46.1029 107.299 46.1029H100.933C100.671 46.1026 100.42 45.9984 100.235 45.8132C100.05 45.6281 99.9456 45.377 99.9453 45.115Z" fill="#E6E6E6"/>
<path d="M99.9453 48.1884C99.9456 47.9265 100.05 47.6754 100.235 47.4902C100.42 47.305 100.671 47.2008 100.933 47.2006H107.299C107.561 47.2006 107.813 47.3046 107.998 47.4899C108.183 47.6752 108.287 47.9264 108.287 48.1884C108.287 48.4504 108.183 48.7017 107.998 48.8869C107.813 49.0722 107.561 49.1763 107.299 49.1763H100.933C100.671 49.176 100.42 49.0718 100.235 48.8866C100.05 48.7014 99.9456 48.4503 99.9453 48.1884Z" fill="#E6E6E6"/>
<path d="M99.9453 51.2617C99.9456 50.9997 100.05 50.7487 100.235 50.5635C100.42 50.3783 100.671 50.2741 100.933 50.2738H107.299C107.561 50.2738 107.813 50.3779 107.998 50.5631C108.183 50.7484 108.287 50.9997 108.287 51.2617C108.287 51.5236 108.183 51.7749 107.998 51.9602C107.813 52.1454 107.561 52.2495 107.299 52.2495H100.933C100.671 52.2492 100.42 52.145 100.235 51.9599C100.05 51.7747 99.9456 51.5236 99.9453 51.2617Z" fill="#E6E6E6"/>
<path d="M106.339 58.3789C106.64 58.2547 106.91 58.0661 107.129 57.8264C107.349 57.5867 107.514 57.3017 107.611 56.9916C107.709 56.6815 107.738 56.3536 107.695 56.0313C107.652 55.7089 107.539 55.3998 107.364 55.1258L115.107 48.0922L117.823 37.5855L113.003 37.1844L111.529 45.4293L104.146 54.5168C103.705 54.8414 103.399 55.3164 103.285 55.8519C103.171 56.3873 103.257 56.946 103.527 57.4221C103.798 57.8981 104.233 58.2585 104.752 58.4348C105.27 58.6111 105.835 58.5912 106.339 58.3789Z" fill="#FFB6B6"/>
<path d="M118.566 28.097C118.566 28.097 119.741 28.1144 119.211 30.547C118.788 32.4946 117.18 43.4542 115.897 45.9061C116.191 46.1595 116.392 46.5034 116.469 46.8836C116.545 47.2638 116.493 47.6587 116.321 48.0061L110.959 45.9258C110.491 44.7094 111.275 44.3313 111.775 44.2222L111.677 40.4067L112.446 30.6809L117.717 28.0693L118.566 28.097Z" fill="#F2F2F2"/>
<path d="M120.145 10.0922C119.895 11.9165 118.931 13.5668 117.465 14.6806C115.998 15.7944 114.15 16.2805 112.325 16.0322C110.501 15.7839 108.85 14.8214 107.734 13.3563C106.619 11.8912 106.131 10.0432 106.378 8.2185L106.391 8.11989C106.679 6.31967 107.663 4.70474 109.131 3.62347C110.599 2.5422 112.433 2.08124 114.237 2.34003C116.042 2.59882 117.673 3.55662 118.777 5.00682C119.882 6.45701 120.373 8.28338 120.143 10.0919L120.145 10.0922Z" fill="#FFB8B8"/>
<path d="M118.377 13.6705C118.734 12.9458 119.1 12.1677 119 11.3662C118.9 10.5647 118.114 9.7986 117.342 10.0368C116.88 10.1792 116.531 10.635 116.049 10.6583C115.385 10.6904 115.005 9.93068 114.798 9.29901L113.956 6.72641C113.148 7.3562 112.211 7.79983 111.212 8.02565C110.212 8.25147 109.176 8.25391 108.175 8.03279C107.394 7.85415 106.605 7.50585 106.146 6.84834C105.688 6.19083 105.691 5.17091 106.319 4.67371C106.628 4.42992 107.038 4.33729 107.332 4.07715C107.515 3.91578 107.641 3.69986 107.692 3.46135C107.742 3.22284 107.714 2.97442 107.613 2.75285C107.511 2.53127 107.341 2.34831 107.127 2.23105C106.913 2.11379 106.667 2.06844 106.426 2.10174L108.545 1.83692L107.913 0.695104C108.368 1.0537 109.001 1.10193 109.572 0.999281C110.142 0.896637 110.679 0.661917 111.236 0.505386C113.913 -0.246069 117.025 1.0605 118.363 3.49808C118.885 3.32397 119.447 3.3124 119.975 3.4649C120.503 3.6174 120.972 3.92677 121.32 4.35202C121.888 5.07194 122.042 6.03266 122.064 6.94893C122.105 8.75555 121.711 10.5456 120.915 12.168C120.687 12.6834 120.359 13.1485 119.951 13.5366C119.745 13.7291 119.499 13.8742 119.232 13.9618C118.964 14.0493 118.68 14.0773 118.401 14.0436" fill="#2F2E41"/>
</g>
<defs>
<clipPath id="clip0_330_2107">
<rect width="140" height="119.163" fill="white" transform="translate(0 0.293579)"/>
</clipPath>
</defs>
</svg>
