<svg width="140" height="87" viewBox="0 0 140 87" fill="none" xmlns="http://www.w3.org/2000/svg">
<g clip-path="url(#clip0_96_618)">
<path d="M33.9093 78.3296L34.065 74.8294C35.6878 73.962 37.4977 73.5038 39.3378 73.4946C36.8053 75.5651 37.1218 79.5562 35.4049 82.3405C34.8627 83.2048 34.133 83.936 33.2699 84.4799C32.4067 85.0239 31.4322 85.3666 30.4186 85.4827L28.2994 86.7803C28.0086 85.1591 28.0727 83.4942 28.4873 81.9003C28.9019 80.3063 29.6571 78.8211 30.701 77.5472C31.2936 76.8383 31.9732 76.2068 32.7237 75.6677C33.2312 77.0061 33.9093 78.3296 33.9093 78.3296Z" fill="#F2F2F2"/>
<path d="M124.336 5.70282H25.6806C25.6392 5.70191 25.5998 5.68482 25.5708 5.65521C25.5419 5.6256 25.5256 5.58582 25.5256 5.5444C25.5256 5.50298 25.5419 5.4632 25.5708 5.4336C25.5998 5.40399 25.6392 5.3869 25.6806 5.38599H124.336C124.377 5.3869 124.417 5.40399 124.446 5.4336C124.475 5.4632 124.491 5.50298 124.491 5.5444C124.491 5.58582 124.475 5.6256 124.446 5.65521C124.417 5.68482 124.377 5.70191 124.336 5.70282Z" fill="#CACACA"/>
<path d="M29.1684 3.48513C30.1099 3.48513 30.873 2.70495 30.873 1.74256C30.873 0.780172 30.1099 0 29.1684 0C28.227 0 27.4639 0.780172 27.4639 1.74256C27.4639 2.70495 28.227 3.48513 29.1684 3.48513Z" fill="#3F3D56"/>
<path d="M35.0571 3.48513C35.9985 3.48513 36.7617 2.70495 36.7617 1.74256C36.7617 0.780172 35.9985 0 35.0571 0C34.1157 0 33.3525 0.780172 33.3525 1.74256C33.3525 2.70495 34.1157 3.48513 35.0571 3.48513Z" fill="#3F3D56"/>
<path d="M40.9455 3.48513C41.887 3.48513 42.6501 2.70495 42.6501 1.74256C42.6501 0.780172 41.887 0 40.9455 0C40.0041 0 39.241 0.780172 39.241 1.74256C39.241 2.70495 40.0041 3.48513 40.9455 3.48513Z" fill="#3F3D56"/>
<path d="M120.807 0.431885H116.624C116.542 0.433531 116.463 0.467623 116.405 0.526841C116.346 0.586058 116.314 0.665679 116.314 0.748606C116.314 0.831533 116.346 0.911154 116.405 0.970371C116.463 1.02959 116.542 1.06368 116.624 1.06533H120.807C120.89 1.06368 120.969 1.02959 121.027 0.970371C121.085 0.911154 121.118 0.831533 121.118 0.748606C121.118 0.665679 121.085 0.586058 121.027 0.526841C120.969 0.467623 120.89 0.433531 120.807 0.431885Z" fill="#3F3D56"/>
<path d="M120.807 1.62085H116.624C116.542 1.6225 116.463 1.65659 116.405 1.71581C116.346 1.77502 116.314 1.85464 116.314 1.93757C116.314 2.0205 116.346 2.10012 116.405 2.15934C116.463 2.21855 116.542 2.25265 116.624 2.25429H120.807C120.89 2.25265 120.969 2.21855 121.027 2.15934C121.085 2.10012 121.118 2.0205 121.118 1.93757C121.118 1.85464 121.085 1.77502 121.027 1.71581C120.969 1.65659 120.89 1.6225 120.807 1.62085Z" fill="#3F3D56"/>
<path d="M120.807 2.80811H116.624C116.542 2.80975 116.463 2.84384 116.405 2.90306C116.346 2.96228 116.314 3.0419 116.314 3.12483C116.314 3.20775 116.346 3.28737 116.405 3.34659C116.463 3.40581 116.542 3.4399 116.624 3.44155H120.807C120.89 3.4399 120.969 3.40581 121.027 3.34659C121.085 3.28737 121.118 3.20775 121.118 3.12483C121.118 3.0419 121.085 2.96228 121.027 2.90306C120.969 2.84384 120.89 2.80975 120.807 2.80811Z" fill="#3F3D56"/>
<path d="M102.461 18.1204H34.7464C34.4127 18.1204 34.0927 18.2528 33.8566 18.4886C33.6206 18.7244 33.4877 19.0442 33.4873 19.3779V51.3418C33.4877 51.6756 33.6204 51.9956 33.8565 52.2317C34.0925 52.4677 34.4126 52.6005 34.7464 52.6009H102.461C102.794 52.6002 103.114 52.4673 103.35 52.2312C103.586 51.9952 103.718 51.6754 103.718 51.3418V19.3779C103.718 19.0445 103.585 18.7248 103.35 18.4891C103.114 18.2533 102.794 18.1207 102.461 18.1204Z" fill="#3F3D56"/>
<path d="M84.5744 33.5198C84.241 33.5201 83.9214 33.6527 83.6856 33.8885C83.4498 34.1242 83.3172 34.4439 83.3169 34.7773V43.8062C83.3172 44.1398 83.4497 44.4596 83.6854 44.6956C83.9212 44.9317 84.2409 45.0646 84.5744 45.0653H103.718V33.5198H84.5744Z" fill="#4345FD"/>
<path opacity="0.5" d="M135.907 45.0646H84.5752C84.2415 45.0642 83.9216 44.9315 83.6857 44.6955C83.4497 44.4596 83.317 44.1397 83.3167 43.806V34.7775C83.317 34.4439 83.4497 34.124 83.6857 33.888C83.9216 33.6521 84.2415 33.5194 84.5752 33.519H135.907C136.241 33.5194 136.561 33.6521 136.797 33.888C137.033 34.124 137.166 34.4439 137.166 34.7775V43.806C137.166 44.1397 137.033 44.4596 136.797 44.6955C136.561 44.9315 136.241 45.0642 135.907 45.0646Z" fill="#4345FD"/>
<path d="M91.5171 41.9111C92.645 41.9111 93.5593 40.9968 93.5593 39.8689C93.5593 38.741 92.645 37.8267 91.5171 37.8267C90.3892 37.8267 89.4749 38.741 89.4749 39.8689C89.4749 40.9968 90.3892 41.9111 91.5171 41.9111Z" fill="white"/>
<path d="M134.317 39.2756H97.416C97.2547 39.2756 97.1 39.2115 96.986 39.0975C96.8719 38.9834 96.8079 38.8287 96.8079 38.6675C96.8079 38.5062 96.8719 38.3515 96.986 38.2374C97.1 38.1234 97.2547 38.0593 97.416 38.0593H134.317C134.478 38.0593 134.633 38.1234 134.747 38.2374C134.861 38.3515 134.925 38.5062 134.925 38.6675C134.925 38.8287 134.861 38.9834 134.747 39.0975C134.633 39.2115 134.478 39.2756 134.317 39.2756Z" fill="white"/>
<path d="M120.302 41.6785H97.416C97.2547 41.6785 97.1 41.6144 96.986 41.5004C96.8719 41.3863 96.8079 41.2316 96.8079 41.0703C96.8079 40.909 96.8719 40.7543 96.986 40.6403C97.1 40.5262 97.2547 40.4622 97.416 40.4622H120.302C120.463 40.4622 120.618 40.5262 120.732 40.6403C120.846 40.7543 120.91 40.909 120.91 41.0703C120.91 41.2316 120.846 41.3863 120.732 41.5004C120.618 41.6144 120.463 41.6785 120.302 41.6785Z" fill="white"/>
<path d="M23.6224 85.115L25.3898 85.1149L26.2306 78.2979H23.6221L23.6224 85.115Z" fill="#FFB6B6"/>
<path d="M23.1716 84.5379L23.6691 84.5379L25.6113 83.748L26.6523 84.5378C27.2405 84.5378 27.8048 84.7715 28.2208 85.1875C28.6368 85.6034 28.8705 86.1676 28.8705 86.7559V86.8279L23.1717 86.8282L23.1716 84.5379Z" fill="#2F2E41"/>
<path d="M7.65308 82.8172L9.23497 83.6055L13.0284 77.8794L10.6939 76.7158L7.65308 82.8172Z" fill="#FFB6B6"/>
<path d="M7.50692 82.0994L7.95216 82.3213L10.0427 82.4808L10.6221 83.6519C11.1486 83.9144 11.5494 84.3753 11.7361 84.9331C11.9228 85.491 11.8803 86.1001 11.6179 86.6266L11.5858 86.6912L6.48535 84.1491L7.50692 82.0994Z" fill="#2F2E41"/>
<path d="M24.4054 54.1541L13.1679 54.4472L13.3633 59.9194C13.3633 59.9194 13.1679 61.3852 13.5588 61.776C13.9496 62.1669 14.1451 62.1669 13.9496 62.8509C13.7542 63.5349 13.2489 70.0706 13.2489 70.0706C13.2489 70.0706 8.63674 78.2257 8.83217 78.4212C9.02761 78.6166 9.22304 78.4212 9.02761 78.9098C8.83217 79.3983 8.63674 79.2029 8.83217 79.3983C9.00529 79.585 9.16838 79.7807 9.32076 79.9846H12.506C12.506 79.9846 12.6841 79.0075 12.6841 78.9098C12.6841 78.812 12.8796 78.2257 12.8796 78.128C12.8796 78.0303 18.4446 72.1341 18.4446 72.1341L19.6172 62.3623L22.4511 71.9387C22.4511 71.9387 22.4511 80.3424 22.6465 80.5378C22.8419 80.7333 22.8419 80.6355 22.7442 81.0264C22.6465 81.4173 22.2556 81.3196 22.5488 81.6127C22.8419 81.9059 22.9396 81.4173 22.8419 81.9059L22.7442 82.3944L26.4984 82.4364C26.4984 82.4364 26.8893 81.6127 26.6939 81.3196C26.4984 81.0264 26.5102 81.1064 26.7486 80.6267C26.987 80.1469 27.0847 80.0492 26.987 79.9515C26.8893 79.8538 26.8893 79.334 26.8893 79.334C26.8893 79.334 25.4803 60.1148 25.4803 59.8217C25.4729 59.6708 25.5007 59.5203 25.5615 59.3821V58.9842L25.1871 57.5742L24.4054 54.1541Z" fill="#2F2E41"/>
<path d="M135.688 37.1872C134.835 37.1872 134.001 36.9343 133.292 36.4605C132.583 35.9866 132.03 35.3132 131.704 34.5252C131.378 33.7373 131.292 32.8703 131.459 32.0338C131.625 31.1974 132.036 30.429 132.639 29.826C133.242 29.2229 134.01 28.8122 134.847 28.6458C135.683 28.4795 136.55 28.5649 137.338 28.8912C138.126 29.2176 138.799 29.7703 139.273 30.4794C139.747 31.1885 140 32.0222 140 32.8751C140 34.0187 139.546 35.1155 138.737 35.9242C137.928 36.7329 136.831 37.1872 135.688 37.1872Z" fill="#4345FD"/>
<path d="M137.389 32.4497H136.113V31.1737C136.113 31.0608 136.068 30.9526 135.989 30.8729C135.909 30.7931 135.801 30.7483 135.688 30.7483C135.575 30.7483 135.467 30.7931 135.387 30.8729C135.307 30.9526 135.263 31.0608 135.263 31.1737V32.4497H133.986C133.931 32.4496 133.875 32.4606 133.823 32.4819C133.772 32.5032 133.725 32.5345 133.685 32.574C133.646 32.6136 133.614 32.6605 133.593 32.7121C133.571 32.7638 133.56 32.8192 133.56 32.8751C133.56 32.931 133.571 32.9864 133.593 33.0381C133.614 33.0897 133.646 33.1367 133.685 33.1762C133.725 33.2157 133.772 33.247 133.823 33.2683C133.875 33.2896 133.931 33.3006 133.986 33.3005H135.263V34.5766C135.263 34.6894 135.307 34.7976 135.387 34.8773C135.467 34.9571 135.575 35.0019 135.688 35.0019C135.801 35.0019 135.909 34.9571 135.989 34.8773C136.068 34.7976 136.113 34.6894 136.113 34.5766V33.3005H137.389C137.502 33.3005 137.61 33.2557 137.69 33.1759C137.77 33.0961 137.815 32.9879 137.815 32.8751C137.815 32.7623 137.77 32.6541 137.69 32.5743C137.61 32.4946 137.502 32.4497 137.389 32.4497Z" fill="white"/>
<path d="M69.8789 45.1228H53.4952C53.1613 45.1232 52.8413 45.2559 52.6053 45.492C52.3692 45.728 52.2365 46.0481 52.2361 46.3819V52.6009H71.1364V46.3819C71.1361 46.0483 71.0036 45.7285 70.7679 45.4924C70.5321 45.2564 70.2124 45.1235 69.8789 45.1228Z" fill="#4345FD"/>
<path opacity="0.5" d="M69.8783 62.5971H53.4946C53.1609 62.5967 52.841 62.464 52.6051 62.2281C52.3692 61.9921 52.2365 61.6722 52.2361 61.3386V46.3813C52.2365 46.0476 52.3692 45.7277 52.6051 45.4918C52.8411 45.2559 53.1609 45.1232 53.4946 45.1228H69.8783C70.212 45.1232 70.5319 45.2559 70.7678 45.4918C71.0037 45.7277 71.1365 46.0476 71.1368 46.3813V61.3386C71.1365 61.6722 71.0037 61.9921 70.7678 62.2281C70.5319 62.464 70.212 62.5967 69.8783 62.5971Z" fill="#4345FD"/>
<path d="M58.3218 52.2126C59.4496 52.2126 60.364 51.2983 60.364 50.1704C60.364 49.0425 59.4496 48.1282 58.3218 48.1282C57.1939 48.1282 56.2795 49.0425 56.2795 50.1704C56.2795 51.2983 57.1939 52.2126 58.3218 52.2126Z" fill="white"/>
<path d="M66.4851 55.3166H56.8877C56.7264 55.3166 56.5717 55.2525 56.4577 55.1385C56.3436 55.0244 56.2795 54.8697 56.2795 54.7085C56.2795 54.5472 56.3436 54.3925 56.4577 54.2785C56.5717 54.1644 56.7264 54.1003 56.8877 54.1003H66.4851C66.6464 54.1003 66.8011 54.1644 66.9151 54.2785C67.0292 54.3925 67.0933 54.5472 67.0933 54.7085C67.0933 54.8697 67.0292 55.0244 66.9151 55.1385C66.8011 55.2525 66.6464 55.3166 66.4851 55.3166Z" fill="white"/>
<path d="M61.519 57.7197H56.8877C56.7264 57.7197 56.5717 57.6557 56.4577 57.5416C56.3436 57.4276 56.2795 57.2729 56.2795 57.1116C56.2795 56.9503 56.3436 56.7956 56.4577 56.6815C56.5717 56.5675 56.7264 56.5034 56.8877 56.5034H61.519C61.6803 56.5034 61.8349 56.5675 61.949 56.6815C62.063 56.7956 62.1271 56.9503 62.1271 57.1116C62.1271 57.2729 62.063 57.4276 61.949 57.5416C61.8349 57.6557 61.6803 57.7197 61.519 57.7197Z" fill="white"/>
<path d="M53.1532 66.987C52.3003 66.987 51.4666 66.7341 50.7575 66.2603C50.0484 65.7864 49.4957 65.113 49.1693 64.3251C48.8429 63.5371 48.7575 62.6701 48.9239 61.8336C49.0903 60.9972 49.501 60.2288 50.1041 59.6258C50.7071 59.0227 51.4754 58.612 52.3119 58.4457C53.1484 58.2793 54.0154 58.3647 54.8033 58.691C55.5913 59.0174 56.2647 59.5701 56.7385 60.2792C57.2124 60.9883 57.4653 61.822 57.4653 62.6749C57.4653 63.8185 57.0109 64.9153 56.2023 65.724C55.3936 66.5327 54.2968 66.987 53.1532 66.987Z" fill="#4345FD"/>
<path d="M54.8545 62.2496H53.5784V60.9735C53.5784 60.8606 53.5336 60.7525 53.4538 60.6727C53.374 60.5929 53.2658 60.5481 53.153 60.5481C53.0402 60.5481 52.932 60.5929 52.8522 60.6727C52.7725 60.7525 52.7277 60.8606 52.7277 60.9735V62.2496H51.4516C51.3956 62.2494 51.3402 62.2604 51.2885 62.2817C51.2368 62.303 51.1898 62.3343 51.1503 62.3739C51.1107 62.4134 51.0793 62.4603 51.0578 62.5119C51.0364 62.5636 51.0254 62.619 51.0254 62.6749C51.0254 62.7308 51.0364 62.7862 51.0578 62.8379C51.0793 62.8895 51.1107 62.9365 51.1503 62.976C51.1898 63.0155 51.2368 63.0468 51.2885 63.0681C51.3402 63.0895 51.3956 63.1004 51.4516 63.1003H52.7277V64.3764C52.7277 64.4892 52.7725 64.5974 52.8522 64.6771C52.932 64.7569 53.0402 64.8017 53.153 64.8017C53.2658 64.8017 53.374 64.7569 53.4538 64.6771C53.5336 64.5974 53.5784 64.4892 53.5784 64.3764V63.1003H54.8545C54.9673 63.1003 55.0755 63.0555 55.1552 62.9757C55.235 62.8959 55.2798 62.7877 55.2798 62.6749C55.2798 62.5621 55.235 62.4539 55.1552 62.3741C55.0755 62.2944 54.9673 62.2496 54.8545 62.2496Z" fill="white"/>
<path d="M51.1571 35.6142H34.7734C34.4397 35.6138 34.1199 35.4811 33.8839 35.2451C33.648 35.0092 33.5153 34.6893 33.5149 34.3557V19.3984C33.5153 19.0647 33.648 18.7448 33.8839 18.5089C34.1199 18.273 34.4398 18.1403 34.7734 18.1399H51.1571C51.4908 18.1403 51.8107 18.273 52.0466 18.5089C52.2826 18.7448 52.4153 19.0647 52.4157 19.3984V34.3557C52.4153 34.6893 52.2826 35.0092 52.0466 35.2451C51.8107 35.4811 51.4908 35.6138 51.1571 35.6142Z" fill="#4345FD"/>
<path d="M39.6006 26.4777C40.7284 26.4777 41.6428 25.5634 41.6428 24.4355C41.6428 23.3076 40.7284 22.3933 39.6006 22.3933C38.4727 22.3933 37.5583 23.3076 37.5583 24.4355C37.5583 25.5634 38.4727 26.4777 39.6006 26.4777Z" fill="#4345FD"/>
<path d="M47.7639 28.9577H38.1665C38.0052 28.9577 37.8505 28.8936 37.7365 28.7796C37.6224 28.6655 37.5583 28.5109 37.5583 28.3496C37.5583 28.1883 37.6224 28.0336 37.7365 27.9196C37.8505 27.8055 38.0052 27.7415 38.1665 27.7415H47.7639C47.9252 27.7415 48.0799 27.8055 48.194 27.9196C48.308 28.0336 48.3721 28.1883 48.3721 28.3496C48.3721 28.5109 48.308 28.6655 48.194 28.7796C48.0799 28.8936 47.9252 28.9577 47.7639 28.9577Z" fill="#4345FD"/>
<path d="M42.7978 31.3608H38.1665C38.0052 31.3608 37.8505 31.2968 37.7365 31.1827C37.6224 31.0687 37.5583 30.914 37.5583 30.7527C37.5583 30.5914 37.6224 30.4367 37.7365 30.3227C37.8505 30.2086 38.0052 30.1445 38.1665 30.1445H42.7978C42.9591 30.1445 43.1137 30.2086 43.2278 30.3227C43.3419 30.4367 43.4059 30.5914 43.4059 30.7527C43.4059 30.914 43.3419 31.0687 43.2278 31.1827C43.1137 31.2968 42.9591 31.3608 42.7978 31.3608Z" fill="#4345FD"/>
<path opacity="0.5" d="M51.1571 35.6142H34.7734C34.4397 35.6138 34.1199 35.4811 33.8839 35.2451C33.648 35.0092 33.5153 34.6893 33.5149 34.3557V19.3984C33.5153 19.0647 33.648 18.7448 33.8839 18.5089C34.1199 18.273 34.4398 18.1403 34.7734 18.1399H51.1571C51.4908 18.1403 51.8107 18.273 52.0466 18.5089C52.2826 18.7448 52.4153 19.0647 52.4157 19.3984V34.3557C52.4153 34.6893 52.2826 35.0092 52.0466 35.2451C51.8107 35.4811 51.4908 35.6138 51.1571 35.6142Z" fill="#4345FD"/>
<path d="M39.6006 26.4777C40.7284 26.4777 41.6428 25.5634 41.6428 24.4355C41.6428 23.3076 40.7284 22.3933 39.6006 22.3933C38.4727 22.3933 37.5583 23.3076 37.5583 24.4355C37.5583 25.5634 38.4727 26.4777 39.6006 26.4777Z" fill="white"/>
<path d="M47.7639 28.9577H38.1665C38.0052 28.9577 37.8505 28.8936 37.7365 28.7796C37.6224 28.6655 37.5583 28.5109 37.5583 28.3496C37.5583 28.1883 37.6224 28.0336 37.7365 27.9196C37.8505 27.8055 38.0052 27.7415 38.1665 27.7415H47.7639C47.9252 27.7415 48.0799 27.8055 48.194 27.9196C48.308 28.0336 48.3721 28.1883 48.3721 28.3496C48.3721 28.5109 48.308 28.6655 48.194 28.7796C48.0799 28.8936 47.9252 28.9577 47.7639 28.9577Z" fill="white"/>
<path d="M42.7978 31.3608H38.1665C38.0052 31.3608 37.8505 31.2968 37.7365 31.1827C37.6224 31.0687 37.5583 30.914 37.5583 30.7527C37.5583 30.5914 37.6224 30.4367 37.7365 30.3227C37.8505 30.2086 38.0052 30.1445 38.1665 30.1445H42.7978C42.9591 30.1445 43.1137 30.2086 43.2278 30.3227C43.3419 30.4367 43.4059 30.5914 43.4059 30.7527C43.4059 30.914 43.3419 31.0687 43.2278 31.1827C43.1137 31.2968 42.9591 31.3608 42.7978 31.3608Z" fill="white"/>
<path d="M35.1114 21.3673C36.9209 21.3673 38.3878 19.9004 38.3878 18.0909C38.3878 16.2814 36.9209 14.8145 35.1114 14.8145C33.3019 14.8145 31.835 16.2814 31.835 18.0909C31.835 19.9004 33.3019 21.3673 35.1114 21.3673Z" fill="#FF6584"/>
<path d="M44.1023 86.7137C44.1024 86.7381 44.0976 86.7623 44.0883 86.7849C44.079 86.8074 44.0653 86.8279 44.0481 86.8452C44.0308 86.8624 44.0103 86.8761 43.9878 86.8854C43.9652 86.8947 43.941 86.8995 43.9166 86.8994H0.185665C0.136423 86.8994 0.0891984 86.8799 0.0543796 86.845C0.0195607 86.8102 0 86.763 0 86.7137C0 86.6645 0.0195607 86.6173 0.0543796 86.5825C0.0891984 86.5476 0.136423 86.5281 0.185665 86.5281H43.9166C43.941 86.528 43.9652 86.5328 43.9878 86.5421C44.0103 86.5514 44.0308 86.565 44.0481 86.5823C44.0653 86.5995 44.079 86.62 44.0883 86.6426C44.0976 86.6652 44.1024 86.6893 44.1023 86.7137Z" fill="#CCCCCC"/>
<path d="M34.4111 26.7693C34.5458 27.1459 34.5271 27.5604 34.359 27.9233C34.1909 28.2862 33.887 28.5686 33.5126 28.7095C33.4298 28.7404 33.3444 28.7639 33.2575 28.7798L32.3921 34.0781L30.3623 32.2039L31.4952 27.4599C31.4533 27.0601 31.5704 26.6599 31.8211 26.3458C32.0719 26.0316 32.4363 25.8288 32.8354 25.7812C33.1712 25.7427 33.5101 25.8195 33.7964 25.9991C34.0828 26.1787 34.2995 26.4503 34.4111 26.7693Z" fill="#FFB6B6"/>
<path d="M19.4309 38.7747C19.4309 38.7747 21.0063 36.6932 26.7231 36.7502L29.968 35.5713L30.7096 28.7734L33.3051 29.3914L32.9343 37.796L27.3725 41.0095L20.0803 42.4927L19.4309 38.7747Z" fill="#3F3D56"/>
<path d="M18.5937 34.4384C20.4677 34.4384 21.9868 32.9193 21.9868 31.0454C21.9868 29.1715 20.4677 27.6523 18.5937 27.6523C16.7198 27.6523 15.2007 29.1715 15.2007 31.0454C15.2007 32.9193 16.7198 34.4384 18.5937 34.4384Z" fill="#FFB6B6"/>
<path d="M12.8509 56.7724C12.8449 56.7724 12.8389 56.7716 12.8331 56.7699C12.7704 56.7524 12.7209 56.7387 12.947 54.7839L13.191 53.2387L12.9528 51.8744L12.5521 51.4737L13.1961 50.8299L13.7365 49.2949L12.8015 47.9094L11.7287 42.2433C11.5443 41.2656 11.6876 40.2544 12.1364 39.3664C12.5853 38.4784 13.3145 37.7634 14.2111 37.3321L15.4527 36.9693L15.9044 36.1408C16.0313 35.9082 16.2181 35.7137 16.4454 35.5776C16.6727 35.4415 16.9323 35.3687 17.1973 35.3667L19.4709 35.3497C19.7003 35.3479 19.927 35.3994 20.1332 35.4999C20.3394 35.6005 20.5194 35.7475 20.6593 35.9293L21.4525 36.9604L24.7418 38.0778L24.1965 49.8294C24.2831 49.902 24.3537 49.9917 24.4039 50.0929C24.4541 50.1941 24.4827 50.3046 24.488 50.4175C24.4933 50.5303 24.475 50.643 24.4345 50.7485C24.394 50.8539 24.332 50.9498 24.2525 51.0301C24.2183 51.0646 24.1911 51.0927 24.1744 51.1112C24.1189 51.19 24.2229 51.7781 24.3514 52.2775L24.5162 53.0423C24.4633 53.08 24.4189 53.1284 24.3856 53.1842C24.3524 53.24 24.331 53.3022 24.323 53.3666C24.315 53.4311 24.3204 53.4966 24.339 53.5589C24.3575 53.6211 24.3887 53.6789 24.4307 53.7285L24.6408 53.9767C24.6823 54.2878 24.5988 54.6027 24.4084 54.8524C24.2181 55.102 23.9366 55.266 23.6255 55.3083C20.6194 55.7174 12.8666 56.7724 12.8509 56.7724Z" fill="#3F3D56"/>
<path d="M17.7257 34.2723C17.7112 34.2404 17.6968 34.2084 17.6824 34.1763C17.6879 34.1764 17.6934 34.1772 17.699 34.1774L17.7257 34.2723Z" fill="#2F2E41"/>
<path d="M15.1064 27.8066C15.2675 27.6546 15.4769 27.5641 15.698 27.5508C15.9174 27.5579 16.1399 27.756 16.0945 27.9708C16.4975 27.2573 17.139 26.7084 17.9063 26.4207C18.6736 26.133 19.5178 26.1247 20.2906 26.3974C20.8359 26.5898 21.3707 26.9747 21.496 27.5392C21.5082 27.6874 21.5524 27.8312 21.6255 27.9607C21.6889 28.0299 21.7712 28.0791 21.8622 28.1021C21.9532 28.1252 22.0489 28.1211 22.1376 28.0904L22.143 28.0889C22.1734 28.0785 22.2062 28.0775 22.2371 28.0859C22.2681 28.0944 22.2957 28.1119 22.3166 28.1363C22.3375 28.1607 22.3505 28.1908 22.3541 28.2227C22.3577 28.2545 22.3517 28.2868 22.3367 28.3152L22.1824 28.6029C22.3769 28.6463 22.579 28.642 22.7715 28.5904C22.8035 28.582 22.8373 28.5837 22.8682 28.5953C22.8992 28.6069 22.9258 28.6278 22.9445 28.6551C22.9631 28.6824 22.9728 28.7148 22.9723 28.7478C22.9718 28.7809 22.9611 28.813 22.9416 28.8397C22.6852 29.1905 22.3504 29.4766 21.9639 29.6753C21.5775 29.8739 21.1499 29.9796 20.7154 29.984C20.0989 29.9802 19.4761 29.7677 18.8761 29.9095C18.644 29.9644 18.4271 30.0705 18.2413 30.2201C18.0556 30.3697 17.9057 30.559 17.8026 30.7741C17.6995 30.9892 17.6459 31.2246 17.6457 31.4631C17.6455 31.7016 17.6988 31.9371 17.8015 32.1524C17.6171 31.9508 17.2608 31.9985 17.0723 32.1962C16.9854 32.302 16.9213 32.4245 16.8837 32.5561C16.8462 32.6878 16.836 32.8257 16.8539 32.9614C16.9042 33.377 17.0276 33.7805 17.2184 34.1532C16.4894 34.1308 15.7848 33.8851 15.1998 33.4494C14.6149 33.0138 14.1777 32.4091 13.9474 31.717C13.7171 31.0249 13.7048 30.2789 13.912 29.5795C14.1193 28.8802 14.5362 28.2614 15.1064 27.8066Z" fill="#2F2E41"/>
<path d="M14.1728 61.6387C13.8484 61.4048 13.6289 61.0527 13.5617 60.6584C13.4945 60.2641 13.585 59.8592 13.8136 59.531C13.8643 59.4586 13.9213 59.3908 13.984 59.3285L11.6943 54.4727L14.4289 54.8665L16.1839 59.4173C16.445 59.7229 16.5754 60.119 16.5467 60.52C16.5181 60.9209 16.3329 61.2945 16.031 61.5599C15.7762 61.7819 15.4534 61.9107 15.1157 61.925C14.7781 61.9393 14.4455 61.8384 14.1728 61.6387Z" fill="#FFB6B6"/>
<path d="M13.4795 58.9874L9.83605 50.7989L9.79956 44.3316L10.948 40.8382C11.1039 40.3643 11.3531 39.9264 11.681 39.5504C12.009 39.1744 12.409 38.868 12.8573 38.6492C13.3057 38.4304 13.7934 38.3038 14.2916 38.2767C14.7898 38.2497 15.2883 38.3228 15.7577 38.4916L15.783 38.5008L15.7936 38.5255C15.8361 38.6246 16.7993 41.0072 13.9421 45.9087L13.3671 49.2626L15.3848 56.9503L13.4795 58.9874Z" fill="#3F3D56"/>
</g>
<defs>
<clipPath id="clip0_96_618">
<rect width="140" height="86.8995" fill="white"/>
</clipPath>
</defs>
</svg>
