<svg width="140" height="104" viewBox="0 0 140 104" fill="none" xmlns="http://www.w3.org/2000/svg">
<g clip-path="url(#clip0_327_887)">
<path d="M99.3729 76.0346H23.981C23.3093 76.0338 22.6652 75.7667 22.1902 75.2916C21.7152 74.8166 21.448 74.1726 21.4473 73.5009V12.1122C21.448 11.4405 21.7152 10.7965 22.1902 10.3215C22.6652 9.84647 23.3093 9.57927 23.981 9.57849H99.3729C100.045 9.57927 100.689 9.84647 101.164 10.3215C101.639 10.7965 101.906 11.4405 101.907 12.1122V73.5009C101.906 74.1726 101.639 74.8166 101.164 75.2916C100.689 75.7667 100.045 76.0338 99.3729 76.0346Z" fill="#E6E6E6"/>
<path d="M25.6906 11.382C25.0436 11.3827 24.4232 11.6401 23.9656 12.0977C23.5081 12.5552 23.2507 13.1756 23.25 13.8227V71.7919C23.2508 72.4389 23.5081 73.0593 23.9657 73.5168C24.4232 73.9743 25.0436 74.2317 25.6906 74.2324H77.2935C83.3413 74.2256 89.1394 71.8201 93.4159 67.5436C97.6923 63.2672 100.098 57.469 100.105 51.4212V13.8227C100.104 13.1756 99.8466 12.5552 99.3891 12.0977C98.9315 11.6401 98.3112 11.3827 97.6641 11.382L25.6906 11.382Z" fill="white"/>
<path d="M85.6251 37.4533H71.9548C71.6697 37.453 71.3963 37.3396 71.1947 37.138C70.9931 36.9364 70.8797 36.663 70.8794 36.3779V29.5739C70.8797 29.2888 70.9931 29.0155 71.1947 28.8139C71.3963 28.6123 71.6697 28.4989 71.9548 28.4985H85.6251C85.9102 28.4989 86.1836 28.6123 86.3852 28.8139C86.5868 29.0155 86.7002 29.2888 86.7005 29.5739C87.5464 31.9817 87.6665 34.2695 86.7005 36.3779C86.7002 36.663 86.5868 36.9364 86.3852 37.138C86.1836 37.3396 85.9102 37.453 85.6251 37.4533Z" fill="#E6E6E6"/>
<path d="M84.006 36.7957H72.3917C72.1494 36.7955 71.9172 36.6991 71.7459 36.5278C71.5746 36.3566 71.4783 36.1243 71.478 35.8821V30.1014C71.4783 29.8592 71.5746 29.6269 71.7459 29.4556C71.9172 29.2844 72.1494 29.188 72.3917 29.1877H84.006C84.2483 29.188 84.4805 29.2844 84.6518 29.4556C84.8231 29.6269 84.9194 29.8592 84.9197 30.1014C85.7035 32.1601 85.8296 34.1082 84.9197 35.8821C84.9194 36.1243 84.8231 36.3566 84.6518 36.5278C84.4805 36.6991 84.2483 36.7955 84.006 36.7957Z" fill="white"/>
<path d="M83.3796 41.0174H74.1706C73.8997 41.0178 73.6398 40.9106 73.4479 40.7193C73.256 40.5281 73.148 40.2685 73.1475 39.9976C73.147 39.7267 73.2541 39.4667 73.4452 39.2747C73.6364 39.0828 73.8959 38.9746 74.1668 38.974H83.3796C83.6502 38.9745 83.9096 39.0824 84.1008 39.2739C84.2919 39.4655 84.3993 39.7251 84.3993 39.9957C84.3993 40.2663 84.2919 40.5259 84.1008 40.7175C83.9096 40.909 83.6502 41.0169 83.3796 41.0174Z" fill="#E6E6E6"/>
<path d="M77.1876 30.7485C77.0817 30.7489 76.9802 30.7912 76.9053 30.8662C76.8305 30.9411 76.7883 31.0427 76.7881 31.1486V35.4793C76.7881 35.5493 76.8064 35.618 76.8413 35.6786C76.8762 35.7392 76.9264 35.7896 76.9868 35.8247C77.0473 35.8599 77.1159 35.8785 77.1859 35.8788C77.2558 35.8791 77.3246 35.861 77.3853 35.8263L81.2078 33.6468C81.2693 33.6118 81.3203 33.5612 81.3558 33.5C81.3912 33.4388 81.4098 33.3694 81.4096 33.2987C81.4094 33.228 81.3905 33.1586 81.3547 33.0977C81.3189 33.0367 81.2676 32.9863 81.2059 32.9517L77.3836 30.8004C77.3238 30.7665 77.2563 30.7486 77.1876 30.7485Z" fill="#E6E6E6"/>
<path d="M132.955 95.3356C132.745 95.0675 132.458 94.8687 132.133 94.7649C131.809 94.661 131.46 94.6569 131.133 94.753L131.061 94.7743L130.419 97.28C130.323 96.9066 130.118 96.0635 129.988 95.2383L129.977 95.1701L129.913 95.198C129.242 95.4946 128.611 95.8748 128.036 96.3296C127.016 97.1476 126.186 98.1779 125.605 99.3488C125.023 100.52 124.704 101.803 124.669 103.11L124.668 103.158L124.667 103.188L124.751 103.158L126.575 102.506C127.383 102.577 128.196 102.467 128.955 102.184C129.715 101.901 130.401 101.452 130.965 100.869C131.702 100.092 132.207 99.0926 132.696 98.1254C132.839 97.8436 132.986 97.5529 133.135 97.2733C133.303 96.9694 133.375 96.6223 133.343 96.2768C133.311 95.9314 133.176 95.6035 132.955 95.3356Z" fill="#F2F2F2"/>
<path d="M86.3832 31.4344C86.4198 31.6241 86.4975 31.8034 86.6109 31.9598C86.7243 32.1162 86.8706 32.2459 87.0396 32.3396C87.2085 32.4333 87.3959 32.4888 87.5886 32.5023C87.7814 32.5158 87.9747 32.4868 88.155 32.4175L93.6055 38.7581L94.2955 36.4174L88.8919 30.6164C88.7553 30.3212 88.5152 30.0863 88.2171 29.9563C87.9189 29.8263 87.5834 29.8102 87.2742 29.911C86.9649 30.0119 86.7034 30.2226 86.5392 30.5034C86.375 30.7842 86.3195 31.1154 86.3832 31.4344Z" fill="#FFB8B8"/>
<path d="M108.35 101.643H106.546L105.688 94.6851H108.35L108.35 101.643Z" fill="#FFB6B6"/>
<path d="M108.302 101.053L106.376 100.27L106.321 100.247L105.257 101.053C104.657 101.053 104.081 101.292 103.657 101.716C103.232 102.141 102.994 102.717 102.994 103.317V103.391H108.809V101.053H108.302Z" fill="#2F2E41"/>
<path d="M121.217 101.643H119.413L118.555 94.6851H121.217L121.217 101.643Z" fill="#FFB6B6"/>
<path d="M121.169 101.053L119.243 100.27L119.188 100.247L118.125 101.053C117.524 101.053 116.949 101.292 116.524 101.716C116.099 102.141 115.861 102.717 115.861 103.317V103.391H121.677V101.053H121.169Z" fill="#2F2E41"/>
<path d="M116.96 60.0959C116.96 60.0959 119.222 62.4497 119.222 64.3836C119.222 66.3176 118.657 68.973 119.222 69.5542C119.788 70.1354 120.495 70.8424 119.647 71.6908C118.798 72.5392 118.374 72.9634 118.94 73.529C119.505 74.0946 119.222 83.9926 119.222 83.9926L122.192 97.2843H118.451L113.708 83.9926L112.435 72.9634L108.32 83.5684L108.774 97.3984L104.863 97.2843L103.244 82.5786C103.244 82.5786 105.648 68.59 105.224 68.2315C104.8 67.873 105.224 67.1493 105.224 67.1493L106.355 61.7927L116.96 60.0959Z" fill="#2F2E41"/>
<path d="M112.531 43.4078C112.531 43.4078 113.3 40.3765 109.756 39.5074C106.212 38.6382 96.0808 37.5217 96.0808 37.5217L90.9609 32.0889L89.2261 34.6083L94.9656 41.7406L108.565 44.5339L112.531 43.4078Z" fill="#3F3D56"/>
<path d="M90.0692 34.4227C90.2282 34.2167 90.3526 33.9862 90.4376 33.7402L91.1718 31.9361L90.9812 31.9281C90.7175 31.8785 90.4462 31.8852 90.1852 31.9477C89.9243 32.0102 89.6794 32.1272 89.4668 32.291C89.2542 32.4547 89.0786 32.6616 88.9515 32.8979C88.8244 33.1343 88.7487 33.3948 88.7293 33.6625C88.7052 33.894 88.7468 34.1277 88.8493 34.3367C88.9015 34.4403 88.9774 34.5301 89.071 34.5987C89.1646 34.6673 89.273 34.7128 89.3875 34.7314C89.5176 34.7384 89.6474 34.7139 89.766 34.6602C89.8847 34.6065 89.9887 34.525 90.0692 34.4227Z" fill="#E6E6E6"/>
<path d="M105.633 62.5151L105.209 65.5902C105.209 65.5902 106.057 66.5013 106.482 66.3874C106.906 66.2735 108.461 65.6105 108.461 65.6105C108.461 65.6105 110.299 66.6152 111.289 66.7291C112.279 66.843 117.511 66.1596 117.652 65.818C117.794 65.4763 119.437 64.1388 119.437 64.1388L118.783 60.2373L105.633 62.5151Z" fill="#E6E6E6"/>
<path d="M119.41 51.7575C119.41 51.7575 119.051 54.7227 119.334 54.9956C119.616 55.2671 119.051 56.9851 118.485 58.1163C117.92 59.2475 118.909 59.3889 118.909 60.2373C118.909 61.0857 119.334 64.1965 119.334 64.1965C119.334 64.1965 114.95 64.4793 114.243 63.7723C113.536 63.0653 112.405 63.6309 110.85 65.1863C109.294 66.7417 105.916 65.4691 105.209 64.7621C104.502 64.0551 105.759 61.5099 106.183 61.0164C106.608 60.5229 105.775 61.0942 105.35 59.5303C104.926 57.9664 105.759 58.1163 106.466 57.4093C107.173 56.7023 106.466 55.4297 105.9 54.1571C105.335 52.8845 105.759 43.4107 105.759 41.1482C105.759 38.8858 108.87 38.603 108.87 38.603L110.101 37.0547L111.006 35.9164L112.78 35.8457L112.826 35.8443L114.541 35.775L115.374 36.745L117.213 38.8858L119.334 39.31C121.03 39.8756 120.606 43.4107 120.606 43.4107L119.41 51.7575Z" fill="#3F3D56"/>
<path d="M112.692 35.2324C114.699 35.2324 116.327 33.605 116.327 31.5976C116.327 29.5902 114.699 27.9629 112.692 27.9629C110.684 27.9629 109.057 29.5902 109.057 31.5976C109.057 33.605 110.684 35.2324 112.692 35.2324Z" fill="#FFB6B6"/>
<path d="M116.906 30.3749C115.907 29.7618 116.035 28.1587 115.072 27.5989C114.593 27.3229 114.054 27.1667 113.502 27.1435C112.95 27.1203 112.401 27.2309 111.9 27.4658C111.222 27.1755 110.409 27.4071 109.866 27.9313C109.324 28.4554 109.03 29.2287 108.943 30.0063C108.881 30.7876 108.937 31.5739 109.11 32.3384C109.164 32.0312 109.217 31.724 109.271 31.4169L112.137 30.7906C111.883 31.0185 111.629 31.2464 111.376 31.4743C112.674 31.7698 114.035 31.5568 115.181 30.8793C116.428 31.4385 116.202 32.6944 115.107 34.3611C115.531 35.0681 118.046 31.0735 116.906 30.3749Z" fill="#2F2E41"/>
<path d="M115.374 36.745C115.366 36.7516 115.358 36.7577 115.349 36.7634C115.049 36.942 114.707 37.035 114.358 37.032C113.901 37.0701 113.448 36.928 113.095 36.6361C112.91 36.4608 112.173 36.8312 111.689 37.0363C111.182 37.2465 110.614 37.2531 110.102 37.0547L111.007 35.9164L112.498 35.5857H112.87L114.542 35.775L115.374 36.745Z" fill="#E6E6E6"/>
<path d="M139.779 103.564L89.1843 103.621C89.1552 103.622 89.1263 103.616 89.0993 103.605C89.0724 103.594 89.0479 103.578 89.0272 103.557C89.0065 103.537 88.99 103.512 88.9787 103.486C88.9675 103.459 88.9616 103.43 88.9614 103.401C88.9613 103.372 88.9669 103.343 88.9779 103.316C88.9889 103.289 89.0051 103.265 89.0255 103.244C89.046 103.223 89.0704 103.207 89.0972 103.195C89.1241 103.184 89.1529 103.178 89.182 103.178H89.1843L139.779 103.121C139.838 103.121 139.894 103.145 139.935 103.186C139.977 103.228 140 103.284 140 103.343C140 103.401 139.977 103.457 139.935 103.499C139.894 103.54 139.838 103.564 139.779 103.564Z" fill="#CACACA"/>
<path d="M79.199 29.116H78.8267V2.48389H93.4712V2.85625H79.199V29.116Z" fill="#3F3D56"/>
<path d="M104.86 0.12854H94.9926C94.3507 0.12854 93.7351 0.383544 93.2812 0.837452C92.8273 1.29136 92.5723 1.90699 92.5723 2.54891C92.5723 3.19083 92.8273 3.80647 93.2812 4.26038C93.7351 4.71428 94.3507 4.96928 94.9926 4.96928H104.86C105.502 4.96928 106.118 4.71428 106.572 4.26038C107.026 3.80647 107.281 3.19083 107.281 2.54891C107.281 1.90699 107.026 1.29136 106.572 0.837452C106.118 0.383544 105.502 0.12854 104.86 0.12854Z" fill="#4345FD"/>
<path d="M78.7969 31.5525C80.0252 31.5525 81.021 30.5567 81.021 29.3284C81.021 28.1 80.0252 27.1042 78.7969 27.1042C77.5685 27.1042 76.5728 28.1 76.5728 29.3284C76.5728 30.5567 77.5685 31.5525 78.7969 31.5525Z" fill="#4345FD"/>
<path d="M51.9956 37.6857L61.7527 35.4279L64.5534 34.7798C64.9037 34.6987 64.7582 34.1594 64.4077 34.2405L54.6506 36.4983L51.8499 37.1464C51.4996 37.2275 51.6451 37.7668 51.9956 37.6857Z" fill="#F2F2F2"/>
<path d="M62.0711 31.8056L67.2945 34.2084C67.4727 34.27 67.6397 34.3604 67.7887 34.4759C67.9329 34.6172 67.828 34.753 67.7103 34.876C67.3588 35.2043 66.9875 35.5107 66.5985 35.7936L64.3732 37.6028C64.0938 37.8299 64.488 38.2262 64.7648 38.0013L66.7029 36.4255L67.672 35.6376C67.9466 35.4144 68.2808 35.1866 68.3911 34.8311C68.6229 34.084 67.7081 33.7869 67.1998 33.5531L64.9251 32.5067L62.3555 31.3247C62.0317 31.1757 61.7448 31.6555 62.0711 31.8056Z" fill="#F2F2F2"/>
<path d="M134.152 50.0968C133.222 49.466 132.091 49.2315 130.986 49.152C129.73 49.0836 128.471 49.0851 127.216 49.1564C125.911 49.2081 124.609 49.3025 123.31 49.4396C122.013 49.5769 120.721 49.7568 119.434 49.9793C118.283 50.1586 117.143 50.4081 116.021 50.7263C114.96 51.0201 113.96 51.5029 113.07 52.1516C112.289 52.7392 111.688 53.5342 111.336 54.4462C110.99 55.3016 110.931 56.2461 111.168 57.1377C111.295 57.5708 111.511 57.9724 111.803 58.3163C112.14 58.6936 112.54 59.0102 112.985 59.2521C113.908 59.7792 114.954 60.0961 115.789 60.771C116.009 60.9475 116.209 61.147 116.387 61.3662C116.508 61.5357 116.675 61.667 116.868 61.7444C117.051 61.8084 117.249 61.8168 117.437 61.7684C117.625 61.7201 117.794 61.6172 117.924 61.4727C118.091 61.2439 118.23 60.996 118.339 60.7343L118.779 59.8845C118.809 59.8102 118.846 59.739 118.889 59.6721C118.922 59.6327 118.863 59.6729 118.875 59.6626C118.881 59.6569 118.894 59.657 118.901 59.6525C118.937 59.6344 118.975 59.6198 119.014 59.6089C119.422 59.4536 119.831 59.3031 120.242 59.1575C121.759 58.6167 123.295 58.1183 124.855 57.7146C125.657 57.4993 126.471 57.329 127.293 57.2045C128.357 57.0529 129.437 57.0705 130.506 56.9669C131.657 56.8554 132.845 56.6224 133.832 55.9887C134.648 55.4927 135.277 54.7402 135.62 53.8489C135.768 53.4241 135.819 52.9713 135.769 52.5241C135.641 51.5123 134.98 50.6578 134.152 50.0968Z" fill="#E6E6E6"/>
<path d="M132.248 50.6654C131.407 50.0953 130.385 49.8835 129.387 49.8116C128.252 49.7498 127.114 49.7512 125.979 49.8156C124.8 49.8623 123.624 49.9476 122.45 50.0715C121.278 50.1956 120.11 50.3581 118.948 50.5592C117.907 50.7212 116.877 50.9467 115.863 51.2343C114.904 51.4997 114.001 51.936 113.196 52.5222C112.49 53.0532 111.947 53.7716 111.629 54.5958C111.317 55.3688 111.264 56.2223 111.478 57.028C111.592 57.4194 111.787 57.7823 112.051 58.0931C112.356 58.4341 112.717 58.7201 113.119 58.9388C113.953 59.4151 114.899 59.7015 115.653 60.3113C115.852 60.4709 116.033 60.6512 116.194 60.8492C116.303 61.0024 116.454 61.1211 116.629 61.191C116.794 61.2488 116.973 61.2564 117.143 61.2127C117.312 61.169 117.465 61.076 117.582 60.9455C117.733 60.7387 117.859 60.5147 117.958 60.2782L118.356 59.5103C118.382 59.4431 118.416 59.3788 118.455 59.3183C118.485 59.2827 118.432 59.319 118.442 59.3097C118.447 59.3045 118.459 59.3047 118.465 59.3006C118.498 59.2842 118.533 59.271 118.568 59.2612C118.936 59.1208 119.306 58.9848 119.678 58.8533C121.049 58.3646 122.436 57.9142 123.846 57.5494C124.571 57.3548 125.307 57.2009 126.049 57.0884C127.011 56.9514 127.987 56.9673 128.953 56.8737C129.993 56.7729 131.066 56.5624 131.958 55.9897C132.696 55.5415 133.264 54.8615 133.574 54.056C133.708 53.6722 133.754 53.263 133.709 52.8588C133.593 51.9445 132.995 51.1723 132.248 50.6654Z" fill="white"/>
<path d="M130.487 51.6948L116.783 54.2222C116.744 54.2297 116.704 54.2294 116.665 54.2212C116.626 54.2131 116.589 54.1974 116.556 54.1749C116.523 54.1524 116.495 54.1237 116.473 54.0903C116.451 54.0569 116.436 54.0195 116.429 53.9803C116.421 53.9411 116.422 53.9008 116.43 53.8618C116.438 53.8227 116.454 53.7857 116.477 53.7528C116.499 53.7199 116.528 53.6918 116.561 53.6701C116.595 53.6484 116.632 53.6335 116.672 53.6263L116.673 53.6259L130.377 51.0985C130.416 51.0913 130.456 51.0919 130.495 51.1002C130.534 51.1085 130.571 51.1244 130.604 51.147C130.636 51.1696 130.664 51.1984 130.686 51.2318C130.708 51.2652 130.723 51.3025 130.73 51.3417C130.737 51.3808 130.736 51.421 130.728 51.46C130.72 51.4989 130.704 51.5358 130.681 51.5686C130.659 51.6014 130.63 51.6294 130.596 51.6511C130.563 51.6728 130.526 51.6876 130.487 51.6948Z" fill="#E6E6E6"/>
<path d="M130.824 53.525L117.121 56.0524C117.081 56.0599 117.041 56.0596 117.002 56.0514C116.963 56.0433 116.926 56.0276 116.893 56.0051C116.86 55.9826 116.832 55.9538 116.81 55.9205C116.788 55.8871 116.773 55.8497 116.766 55.8105C116.759 55.7713 116.759 55.731 116.767 55.692C116.776 55.653 116.791 55.6159 116.814 55.583C116.837 55.5502 116.865 55.522 116.899 55.5003C116.932 55.4786 116.97 55.4637 117.009 55.4565L117.011 55.4561L130.714 52.9287C130.753 52.9215 130.793 52.9221 130.832 52.9304C130.871 52.9387 130.908 52.9546 130.941 52.9772C130.974 52.9998 131.002 53.0286 131.023 53.062C131.045 53.0954 131.06 53.1327 131.067 53.1719C131.074 53.211 131.074 53.2512 131.065 53.2902C131.057 53.3291 131.041 53.366 131.019 53.3988C130.996 53.4316 130.967 53.4596 130.934 53.4813C130.9 53.503 130.863 53.5178 130.824 53.525Z" fill="#E6E6E6"/>
<path d="M119.055 57.5879L117.458 57.8824C117.379 57.8967 117.298 57.8791 117.232 57.8335C117.166 57.7878 117.121 57.7179 117.106 57.6391C117.092 57.5602 117.109 57.4787 117.154 57.4126C117.2 57.3464 117.269 57.3009 117.348 57.2861L118.945 56.9916C119.024 56.9772 119.106 56.9948 119.172 57.0404C119.238 57.086 119.283 57.1559 119.297 57.2349C119.312 57.3138 119.295 57.3953 119.249 57.4615C119.204 57.5277 119.134 57.5731 119.055 57.5879Z" fill="#E6E6E6"/>
<path d="M117.898 65.1962C118.598 65.0671 119.061 64.3951 118.932 63.6952C118.803 62.9953 118.131 62.5326 117.431 62.6617C116.731 62.7907 116.268 63.4627 116.397 64.1626C116.526 64.8625 117.198 65.3252 117.898 65.1962Z" fill="#D1D3D4"/>
<path d="M46.9816 37.1086H35.277C34.7336 37.108 34.2127 36.8918 33.8285 36.5076C33.4443 36.1234 33.2282 35.6025 33.2275 35.0591V27.3451C33.2282 26.8018 33.4443 26.2808 33.8285 25.8966C34.2127 25.5124 34.7336 25.2963 35.277 25.2957H46.9816C47.5249 25.2963 48.0459 25.5124 48.4301 25.8966C48.8143 26.2808 49.0304 26.8018 49.031 27.3451V35.0591C49.0304 35.6025 48.8143 36.1234 48.4301 36.5076C48.0459 36.8918 47.5249 37.108 46.9816 37.1086Z" fill="#E6E6E6"/>
<path d="M45.6955 36.693H35.5088C35.0359 36.6924 34.5825 36.5043 34.2481 36.1699C33.9138 35.8356 33.7257 35.3822 33.7251 34.9093V28.1957C33.7257 27.7228 33.9138 27.2694 34.2481 26.935C34.5825 26.6006 35.0359 26.4125 35.5088 26.412H45.6955C46.1684 26.4125 46.6217 26.6006 46.9561 26.935C47.2905 27.2694 47.4786 27.7228 47.4791 28.1957V34.9093C47.4786 35.3822 47.2905 35.8356 46.9561 36.1699C46.6217 36.5043 46.1684 36.6924 45.6955 36.693Z" fill="white"/>
<path d="M48.6299 44.0584H33.6113C33.5185 44.0582 33.4296 44.0212 33.3641 43.9555C33.2985 43.8898 33.2617 43.8008 33.2617 43.708C33.2617 43.6152 33.2985 43.5262 33.3641 43.4605C33.4296 43.3948 33.5185 43.3578 33.6113 43.3575H48.6299C48.7227 43.3578 48.8116 43.3948 48.8771 43.4605C48.9427 43.5262 48.9795 43.6152 48.9795 43.708C48.9795 43.8008 48.9427 43.8898 48.8771 43.9555C48.8116 44.0212 48.7227 44.0582 48.6299 44.0584Z" fill="#E6E6E6"/>
<path d="M48.6299 42.056H33.6113C33.5185 42.0558 33.4296 42.0187 33.3641 41.953C33.2985 41.8874 33.2617 41.7983 33.2617 41.7055C33.2617 41.6127 33.2985 41.5237 33.3641 41.458C33.4296 41.3923 33.5185 41.3553 33.6113 41.3551H48.6299C48.7227 41.3553 48.8116 41.3923 48.8771 41.458C48.9427 41.5237 48.9795 41.6127 48.9795 41.7055C48.9795 41.7983 48.9427 41.8874 48.8771 41.953C48.8116 42.0187 48.7227 42.0558 48.6299 42.056Z" fill="#E6E6E6"/>
<path d="M48.6302 46.0609H33.6117C33.5187 46.0609 33.4296 46.0239 33.3639 45.9582C33.2981 45.8925 33.2612 45.8034 33.2612 45.7104C33.2612 45.6175 33.2981 45.5283 33.3639 45.4626C33.4296 45.3969 33.5187 45.36 33.6117 45.36H48.6302C48.7231 45.36 48.8123 45.3969 48.878 45.4626C48.9437 45.5283 48.9806 45.6175 48.9806 45.7104C48.9806 45.8034 48.9437 45.8925 48.878 45.9582C48.8123 46.0239 48.7231 46.0609 48.6302 46.0609Z" fill="#E6E6E6"/>
<path d="M48.6302 48.0634H33.6117C33.5187 48.0634 33.4296 48.0265 33.3639 47.9608C33.2981 47.8951 33.2612 47.8059 33.2612 47.713C33.2612 47.62 33.2981 47.5309 33.3639 47.4652C33.4296 47.3995 33.5187 47.3625 33.6117 47.3625H48.6302C48.7231 47.3625 48.8123 47.3995 48.878 47.4652C48.9437 47.5309 48.9806 47.62 48.9806 47.713C48.9806 47.8059 48.9437 47.8951 48.878 47.9608C48.8123 48.0265 48.7231 48.0634 48.6302 48.0634Z" fill="#E6E6E6"/>
<path d="M48.6302 50.0659H33.6117C33.5187 50.0659 33.4296 50.0289 33.3639 49.9632C33.2981 49.8975 33.2612 49.8084 33.2612 49.7154C33.2612 49.6225 33.2981 49.5334 33.3639 49.4676C33.4296 49.4019 33.5187 49.365 33.6117 49.365H48.6302C48.7231 49.365 48.8123 49.4019 48.878 49.4676C48.9437 49.5334 48.9806 49.6225 48.9806 49.7154C48.9806 49.8084 48.9437 49.8975 48.878 49.9632C48.8123 50.0289 48.7231 50.0659 48.6302 50.0659Z" fill="#E6E6E6"/>
<path d="M48.6299 52.0683H33.6113C33.5185 52.0681 33.4296 52.0311 33.3641 51.9654C33.2985 51.8997 33.2617 51.8107 33.2617 51.7179C33.2617 51.6251 33.2985 51.5361 33.3641 51.4704C33.4296 51.4047 33.5185 51.3676 33.6113 51.3674H48.6299C48.7227 51.3676 48.8116 51.4047 48.8771 51.4704C48.9427 51.5361 48.9795 51.6251 48.9795 51.7179C48.9795 51.8107 48.9427 51.8997 48.8771 51.9654C48.8116 52.0311 48.7227 52.0681 48.6299 52.0683Z" fill="#E6E6E6"/>
<path d="M40.3698 47.4758H40.7422V61.8199H13.8096V61.4475H40.3698V47.4758Z" fill="#3F3D56"/>
<path d="M2.42037 64.1753H12.288C12.93 64.1753 13.5456 63.9203 13.9995 63.4664C14.4534 63.0125 14.7084 62.3969 14.7084 61.755C14.7084 61.113 14.4534 60.4974 13.9995 60.0435C13.5456 59.5896 12.93 59.3346 12.288 59.3346H2.42037C1.77845 59.3346 1.16282 59.5896 0.708912 60.0435C0.255004 60.4974 0 61.113 0 61.755C0 62.3969 0.255004 63.0125 0.708912 63.4664C1.16282 63.9203 1.77845 64.1753 2.42037 64.1753Z" fill="#4345FD"/>
<path d="M40.8154 48.5568C42.0438 48.5568 43.0395 47.561 43.0395 46.3326C43.0395 45.1043 42.0438 44.1085 40.8154 44.1085C39.5871 44.1085 38.5913 45.1043 38.5913 46.3326C38.5913 47.561 39.5871 48.5568 40.8154 48.5568Z" fill="#4345FD"/>
<path d="M52.3115 46.9507C55.5769 47.6447 54.7462 47.7801 58.0116 48.4741L60.8235 49.0718C61.1752 49.1465 61.2715 48.5963 60.9196 48.5215C57.6542 47.8275 58.4849 47.692 55.2195 46.998L52.4076 46.4004C52.0559 46.3256 51.9596 46.8759 52.3115 46.9507Z" fill="#F2F2F2"/>
<path d="M59.8322 45.3267L63.5486 49.7137C63.684 49.8449 63.7971 49.9975 63.8832 50.1652C63.9541 50.3542 63.8016 50.4329 63.6429 50.4945C63.1855 50.6433 62.7194 50.7639 62.2473 50.8557L59.4655 51.5535C59.1163 51.6411 59.3058 52.167 59.6518 52.0802L62.0746 51.4724L63.286 51.1685C63.6292 51.0824 64.0284 51.0174 64.2788 50.7419C64.8049 50.163 64.1017 49.5069 63.74 49.0799L62.1216 47.1695L60.2934 45.0114C60.063 44.7393 59.6001 45.0527 59.8322 45.3267Z" fill="#F2F2F2"/>
<path d="M71.6155 64.4499C74.472 64.4499 76.7877 62.1342 76.7877 59.2777C76.7877 56.4212 74.472 54.1056 71.6155 54.1056C68.759 54.1056 66.4434 56.4212 66.4434 59.2777C66.4434 62.1342 68.759 64.4499 71.6155 64.4499Z" fill="#E6E6E6"/>
<path d="M71.1112 63.7905C73.2829 63.7905 75.0433 62.0301 75.0433 59.8584C75.0433 57.6868 73.2829 55.9264 71.1112 55.9264C68.9396 55.9264 67.1792 57.6868 67.1792 59.8584C67.1792 62.0301 68.9396 63.7905 71.1112 63.7905Z" fill="white"/>
<path d="M70.4059 62.5503C70.3166 62.5503 70.2285 62.5295 70.1486 62.4896C70.0687 62.4496 69.9993 62.3916 69.9457 62.3202L68.5347 60.4387C68.4893 60.3783 68.4563 60.3096 68.4375 60.2364C68.4187 60.1632 68.4145 60.087 68.4252 60.0122C68.4358 59.9374 68.4611 59.8655 68.4996 59.8004C68.538 59.7354 68.5889 59.6786 68.6493 59.6332C68.7098 59.5879 68.7785 59.5549 68.8517 59.5361C68.9249 59.5173 69.001 59.5131 69.0758 59.5238C69.1506 59.5344 69.2226 59.5597 69.2876 59.5981C69.3527 59.6366 69.4095 59.6875 69.4548 59.7479L69.4552 59.7484L70.3783 60.9792L72.7493 57.4227C72.7912 57.3597 72.8451 57.3056 72.9079 57.2635C72.9706 57.2214 73.0411 57.192 73.1153 57.1771C73.1894 57.1623 73.2657 57.1621 73.3399 57.1768C73.4141 57.1914 73.4847 57.2206 73.5476 57.2625C73.6105 57.3045 73.6646 57.3584 73.7066 57.4213C73.7487 57.4841 73.7779 57.5546 73.7927 57.6288C73.8075 57.7029 73.8075 57.7793 73.7928 57.8534C73.778 57.9276 73.7488 57.9981 73.7068 58.061L70.8847 62.2941C70.8336 62.3707 70.765 62.4339 70.6845 62.4784C70.6039 62.523 70.5139 62.5476 70.4219 62.5502C70.4166 62.5502 70.4113 62.5503 70.4059 62.5503Z" fill="#E6E6E6"/>
<path d="M119.911 64.6059C120.077 64.508 120.22 64.3748 120.33 64.2156C120.439 64.0564 120.513 63.8752 120.544 63.6846C120.576 63.4941 120.566 63.2989 120.514 63.1127C120.462 62.9266 120.37 62.7541 120.245 62.6074L124.398 55.3503L121.961 55.4827L118.301 62.5152C118.068 62.7426 117.927 63.0474 117.905 63.3719C117.882 63.6963 117.979 64.0179 118.177 64.2756C118.376 64.5333 118.662 64.7093 118.981 64.7701C119.301 64.831 119.631 64.7726 119.911 64.6059Z" fill="#FFB8B8"/>
<path d="M115.233 39.1686C115.233 39.1686 119.632 37.7546 120.763 41.1482C121.894 44.5418 125.697 53.7329 125.697 53.7329L121.611 62.0755L119.773 60.0959L121.738 54.2985L116.082 45.8144L115.233 39.1686Z" fill="#3F3D56"/>
<path d="M121.752 61.2235C121.619 60.9995 121.451 60.7985 121.254 60.6284L119.851 59.2777L119.773 59.4518C119.629 59.6783 119.535 59.9327 119.496 60.1983C119.457 60.4639 119.475 60.7346 119.548 60.9928C119.622 61.251 119.749 61.4908 119.921 61.6964C120.094 61.9021 120.307 62.069 120.549 62.1862C120.755 62.2944 120.987 62.3424 121.219 62.3247C121.335 62.3147 121.447 62.2774 121.545 62.2159C121.643 62.1545 121.726 62.0706 121.786 61.9711C121.84 61.8529 121.866 61.7233 121.86 61.5932C121.854 61.4631 121.817 61.3363 121.752 61.2235Z" fill="#E6E6E6"/>
<path d="M71.5706 66.236H71.1982V80.58H83.7948V80.2077H71.5706V66.236Z" fill="#3F3D56"/>
<path d="M97.6044 80.5151C97.6038 79.8734 97.3486 79.2581 96.8948 78.8043C96.4411 78.3505 95.8258 78.0953 95.184 78.0947H85.3164C84.6744 78.0947 84.0588 78.3497 83.6049 78.8036C83.151 79.2575 82.896 79.8732 82.896 80.5151C82.896 81.157 83.151 81.7727 83.6049 82.2266C84.0588 82.6805 84.6744 82.9355 85.3164 82.9355H95.184C95.8258 82.9349 96.4411 82.6797 96.8948 82.2259C97.3486 81.7721 97.6038 81.1568 97.6044 80.5151Z" fill="#4345FD"/>
<path d="M71.1255 67.3169C72.3538 67.3169 73.3496 66.3211 73.3496 65.0928C73.3496 63.8644 72.3538 62.8687 71.1255 62.8687C69.8971 62.8687 68.9014 63.8644 68.9014 65.0928C68.9014 66.3211 69.8971 67.3169 71.1255 67.3169Z" fill="#4345FD"/>
</g>
<defs>
<clipPath id="clip0_327_887">
<rect width="140" height="103.493" fill="white" transform="translate(0 0.12854)"/>
</clipPath>
</defs>
</svg>
