<svg width="140" height="102" viewBox="0 0 140 102" fill="none" xmlns="http://www.w3.org/2000/svg">
<g clip-path="url(#clip0_324_796)">
<path d="M28.0515 96.3858C27.8344 98.0912 27.1429 99.6785 26.325 101.207C26.2512 101.348 26.1754 101.489 26.0973 101.628H12.5091C12.2309 101.5 11.9568 101.359 11.6891 101.207C11.3342 101.005 10.9901 100.785 10.6583 100.547C6.65094 97.6611 5.10791 92.2035 5.80568 87.315C6.23778 84.2753 7.57001 81.1744 10.1671 79.5386C11.5769 78.6802 13.2589 78.3858 14.8764 78.7143C14.9164 78.7207 14.9587 78.7312 15.0007 78.7396C15.674 78.8696 16.3121 79.1405 16.873 79.5348C17.434 79.929 17.9052 80.4375 18.2556 81.0268C19.4929 83.2255 18.7573 85.949 18.148 88.3964C17.541 90.8438 17.2121 93.774 18.9744 95.5784C18.7163 94.8237 18.6638 94.014 18.8223 93.2323C18.9807 92.4506 19.3445 91.7252 19.8762 91.1306C20.4078 90.5361 21.0882 90.0938 21.8474 89.8493C22.6066 89.6047 23.4172 89.5668 24.1959 89.7392C24.3245 89.7666 24.4489 89.7983 24.5733 89.8362C24.8726 89.9226 25.1612 90.0428 25.4333 90.1946C27.5098 91.354 28.3508 94.0269 28.0515 96.3858Z" fill="#F2F2F2"/>
<path d="M18.519 101.207C18.8541 101.361 19.1949 101.501 19.5413 101.629H18.5758C18.2829 101.498 17.994 101.359 17.7094 101.207C16.3168 100.487 15.0791 99.5011 14.0668 98.3042C13.4475 97.5653 12.9416 96.7383 12.5659 95.8504C12.1578 94.8465 11.8986 93.7884 11.7965 92.7095C11.6093 90.4801 11.7585 88.2353 12.2392 86.0503C12.6901 83.7974 13.4194 81.6094 14.4104 79.5365C14.5285 79.2878 14.6528 79.0412 14.7793 78.7966C14.7879 78.7763 14.8012 78.7582 14.818 78.744C14.8348 78.7297 14.8548 78.7195 14.8763 78.7144C14.8976 78.7098 14.9197 78.7096 14.9411 78.714C14.9625 78.7183 14.9828 78.7271 15.0006 78.7397C15.0446 78.7645 15.0773 78.8053 15.0918 78.8537C15.1064 78.902 15.1016 78.9541 15.0786 78.999C14.0565 80.9901 13.2827 83.0991 12.7747 85.2788C12.2491 87.4156 12.0186 89.6143 12.0896 91.8136C12.1801 93.8542 12.7135 95.8631 13.9256 97.5326C15.0535 99.0502 16.5367 100.268 18.2449 101.078C18.3356 101.123 18.4262 101.165 18.519 101.207Z" fill="white"/>
<path d="M24.2465 101.207C24.3393 101.35 24.4383 101.491 24.5458 101.628H24.0969C23.9977 101.491 23.905 101.35 23.8143 101.207C23.113 100.101 22.6274 98.872 22.383 97.5853C21.9909 95.4499 22.2969 93.245 23.2557 91.2971C23.5227 90.7512 23.8373 90.2299 24.1959 89.7393C24.3245 89.7667 24.4489 89.7983 24.5732 89.8362C23.6289 91.0868 22.994 92.543 22.7203 94.086C22.3714 96.1171 22.6732 98.2065 23.5824 100.056C23.7761 100.455 23.9981 100.839 24.2465 101.207Z" fill="white"/>
<path d="M139.738 6.50284H95.484C95.4146 6.50284 95.348 6.47525 95.2989 6.42614C95.2497 6.37703 95.2222 6.31043 95.2222 6.24098C95.2222 6.17153 95.2497 6.10493 95.2989 6.05582C95.348 6.00671 95.4146 5.97913 95.484 5.97913H139.738C139.807 5.97913 139.874 6.00671 139.923 6.05582C139.972 6.10493 140 6.17153 140 6.24098C140 6.31043 139.972 6.37703 139.923 6.42614C139.874 6.47525 139.807 6.50284 139.738 6.50284Z" fill="#3F3D56"/>
<path d="M125.336 2.21632H110.41C110.132 2.21632 109.866 2.10597 109.67 1.90954C109.473 1.71311 109.363 1.44669 109.363 1.16889C109.363 0.891095 109.473 0.624676 109.67 0.428245C109.866 0.231813 110.132 0.12146 110.41 0.12146H125.336C125.614 0.12146 125.88 0.231813 126.077 0.428245C126.273 0.624676 126.384 0.891095 126.384 1.16889C126.384 1.44669 126.273 1.71311 126.077 1.90954C125.88 2.10597 125.614 2.21632 125.336 2.21632Z" fill="#CCCCCC"/>
<path d="M109.72 51.9417C109.614 51.8067 109.539 51.6492 109.503 51.481C109.466 51.3129 109.468 51.1386 109.509 50.9715C110.486 46.8807 110.486 42.6174 109.509 38.5266C109.468 38.3595 109.466 38.1852 109.503 38.0171C109.539 37.849 109.614 37.6914 109.72 37.5564C109.825 37.4233 109.958 37.3158 110.11 37.242C110.263 37.1683 110.43 37.1302 110.599 37.1307H121.04C121.307 37.1312 121.565 37.2264 121.768 37.3993C121.971 37.5722 122.106 37.8116 122.149 38.0749C122.83 42.4983 122.83 46.9998 122.149 51.4232C122.106 51.6865 121.971 51.9259 121.768 52.0988C121.565 52.2717 121.307 52.3669 121.04 52.3674H110.599C110.43 52.3679 110.263 52.3299 110.111 52.2561C109.958 52.1823 109.825 52.0748 109.72 51.9417Z" fill="#E6E6E6"/>
<path d="M123.973 33.9834C123.292 29.56 123.292 25.0585 123.973 20.6351C124.016 20.3718 124.152 20.1324 124.355 19.9595C124.558 19.7866 124.816 19.6914 125.083 19.6909H135.524C135.693 19.6904 135.86 19.7285 136.012 19.8023C136.164 19.8761 136.298 19.9836 136.402 20.1168C136.509 20.2517 136.583 20.4093 136.62 20.5774C136.657 20.7455 136.654 20.9197 136.614 21.0868C135.637 25.1776 135.637 29.4409 136.614 33.5317C136.654 33.6988 136.657 33.873 136.62 34.0411C136.583 34.2092 136.509 34.3668 136.402 34.5017C136.298 34.6349 136.164 34.7424 136.012 34.8162C135.86 34.89 135.693 34.9281 135.524 34.9276H125.083C124.816 34.9271 124.558 34.8319 124.355 34.659C124.152 34.4861 124.016 34.2467 123.973 33.9834Z" fill="#4345FD"/>
<path d="M100.39 30.0273C100.281 29.8901 100.206 29.7299 100.168 29.5591C100.131 29.3882 100.133 29.211 100.175 29.0411C101.168 24.8831 101.168 20.5498 100.175 16.3919C100.133 16.222 100.131 16.0448 100.168 15.8739C100.206 15.7031 100.281 15.5429 100.39 15.4057C100.496 15.2704 100.632 15.1611 100.786 15.0862C100.941 15.0112 101.111 14.9725 101.283 14.973H111.895C112.167 14.9735 112.429 15.0703 112.635 15.246C112.842 15.4218 112.979 15.6651 113.023 15.9327C113.715 20.4288 113.715 25.0043 113.023 29.5003C112.979 29.7679 112.842 30.0113 112.635 30.187C112.429 30.3627 112.167 30.4595 111.895 30.46H101.283C101.111 30.4605 100.941 30.4218 100.786 30.3469C100.632 30.2719 100.496 30.1626 100.39 30.0273Z" fill="#4345FD"/>
<path d="M109.848 20.6872H104.257C104.049 20.687 103.849 20.6041 103.702 20.4569C103.555 20.3096 103.472 20.1099 103.472 19.9016V19.568C103.472 19.3598 103.555 19.1601 103.702 19.0128C103.849 18.8655 104.049 18.7827 104.257 18.7825H109.848C110.056 18.7827 110.256 18.8655 110.403 19.0128C110.55 19.1601 110.633 19.3598 110.633 19.568V19.9016C110.633 20.1099 110.55 20.3096 110.403 20.4569C110.256 20.6041 110.056 20.687 109.848 20.6872Z" fill="white"/>
<path d="M109.848 23.9728H104.257C104.049 23.9726 103.849 23.8898 103.702 23.7425C103.555 23.5952 103.472 23.3956 103.472 23.1873V22.8537C103.472 22.6454 103.555 22.4457 103.702 22.2985C103.849 22.1512 104.049 22.0683 104.257 22.0681H109.848C110.056 22.0683 110.256 22.1512 110.403 22.2985C110.55 22.4457 110.633 22.6454 110.633 22.8537V23.1873C110.633 23.3956 110.55 23.5952 110.403 23.7425C110.256 23.8898 110.056 23.9726 109.848 23.9728Z" fill="white"/>
<path d="M118.892 42.2176H113.413C113.205 42.2174 113.005 42.1346 112.858 41.9873C112.711 41.84 112.628 41.6403 112.627 41.432V41.1251C112.628 40.9168 112.711 40.7171 112.858 40.5698C113.005 40.4225 113.205 40.3397 113.413 40.3395H118.892C119.1 40.3397 119.3 40.4225 119.447 40.5698C119.594 40.7171 119.677 40.9168 119.678 41.1251V41.432C119.677 41.6403 119.594 41.84 119.447 41.9873C119.3 42.1346 119.1 42.2174 118.892 42.2176Z" fill="white"/>
<path d="M118.892 46.0966H113.413C113.205 46.0964 113.005 46.0136 112.858 45.8663C112.711 45.719 112.628 45.5193 112.627 45.3111V45.0041C112.628 44.7958 112.711 44.5961 112.858 44.4488C113.005 44.3016 113.205 44.2187 113.413 44.2185H118.892C119.1 44.2187 119.3 44.3016 119.447 44.4488C119.594 44.5961 119.677 44.7958 119.678 45.0041V45.3111C119.677 45.5193 119.594 45.719 119.447 45.8663C119.3 46.0136 119.1 46.0964 118.892 46.0966Z" fill="white"/>
<path d="M118.892 49.9757H113.413C113.205 49.9754 113.005 49.8926 112.858 49.7453C112.711 49.5981 112.628 49.3984 112.627 49.1901V48.8831C112.628 48.6748 112.711 48.4751 112.858 48.3279C113.005 48.1806 113.205 48.0978 113.413 48.0975H118.892C119.1 48.0978 119.3 48.1806 119.447 48.3279C119.594 48.4751 119.677 48.6748 119.678 48.8831V49.1901C119.677 49.3984 119.594 49.5981 119.447 49.7453C119.3 49.8926 119.1 49.9754 118.892 49.9757Z" fill="white"/>
<path d="M132.501 26.476H127.022C126.814 26.4758 126.614 26.393 126.467 26.2457C126.32 26.0984 126.237 25.8987 126.237 25.6905V25.3835C126.237 25.1752 126.32 24.9755 126.467 24.8282C126.614 24.681 126.814 24.5981 127.022 24.5979H132.501C132.71 24.5981 132.909 24.681 133.057 24.8282C133.204 24.9755 133.287 25.1752 133.287 25.3835V25.6905C133.287 25.8987 133.204 26.0984 133.057 26.2457C132.909 26.393 132.71 26.4758 132.501 26.476Z" fill="white"/>
<path d="M37.1147 75.2558V75.7795C37.1155 76.6474 37.4606 77.4795 38.0743 78.0932C38.688 78.7068 39.5201 79.0519 40.388 79.0527H63.9552C64.8232 79.0524 65.6555 78.7074 66.2693 78.0936C66.8831 77.4799 67.2281 76.6475 67.2284 75.7795V75.2558C67.23 74.4898 66.961 73.7479 66.4689 73.1609C66.3051 72.966 66.1198 72.7903 65.9164 72.6372C65.9164 72.6372 52.9597 72.3439 52.9597 71.9825H40.388C39.5202 71.9837 38.6884 72.329 38.0748 72.9426C37.4612 73.5562 37.1159 74.388 37.1147 75.2558Z" fill="#CCCCCC"/>
<path d="M54.0628 78.9226H50.6587V100.919H54.0628V78.9226Z" fill="#CCCCCC"/>
<path d="M63.752 100.799C63.752 101.167 58.5935 100.941 52.2302 100.941C45.8669 100.941 40.7085 101.167 40.7085 100.799C40.7085 100.431 45.8669 97.5145 52.2302 97.5145C58.5935 97.5145 63.752 100.431 63.752 100.799Z" fill="#CCCCCC"/>
<path d="M59.0716 74.8115C59.3173 74.4818 59.4878 74.1022 59.5709 73.6994C59.6541 73.2967 59.6479 72.8806 59.5529 72.4804C59.4578 72.0803 59.2762 71.7059 59.0208 71.3836C58.7654 71.0613 58.4424 70.7988 58.0747 70.6148L50.8597 46.0303L45.3657 48.721L54.1853 72.0408C53.9172 72.6791 53.8925 73.3937 54.1159 74.049C54.3394 74.7044 54.7955 75.255 55.3978 75.5965C56.0001 75.938 56.7067 76.0468 57.3838 75.9021C58.0609 75.7574 58.6615 75.3694 59.0716 74.8115Z" fill="#A0616A"/>
<path d="M52.494 50.1359L46.3449 51.8005C46.1699 51.8479 45.9868 51.857 45.808 51.8272C45.6292 51.7974 45.459 51.7294 45.3088 51.6279C45.1587 51.5264 45.0322 51.3937 44.9379 51.2389C44.8437 51.084 44.7839 50.9107 44.7627 50.7307L44.0194 44.4232C43.7822 43.5267 43.9101 42.5726 44.3751 41.7702C44.8402 40.9679 45.6045 40.3827 46.5004 40.143C47.3963 39.9033 48.3507 40.0286 49.1543 40.4915C49.9579 40.9544 50.5452 41.7171 50.7873 42.6124L53.3205 48.4141C53.393 48.5802 53.4288 48.76 53.4255 48.9412C53.4223 49.1225 53.38 49.3008 53.3015 49.4643C53.2231 49.6277 53.1104 49.7722 52.971 49.8882C52.8317 50.0041 52.669 50.0886 52.494 50.1359Z" fill="#4345FD"/>
<path d="M60.6787 98.2209L63.8889 98.2207L65.4163 89.8947H60.6782L60.6787 98.2209Z" fill="#A0616A"/>
<path d="M59.8599 97.1728L66.1821 97.1725C66.7112 97.1725 67.2354 97.2767 67.7242 97.4791C68.2131 97.6816 68.6572 97.9784 69.0314 98.3525C69.4055 98.7267 69.7023 99.1708 69.9048 99.6596C70.1072 100.148 70.2115 100.672 70.2114 101.202V101.332L59.8601 101.333L59.8599 97.1728Z" fill="#2F2E41"/>
<path d="M64.4051 93.7561C64.3677 93.7561 64.3302 93.7543 64.2925 93.7507L59.8497 93.4273C59.67 93.4106 59.4966 93.3529 59.3427 93.2586C59.1889 93.1643 59.0588 93.0359 58.9624 92.8833C58.866 92.7308 58.8059 92.5582 58.7868 92.3787C58.7677 92.1993 58.7901 92.0179 58.8522 91.8484L64.7981 78.4899C64.8405 78.3708 64.8579 78.2442 64.8491 78.118C64.8402 77.9919 64.8053 77.869 64.7467 77.757C64.6881 77.6436 64.6063 77.544 64.5065 77.4646C64.4067 77.3852 64.2912 77.3278 64.1676 77.2962C61.3717 76.5653 54.1982 74.6193 47.9884 72.3423C45.3279 71.3668 43.6523 69.957 43.0082 68.1521C42.1589 65.7726 43.4153 63.6026 43.4692 63.5115L43.5113 63.4402L49.3546 63.9713L55.6892 64.5101L69.5712 71.9542C70.7344 72.5832 71.618 73.6273 72.0459 74.8786C72.4739 76.1298 72.4148 77.4963 71.8804 78.7059L65.4804 93.0577C65.3878 93.2656 65.237 93.4422 65.0462 93.5661C64.8553 93.69 64.6327 93.756 64.4051 93.7561Z" fill="#2F2E41"/>
<path d="M50.3705 37.5422C53.9225 37.5422 56.802 34.6627 56.802 31.1107C56.802 27.5587 53.9225 24.6792 50.3705 24.6792C46.8184 24.6792 43.939 27.5587 43.939 31.1107C43.939 34.6627 46.8184 37.5422 50.3705 37.5422Z" fill="#A0616A"/>
<path d="M58.8457 97.9591L62.0559 97.9588L63.5833 89.6328H58.8452L58.8457 97.9591Z" fill="#A0616A"/>
<path d="M58.0269 96.9109L64.3491 96.9106C64.8782 96.9106 65.4024 97.0148 65.8912 97.2173C66.3801 97.4198 66.8242 97.7166 67.1983 98.0907C67.5725 98.4648 67.8693 98.909 68.0717 99.3978C68.2742 99.8866 68.3784 100.411 68.3784 100.94V101.071L58.0271 101.071L58.0269 96.9109Z" fill="#2F2E41"/>
<path d="M62.5721 94.5416C62.5347 94.5416 62.4972 94.5398 62.4595 94.5363L58.0167 94.2128C57.837 94.1961 57.6636 94.1384 57.5097 94.0441C57.3559 93.9498 57.2257 93.8214 57.1294 93.6689C57.033 93.5163 56.9729 93.3437 56.9538 93.1642C56.9347 92.9848 56.9571 92.8034 57.0192 92.634L62.965 79.2754C63.0075 79.1563 63.0249 79.0297 63.016 78.9036C63.0072 78.7774 62.9723 78.6545 62.9136 78.5425C62.8551 78.4292 62.7733 78.3295 62.6735 78.2501C62.5737 78.1707 62.4582 78.1133 62.3346 78.0817C59.5387 77.3508 52.3652 75.4048 46.1554 73.1279C43.4949 72.1523 41.8193 70.7425 41.1752 68.9376C40.3259 66.5581 41.5823 64.3881 41.6362 64.2971L41.6783 64.2257L47.5216 64.7568L53.8562 65.2956L67.7382 72.7397C68.9014 73.3687 69.785 74.4128 70.2129 75.6641C70.6409 76.9153 70.5818 78.2818 70.0474 79.4915L63.6474 93.8433C63.5548 94.0511 63.404 94.2277 63.2131 94.3516C63.0223 94.4756 62.7997 94.5416 62.5721 94.5416Z" fill="#2F2E41"/>
<path d="M52.3538 41.1891L45.5455 38.8324C45.5455 38.8324 41.2714 42.1161 43.3247 50.2621C44.3966 54.4658 44.0843 58.903 42.4343 62.9151C42.2356 63.4115 42.0066 63.8953 41.7485 64.3635C41.7485 64.3635 49.3424 73.5285 56.4126 66.7202L53.6631 53.4964C53.6631 53.4964 57.9837 44.7242 52.3538 41.1891Z" fill="#4345FD"/>
<path d="M51.1691 37.761C50.2537 36.3909 49.5314 34.491 50.5392 33.1874C51.534 31.9006 53.4961 32.0902 55.0197 31.5208C57.1418 30.7277 58.3725 28.2346 57.9887 26.0019C57.6049 23.7693 55.8126 21.9184 53.6775 21.1611C51.5423 20.4038 49.1347 20.6501 47.0438 21.5222C44.4699 22.5957 42.262 24.6724 41.3361 27.303C40.4103 29.9337 40.9052 33.0922 42.8259 35.1142C44.8851 37.2819 48.1169 37.8596 51.1066 37.8246" fill="#2F2E41"/>
<path d="M45.1861 26.0736C44.0327 27.0126 42.2729 26.5955 41.0347 25.7715C39.7966 24.9474 38.7919 23.7739 37.4523 23.1278C35.0905 21.9888 32.2351 22.746 29.9365 24.0077C27.6379 25.2694 25.6004 27.0125 23.1724 28.0026C20.7444 28.9928 17.6462 29.0417 15.8077 27.1721C15.3553 28.4829 15.3183 29.9014 15.7018 31.234C16.0853 32.5666 16.8706 33.7485 17.9506 34.6183C19.0306 35.4881 20.3526 36.0035 21.7363 36.0942C23.1201 36.1849 24.4981 35.8465 25.6824 35.1251C28.3427 33.5047 29.8121 30.107 32.796 29.2126C34.4471 28.7176 36.2201 29.1163 37.8889 29.548C39.5577 29.9797 41.2977 30.4463 42.9818 30.0787C44.6659 29.7112 46.2411 28.1978 46.0269 26.4874L45.1861 26.0736Z" fill="#2F2E41"/>
<path d="M66.123 86.1508C65.4421 81.7274 65.4421 77.2258 66.123 72.8025C66.1663 72.5392 66.3015 72.2998 66.5047 72.1269C66.7078 71.954 66.9658 71.8588 67.2326 71.8583H77.6735C77.8427 71.8577 78.0098 71.8958 78.162 71.9696C78.3143 72.0434 78.4477 72.151 78.5521 72.2841C78.6588 72.4191 78.7333 72.5766 78.7699 72.7447C78.8066 72.9128 78.8044 73.0871 78.7635 73.2542C77.7868 77.345 77.7868 81.6082 78.7634 85.699C78.8043 85.8661 78.8066 86.0404 78.7699 86.2085C78.7333 86.3766 78.6588 86.5341 78.5521 86.6691C78.4477 86.8022 78.3143 86.9098 78.162 86.9836C78.0098 87.0574 77.8427 87.0955 77.6735 87.0949H67.2326C66.9658 87.0944 66.7078 86.9992 66.5047 86.8263C66.3015 86.6534 66.1663 86.414 66.123 86.1508Z" fill="#F3F4FD"/>
<path d="M74.4604 78.32H68.9814C68.7731 78.3198 68.5734 78.237 68.4261 78.0897C68.2789 77.9424 68.196 77.7427 68.1958 77.5345V77.2276C68.196 77.0193 68.2789 76.8196 68.4261 76.6724C68.5734 76.5251 68.7731 76.4422 68.9814 76.442H74.4604C74.6687 76.4422 74.8683 76.5251 75.0156 76.6724C75.1629 76.8196 75.2457 77.0193 75.2459 77.2276V77.5345C75.2457 77.7427 75.1629 77.9424 75.0156 78.0897C74.8683 78.237 74.6687 78.3198 74.4604 78.32Z" fill="white"/>
<path d="M74.4604 81.5526H68.9814C68.7731 81.5523 68.5734 81.4695 68.4261 81.3222C68.2789 81.175 68.196 80.9753 68.1958 80.767V80.46C68.196 80.2517 68.2789 80.0521 68.4261 79.9048C68.5734 79.7575 68.7731 79.6747 68.9814 79.6744H74.4604C74.6687 79.6747 74.8683 79.7575 75.0156 79.9048C75.1629 80.0521 75.2457 80.2517 75.2459 80.46V80.767C75.2457 80.9753 75.1629 81.175 75.0156 81.3222C74.8683 81.4695 74.6687 81.5523 74.4604 81.5526Z" fill="white"/>
<path d="M68.8683 73.6333C69.0238 73.2526 69.094 72.8424 69.0739 72.4317C69.0538 72.0209 68.9439 71.6196 68.7519 71.2559C68.5599 70.8922 68.2905 70.575 67.9627 70.3267C67.6348 70.0784 67.2566 69.905 66.8545 69.8188L53.7261 47.8164L49.0786 51.7945L63.4447 72.1712C63.3445 72.8563 63.4991 73.5543 63.8792 74.1331C64.2594 74.7118 64.8385 75.131 65.5071 75.3112C66.1756 75.4914 66.887 75.4202 67.5065 75.1109C68.126 74.8017 68.6105 74.2759 68.8683 73.6333Z" fill="#A0616A"/>
<path d="M56.335 51.3835L50.7968 54.5316C50.6392 54.6211 50.4641 54.6757 50.2836 54.6915C50.103 54.7073 49.9212 54.6841 49.7504 54.6233C49.5797 54.5625 49.424 54.4656 49.2941 54.3392C49.1641 54.2129 49.0629 54.06 48.9974 53.891L46.7019 47.9692C46.2484 47.1604 46.1341 46.2048 46.384 45.3118C46.634 44.4189 47.2278 43.6615 48.0352 43.2056C48.8427 42.7498 49.798 42.6326 50.6916 42.8799C51.5853 43.1273 52.3445 43.7188 52.8027 44.5249L56.7051 49.5097C56.8168 49.6525 56.8964 49.8176 56.9385 49.9939C56.9806 50.1702 56.9842 50.3535 56.9491 50.5313C56.9139 50.7092 56.8409 50.8773 56.7349 51.0244C56.629 51.1714 56.4926 51.2939 56.335 51.3835Z" fill="#4345FD"/>
<path d="M100.292 101.105C100.292 101.139 100.285 101.173 100.272 101.205C100.259 101.237 100.239 101.266 100.215 101.29C100.191 101.315 100.162 101.334 100.13 101.347C100.098 101.36 100.064 101.367 100.03 101.367H0.261858C0.192409 101.367 0.1258 101.339 0.0766922 101.29C0.0275843 101.241 0 101.174 0 101.105C0 101.035 0.0275843 100.969 0.0766922 100.92C0.1258 100.87 0.192409 100.843 0.261858 100.843H100.03C100.064 100.843 100.098 100.849 100.13 100.863C100.162 100.876 100.191 100.895 100.215 100.919C100.239 100.944 100.259 100.973 100.272 101.004C100.285 101.036 100.292 101.07 100.292 101.105Z" fill="#3F3D56"/>
</g>
<defs>
<clipPath id="clip0_324_796">
<rect width="140" height="101.507" fill="white" transform="translate(0 0.12146)"/>
</clipPath>
</defs>
</svg>
