<svg width="140" height="92" viewBox="0 0 140 92" fill="none" xmlns="http://www.w3.org/2000/svg">
<g clip-path="url(#clip0_96_541)">
<path d="M129.171 44.2733H15.6461C14.1244 44.2733 12.8865 43.0353 12.8865 41.5134V2.75965C12.8865 1.23797 14.1244 0 15.6461 0H129.171C130.692 0 131.93 1.23797 131.93 2.75965V41.5134C131.93 43.0353 130.692 44.2733 129.171 44.2733ZM15.6461 0.329012C14.3059 0.329012 13.2155 1.41942 13.2155 2.75965V41.5134C13.2155 42.8538 14.3059 43.9442 15.6461 43.9442H129.171C130.511 43.9442 131.601 42.8538 131.601 41.5134V2.75965C131.601 1.41942 130.511 0.329012 129.171 0.329012H15.6461Z" fill="#3F3D56"/>
<path d="M140 90.5698H0V90.8467H140V90.5698Z" fill="#E6E6E6"/>
<path d="M140 76.4224H0V76.6992H140V76.4224Z" fill="#E6E6E6"/>
<path d="M63.8019 45.6986C63.9024 46.962 64.6358 47.9342 65.4398 47.8701C66.2439 47.806 66.8139 46.7299 66.7132 45.4661C66.6799 44.9607 66.526 44.4706 66.2645 44.0369L65.7709 38.6892L63.2664 38.9743L64.0188 44.2159C63.8291 44.6857 63.7548 45.1941 63.8019 45.6986Z" fill="#FFB6B6"/>
<path d="M60.8101 20.7497C60.8101 20.7497 63.1513 19.5104 64.3384 21.3625C65.5256 23.2145 66.3449 43.2452 66.3449 43.2452L63.0545 43.5965L62.4308 29.4815L60.8101 20.7497Z" fill="#E6E6E6"/>
<path d="M55.9508 75.3774L57.857 75.3772L58.7638 68.0247L55.9504 68.0249L55.9508 75.3774Z" fill="#FFB6B6"/>
<path d="M62.4816 75.3342C62.5409 75.4342 62.5722 75.7568 62.5722 75.8731C62.5722 76.2304 62.2826 76.52 61.9253 76.52H56.022C55.7783 76.52 55.5807 76.3224 55.5807 76.0787V75.8329C55.5807 75.8329 55.2886 75.0942 55.8899 74.1838C55.8899 74.1838 56.6371 74.8967 57.7537 73.7801L58.083 73.1836L60.4665 74.9267L61.7876 75.0894C62.0766 75.1249 62.3329 75.0838 62.4816 75.3342Z" fill="#2F2E41"/>
<path d="M66.9815 75.0616L68.8283 74.5896L67.8871 67.2415L65.1614 67.938L66.9815 75.0616Z" fill="#FFB6B6"/>
<path d="M73.2986 73.4033C73.3808 73.4854 73.491 73.7903 73.5198 73.9029C73.6082 74.2491 73.3993 74.6014 73.0531 74.6899L67.3335 76.1509C67.0973 76.2113 66.8569 76.0687 66.7966 75.8325L66.7358 75.5944C66.7358 75.5944 66.27 74.951 66.6272 73.9201C66.6272 73.9201 67.5277 74.4258 68.3331 73.0676L68.5045 72.4082L71.2453 73.5072L72.5656 73.3378C72.8544 73.3007 73.0925 73.1975 73.2986 73.4033Z" fill="#2F2E41"/>
<path d="M54.3736 19.1691L54.2832 18.5132L55.3574 15.8897L58.3089 15.5618L58.9462 19.3177L54.3736 19.1691Z" fill="#FFB6B6"/>
<path opacity="0.1" d="M54.3736 19.1691L54.2832 18.5132L55.3574 15.8897L58.3089 15.5618L58.9462 19.3177L54.3736 19.1691Z" fill="black"/>
<path d="M50.9302 37.6977L49.6184 41.3051L50.6022 43.2728L55.5214 71.8037H58.7917L58.1449 46.5522L65.6875 71.8037H68.9244L66.3215 54.7507L64.3758 39.0095L63.1956 38.2805L57.489 35.0742L50.9302 37.6977Z" fill="#2F2E41"/>
<path d="M59.2928 40.1573L57.3252 40.4853L54.7017 34.2544H60.6046L59.2928 40.1573Z" fill="#E6E6E6"/>
<path d="M63.228 38.5176L59.2927 40.1573L57.9809 37.2059L57.325 40.4853L50.4382 38.2684L51.4221 34.2544L50.4382 21.1367L53.9111 18.8214L54.3735 18.5132L58.6368 18.8411L59.0106 19.0444L61.5882 20.4808L62.2441 31.3029L63.228 38.5176Z" fill="#2F2E41"/>
<path d="M59.0106 19.0444L57.161 26.8757L53.9111 18.8214L54.3735 18.5132L58.6368 18.8411L59.0106 19.0444Z" fill="#E6E6E6"/>
<path d="M55.8492 18.5132L55.1934 19.6428L55.8492 20.0193L55.5213 26.8961L56.8331 28.6794L58.1448 26.0437L57.161 20.0193L57.4889 18.5132H55.8492Z" fill="#2F2E41"/>
<path d="M56.8332 17.8574C58.5538 17.8574 59.9487 16.4625 59.9487 14.7419C59.9487 13.0213 58.5538 11.6265 56.8332 11.6265C55.1126 11.6265 53.7178 13.0213 53.7178 14.7419C53.7178 16.4625 55.1126 17.8574 56.8332 17.8574Z" fill="#FFB6B6"/>
<path d="M54.8422 15.0152L55.5153 15.309L55.8091 13.5463C55.8091 13.5463 56.9842 12.9587 57.8656 13.2525C58.7469 13.5463 60.2158 13.2525 60.2158 13.2525C60.2158 13.2525 60.2158 10.3147 58.1594 10.3147C56.1029 10.3147 54.0464 10.6085 54.0464 11.4898C54.0464 12.3712 53.1651 13.2525 53.1651 13.2525C53.1651 13.2525 51.99 15.0152 53.1651 16.1903C54.3402 17.3654 54.9278 17.3654 54.9278 17.3654L54.8422 15.0152Z" fill="#2F2E41"/>
<path d="M48.797 45.6064C48.7628 46.8733 49.3888 47.9179 50.1951 47.9395C51.0014 47.9611 51.6825 46.9517 51.7165 45.6843C51.737 45.1782 51.636 44.6746 51.422 44.2155L51.499 38.8457L48.9783 38.8633L49.1701 44.1551C48.9316 44.6022 48.8037 45.0998 48.797 45.6064Z" fill="#FFB6B6"/>
<path d="M51.9157 20.4748C51.9157 20.4748 49.784 19.8189 48.8002 21.7866C47.8164 23.7542 49.1282 43.7587 49.1282 43.7587H52.4373L51.559 29.6572L51.9157 20.4748Z" fill="#E6E6E6"/>
<path d="M133.687 57.7431L125.738 55.3096C125.562 55.2558 125.377 55.2362 125.194 55.2518L84.9063 58.6805C84.3319 58.7294 84.1876 59.5042 84.7058 59.7567L85.9963 60.3854H85.9619V90.482H87.1779V60.961L91.2224 62.9314C91.5319 63.0822 91.8772 63.1437 92.2197 63.1091L92.65 63.0657V90.482H93.8661V62.9428L125.027 59.7953V90.482H126.243V59.6725L131.411 59.1504V90.482H132.627V59.0276L133.57 58.9324C134.232 58.8655 134.323 57.9378 133.687 57.7431Z" fill="#3F3D56"/>
<path d="M96.6021 58.5611C97.3621 58.5611 108.61 57.1931 108.61 57.1931L110.282 59.4732L98.5781 61.7532L96.6021 58.5611Z" fill="white"/>
<path d="M108.947 89.313L106.993 89.3094L106.076 81.77L108.961 81.7752L108.947 89.313Z" fill="#A0616A"/>
<path d="M102.252 89.2572C102.191 89.3595 102.158 89.6902 102.158 89.8094C102.157 90.1757 102.454 90.4732 102.82 90.4738L108.872 90.4842C109.122 90.4846 109.325 90.2824 109.325 90.0325L109.326 89.7805C109.326 89.7805 109.627 89.0238 109.012 88.0893C109.012 88.0893 108.244 88.8189 107.102 87.6722L106.765 87.0601L104.318 88.8429L102.964 89.0073C102.667 89.0433 102.405 89.0007 102.252 89.2572Z" fill="#2F2E41"/>
<path d="M119.436 85.807L117.894 86.9699L112.674 81.5763L114.95 79.8599L119.436 85.807Z" fill="#A0616A"/>
<path d="M114.127 89.7569C114.14 89.874 114.312 90.1541 114.383 90.2481C114.601 90.5371 115.012 90.5946 115.301 90.3766L120.075 86.7747C120.272 86.626 120.312 86.3456 120.163 86.1484L120.013 85.9496C120.013 85.9496 119.798 85.174 118.757 84.8044C118.757 84.8044 118.587 85.837 117.003 85.6152L116.373 85.3336L115.508 88.1978L114.539 89.1354C114.327 89.3406 114.095 89.4637 114.127 89.7569Z" fill="#2F2E41"/>
<path d="M115.352 46.8414C115.352 48.6436 113.891 50.1045 112.088 50.1045C110.286 50.1045 108.825 48.6436 108.825 46.8414C108.825 45.0393 110.286 43.5784 112.088 43.5784C113.891 43.5784 115.352 45.0393 115.352 46.8414Z" fill="#A0616A"/>
<path d="M115.044 65.6554C115.044 65.6554 103.03 64.9753 102.35 66.3354C101.67 67.6955 106.026 86.3777 106.026 86.3777L109.913 85.5631L108.017 72.4558C108.017 72.4558 118.043 75.111 119.403 71.9374C120.763 68.7639 120.371 67.5822 120.371 67.5822L115.044 65.6554Z" fill="#2F2E41"/>
<path d="M118.122 63.3723C118.122 63.3723 106.356 65.8946 106.06 67.3862C105.764 68.8777 114.907 85.742 114.907 85.742L118.44 83.9282L113.144 71.7894C113.144 71.7894 123.515 71.6979 123.987 68.2776C124.459 64.8573 123.769 63.8213 123.769 63.8213L118.122 63.3723Z" fill="#2F2E41"/>
<path d="M119.464 50.5811H113.812L109.944 56.9282C109.944 56.9282 109.037 61.0299 109.944 61.4725C110.85 61.9152 110.85 66.6755 110.85 66.6755L120.371 67.5822C120.371 67.5822 121.731 53.3012 121.278 51.9411C120.825 50.5811 119.464 50.5811 119.464 50.5811Z" fill="#4345FD"/>
<path d="M110.51 54.7747L109.944 61.4725L103.569 58.7672L102.048 58.0021C101.75 57.6136 101.363 57.3021 100.92 57.0936C99.8187 56.5567 98.649 56.6897 98.3074 57.3906C97.9658 58.0914 98.5817 59.0948 99.6831 59.6314C100.12 59.852 100.604 59.9645 101.094 59.9598L105.545 62.4879L105.55 62.478L105.57 62.5133L112.55 65.4287L114.157 56.636L110.51 54.7747Z" fill="#A0616A"/>
<path d="M109.831 47.2942C109.831 47.2942 106.43 47.7475 107.79 44.8007C107.79 44.8007 107.583 43.2032 108.593 43.0952C109.604 42.9872 110.964 41.1737 110.964 41.1737C110.964 41.1737 114.082 39.587 115.697 41.1737C117.311 42.7605 122.071 52.0545 122.071 52.0545L118.898 55.4547C118.898 55.4547 116.99 50.4392 114.77 51.0201C112.551 51.6011 110.511 53.3334 110.511 53.3334C110.511 53.3334 108.258 52.2061 109.271 51.2236C110.284 50.241 109.831 47.2942 109.831 47.2942Z" fill="#2F2E41"/>
<path d="M114.364 52.2812C114.364 52.2812 112.777 50.2411 111.644 51.8279C110.51 53.4147 109.604 55.4548 109.604 55.4548L114.137 57.0416L114.364 52.2812Z" fill="#4345FD"/>
<path d="M131.578 90.0307L126.31 73.2889L126.311 73.2888H126.323L126.302 73.2615L126.302 73.2609L125.926 72.0684L125.927 72.0682C126.498 71.5758 126.887 70.872 126.965 70.0618L124.557 56.8193C124.723 55.0804 123.39 53.5604 121.643 53.498L116.211 53.4844C114.666 53.4296 113.329 54.5453 113.104 56.0745L112.984 56.8862L111.319 68.2089C111.258 68.6162 111.283 69.0176 111.378 69.393L110.181 69.5496L109.817 69.5982L108.381 69.7852L108.376 69.7867L108.197 69.8095H108.002V74.6736H108.015V90.2205C108.015 90.3208 108.097 90.4029 108.197 90.4029C108.299 90.4029 108.381 90.3208 108.381 90.2205V74.6736H110.512L112.639 90.2022C112.652 90.2934 112.73 90.3603 112.821 90.3603C112.829 90.3603 112.838 90.3603 112.845 90.3588C112.946 90.3451 113.015 90.2524 113.002 90.152L110.883 74.6736H121.108C122.123 74.6736 123.064 74.3514 123.83 73.7997L127.884 90.1737C127.906 90.2566 127.98 90.3116 128.062 90.3116C128.077 90.3116 128.092 90.3099 128.107 90.306C128.205 90.2811 128.264 90.1814 128.239 90.0834L124.146 73.5511C124.2 73.5057 124.255 73.4573 124.306 73.4074L125.934 73.3117L131.228 90.1406C131.253 90.2188 131.325 90.2688 131.403 90.2688C131.421 90.2688 131.44 90.2661 131.458 90.2603C131.555 90.2299 131.608 90.1271 131.578 90.0307ZM125.579 72.3282C125.592 72.3206 125.604 72.3114 125.617 72.3038L125.656 72.4281L125.579 72.3282Z" fill="#E6E6E6"/>
<path d="M28.2234 61.6526L31.7683 59.3982L33.2095 60.2675L28.2234 65.9969V61.6526Z" fill="#FFB6B6"/>
<path d="M23.3758 52.9268C23.3758 52.9268 21.0212 53.4809 22.1292 56.6664C23.2373 59.852 26.8384 66.5002 27.9464 66.0847C29.0544 65.6692 29.1929 61.5141 29.1929 61.5141C29.1929 61.5141 29.0544 61.6526 28.5004 61.0986C27.9464 60.5446 27.9464 60.7976 27.9464 60.1863C27.9464 59.575 27.4933 59.1219 27.4933 59.1219L26.9769 58.0515C26.9769 58.0515 26.9769 53.0653 24.8993 52.7883C22.8218 52.5113 23.3758 52.9268 23.3758 52.9268Z" fill="#E6E6E6"/>
<path d="M34.3764 60.1186C35.2959 59.199 35.5809 57.9932 35.013 57.4253C34.445 56.8573 33.2392 57.1424 32.3197 58.0619C31.4002 58.9814 31.1152 60.1872 31.6831 60.7551C32.2511 61.3231 33.4569 61.0381 34.3764 60.1186Z" fill="#FFB6B6"/>
<path d="M14.2046 71.2786L16.6235 75.2823L30.7199 74.4482L26.9664 69.6104L14.2046 71.2786Z" fill="#E6E6E6"/>
<path d="M18.4167 90.0043C18.3346 90.0043 18.2631 89.9437 18.2516 89.8601L14.0394 59.0964C14.0269 59.0051 14.0908 58.9209 14.182 58.9085C14.2733 58.8953 14.3574 58.9598 14.37 59.0511L18.5822 89.8148C18.5947 89.9061 18.5308 89.9903 18.4396 90.0027C18.4319 90.0038 18.4242 90.0043 18.4167 90.0043Z" fill="#E6E6E6"/>
<path d="M14.2047 90.0434C14.1125 90.0434 14.0378 89.9687 14.0378 89.8766V59.0797C14.0378 58.9875 14.1125 58.9128 14.2047 58.9128C14.2968 58.9128 14.3715 58.9875 14.3715 59.0797V89.8766C14.3715 89.9687 14.2968 90.0434 14.2047 90.0434Z" fill="#E6E6E6"/>
<path d="M35.3492 89.921C35.2783 89.921 35.2125 89.8754 35.1901 89.8042L25.2226 58.1229C25.1949 58.0351 25.2438 57.9414 25.3316 57.9137C25.4195 57.8862 25.5132 57.9349 25.5408 58.0228L35.5084 89.704C35.536 89.7919 35.4872 89.8856 35.3993 89.9133C35.3827 89.9185 35.3658 89.921 35.3492 89.921Z" fill="#E6E6E6"/>
<path d="M32.3047 89.9601C32.2302 89.9601 32.1623 89.9099 32.1431 89.8344L25.22 61.8735C25.1973 61.7842 25.2513 61.6934 25.3406 61.6707C25.4301 61.6481 25.5207 61.7019 25.5434 61.7912L32.4665 89.7522C32.4892 89.8414 32.4352 89.9323 32.3459 89.955C32.3321 89.9585 32.3183 89.9601 32.3047 89.9601Z" fill="#E6E6E6"/>
<path d="M14.2046 59.5702L25.7569 59.3926L27.8839 71.5288H14.3714L14.2046 59.5702Z" fill="#E6E6E6"/>
<path d="M31.9578 77.416L29.0464 82.5418L32.4268 83.286L33.8361 79.6403L31.9578 77.416Z" fill="#FFB6B6"/>
<path d="M30.0921 81.5741C30.0921 81.5741 29.9789 80.7382 29.3138 81.0034C28.6487 81.2687 26.7292 82.2545 26.7292 82.2545C26.7292 82.2545 31.7358 90.3894 32.6859 90.0105C33.636 89.6315 32.4986 87.332 32.4986 87.332L32.7497 83.2673L30.0921 81.5741Z" fill="#2F2E41"/>
<path d="M19.082 67.4699C19.082 67.4699 18.0432 72.2483 21.2288 73.9104C24.4144 75.5724 35.287 71.4865 35.287 71.4865L30.3009 78.9576L33.7634 80.3508C33.7634 80.3508 41.6582 69.963 41.1042 68.3009C40.5501 66.6389 36.8105 66.5004 36.8105 66.5004L28.3618 66.9159L26.1457 66.2234L19.082 67.4699Z" fill="#2F2E41"/>
<path d="M27.6507 79.6909L23.0737 83.4059L25.9516 85.3291L28.5908 82.4462L27.6507 79.6909Z" fill="#FFB6B6"/>
<path d="M24.3999 82.885C24.3999 82.885 24.5987 82.0653 23.8827 82.0703C23.1666 82.0754 21.02 82.2952 21.02 82.2952C21.02 82.2952 22.7231 91.6942 23.746 91.6869C24.7689 91.6797 24.5463 89.1239 24.5463 89.1239L26.2592 85.4292L24.3999 82.885Z" fill="#2F2E41"/>
<path d="M19.2769 65.7415C19.2769 65.7415 16.5706 69.8143 18.933 72.5216C21.2954 75.2288 32.9094 75.3794 32.9094 75.3794L25.5465 80.5239L28.2647 83.0816C28.2647 83.0816 39.3982 76.2787 39.4869 74.529C39.5757 72.7793 36.1428 71.2895 36.1428 71.2895L28.1221 68.6022L26.31 67.1507L19.2769 65.7415Z" fill="#2F2E41"/>
<path d="M26.2293 56.3078C26.2293 56.3078 23.5977 55.3383 22.3511 55.3383C22.232 55.3383 22.1143 55.3521 21.9966 55.377C21.1988 55.546 20.4647 56.2316 20.1129 56.6056C19.9758 56.7524 19.8969 56.8507 19.8969 56.8507C19.8969 56.8507 19.9052 56.7552 19.9218 56.5876C20.0035 55.7067 20.3054 52.8161 20.847 50.9657C21.0409 50.305 21.2639 49.7773 21.5201 49.5211C22.1171 48.9228 22.3927 48.2053 22.5201 47.6707C22.6282 47.2122 22.6282 46.8895 22.6282 46.8895L21.6185 46.4546L21.4315 45.233C21.3982 45.3771 21.2445 45.6582 20.7279 46.197C20.6836 46.2427 20.6351 46.2815 20.5838 46.3147C19.8387 46.7829 18.3193 45.9685 17.5007 45.456C17.8415 44.2718 18.4592 43.1887 19.5811 43.0114C22.2126 42.5959 22.2126 41.0724 23.8747 42.7344C24.0118 42.8715 24.1503 43.0031 24.2888 43.1305C24.8207 44.1471 25.0146 45.51 25.0838 46.4574C25.1337 47.1208 25.1212 47.582 25.1212 47.582C25.1212 47.582 25.8137 51.7372 26.9218 52.5682C28.0298 53.3992 26.2293 56.3078 26.2293 56.3078Z" fill="#2F2E41"/>
<path d="M21.1046 49.6597L19.2332 52.4047L23.4592 53.5378V49.6597H21.1046Z" fill="#FFB6B6"/>
<path opacity="0.1" d="M21.1046 49.6597L19.2332 52.4047L23.4592 53.5378V49.6597H21.1046Z" fill="black"/>
<path d="M23.7221 52.3037L19.7055 50.6416C19.7055 50.6416 14.3038 52.9962 14.7193 57.5668C15.1348 62.1374 19.013 70.0322 19.013 70.0322L26.7692 66.7081L25.9382 57.8438L23.7221 52.3037Z" fill="#E6E6E6"/>
<path d="M21.9999 50.8851C23.957 50.8851 25.5436 49.2986 25.5436 47.3415C25.5436 45.3844 23.957 43.7979 21.9999 43.7979C20.0428 43.7979 18.4563 45.3844 18.4563 47.3415C18.4563 49.2986 20.0428 50.8851 21.9999 50.8851Z" fill="#FFB6B6"/>
<path d="M26.7832 46.0585C26.0907 46.751 25.5367 47.4435 25.5367 47.4435L25.2597 46.3355C25.2597 46.3355 25.196 46.3826 25.0838 46.4574C24.6447 46.7566 23.4661 47.5086 22.5201 47.6707C22.099 47.7427 21.7251 47.697 21.4813 47.4435C20.9647 46.9048 20.8109 46.6236 20.7777 46.4796L20.5907 47.7012L19.581 48.1361C19.581 48.1361 19.581 49.6568 20.6891 50.7676C20.7431 50.8217 20.7957 50.8881 20.847 50.9657C21.376 51.7635 21.7555 53.7164 21.9965 55.377C22.2098 56.8535 22.3123 58.0973 22.3123 58.0973C22.3123 58.0973 21.2638 56.7843 20.1129 56.6056C20.0492 56.5959 19.9855 56.589 19.9217 56.5876C19.901 56.5848 19.8788 56.5848 19.858 56.5848C18.6115 56.5848 15.9799 57.5543 15.9799 57.5543C15.9799 57.5543 14.1794 54.6458 15.2874 53.8147C16.3954 52.9837 17.088 48.8286 17.088 48.8286C17.088 48.8286 17.0422 47.0502 17.5007 45.456C17.8414 44.2718 18.4591 43.1887 19.581 43.0114C22.2126 42.5959 22.2126 41.0724 23.8746 42.7344C24.0118 42.8715 24.1503 43.0031 24.2888 43.1305C25.8372 44.5544 27.419 45.4228 26.7832 46.0585Z" fill="#2F2E41"/>
<path d="M11.2413 64.6509H9.92529V90.6428H11.2413V64.6509Z" fill="#3F3D56"/>
<path d="M43.1554 64.6509H41.8394V90.6428H43.1554V64.6509Z" fill="#3F3D56"/>
<path d="M34.7657 53.6289H26.0469V62.3477H34.7657V53.6289Z" fill="#4345FD"/>
<path d="M21.0212 62.8991L24.5662 60.6448L26.0074 61.5141L21.0212 67.2435V62.8991Z" fill="#FFB6B6"/>
<path d="M16.1736 54.1734C16.1736 54.1734 13.8191 54.7274 14.9271 57.913C16.0351 61.0986 19.6362 67.7468 20.7443 67.3313C21.8523 66.9158 21.9908 62.7607 21.9908 62.7607C21.9908 62.7607 21.8523 62.8992 21.2983 62.3452C20.7443 61.7911 20.7443 62.0442 20.7443 61.4329C20.7443 60.8216 20.2911 60.3685 20.2911 60.3685L19.7747 59.2981C19.7747 59.2981 19.7747 54.3119 17.6972 54.0349C15.6196 53.7579 16.1736 54.1734 16.1736 54.1734Z" fill="#E6E6E6"/>
<path d="M27.1742 61.3651C28.0938 60.4456 28.3788 59.2398 27.8108 58.6719C27.2429 58.1039 26.0371 58.3889 25.1176 59.3085C24.1981 60.228 23.913 61.4338 24.481 62.0017C25.0489 62.5697 26.2547 62.2847 27.1742 61.3651Z" fill="#FFB6B6"/>
<path d="M45.7874 63.6638H5.97705V66.6249H45.7874V63.6638Z" fill="#3F3D56"/>
<path d="M86.2346 39.9749H80.3551C79.8891 39.9749 79.5112 40.3527 79.5112 40.8188V43.2436C79.5112 43.7097 79.8891 44.0875 80.3551 44.0875H86.2346C86.7007 44.0875 87.0785 43.7097 87.0785 43.2436V40.8188C87.0785 40.3527 86.7007 39.9749 86.2346 39.9749Z" fill="#3F3D56"/>
<path d="M98.5725 42.3997H92.693C92.2269 42.3997 91.8491 42.7775 91.8491 43.2436V43.2436C91.8491 43.7096 92.2269 44.0875 92.693 44.0875H98.5725C99.0386 44.0875 99.4164 43.7096 99.4164 43.2436V43.2436C99.4164 42.7775 99.0386 42.3997 98.5725 42.3997Z" fill="#4345FD"/>
</g>
<defs>
<clipPath id="clip0_96_541">
<rect width="140" height="91.6868" fill="white"/>
</clipPath>
</defs>
</svg>
