<svg width="140" height="72" viewBox="0 0 140 72" fill="none" xmlns="http://www.w3.org/2000/svg">
<g clip-path="url(#clip0_96_498)">
<path d="M133.786 39.5626L133.347 43.0548L132.259 51.7286H110.393C110.564 49.7845 110.797 46.9863 111.046 43.9655C111.071 43.6638 111.097 43.3602 111.121 43.0548C111.747 35.4614 112.431 26.8687 112.431 26.8687L115.306 27.4042L120.883 28.4413L123.156 28.8636L129.242 29.9969C132.276 30.5607 134.363 34.9542 133.786 39.5626Z" fill="#F2F2F2"/>
<path d="M117.246 12.8171L119.935 17.5226L114.767 21.1852L112.562 15.4013L117.246 12.8171Z" fill="#FFB6B6"/>
<path d="M113.823 17.2688C117.502 17.2688 120.484 14.2864 120.484 10.6074C120.484 6.92846 117.502 3.94604 113.823 3.94604C110.144 3.94604 107.162 6.92846 107.162 10.6074C107.162 14.2864 110.144 17.2688 113.823 17.2688Z" fill="#FFB6B6"/>
<path d="M113.345 12.0965C112.816 11.2915 113.023 10.8704 112.581 10.5746C112.581 10.5746 112.402 10.4555 111.127 10.3876C110.841 8.33259 110.485 8.08337 110.485 8.08336C110.074 7.79614 109.465 7.88946 109.085 8.06513C108.283 8.43667 108.376 9.23924 107.836 9.39282C107.09 9.60497 105.733 8.40896 105.599 7.03977C105.49 5.92289 106.209 4.83813 106.495 4.89551C106.778 4.95241 107.455 4.08747 107.821 4.10081C108.071 4.10992 109.092 3.66626 109.366 3.70095C109.666 3.73883 110.655 4.25481 110.696 4.13692C110.982 3.31773 110.898 3.09044 111.141 2.85609C111.572 2.44082 112.276 2.73 113.381 2.88525C115.654 3.20469 116.051 2.45516 117.215 2.96319C117.804 3.21983 118.296 3.91194 119.257 5.2857C120.601 7.20688 121.273 8.16747 121.277 9.28786C121.281 10.4305 120.728 10.3579 120.485 12.0495C120.215 13.9324 120.789 14.7934 120.161 15.4051C119.676 15.8779 118.69 15.9901 118.171 15.5752C117.284 14.8648 118.445 13.1505 117.463 11.8981C116.86 11.1293 115.648 10.7872 115.093 11.1673C114.465 11.5969 114.811 12.8582 114.369 12.9778C113.991 13.0802 113.437 12.2367 113.345 12.0965Z" fill="#2F2E41"/>
<path d="M128.862 38.3328C128.676 41.5097 127.938 42.5127 127.68 46.2646C127.623 47.0883 127.589 48.0445 127.589 49.1847C127.589 49.4754 127.591 49.7565 127.591 50.0311C127.591 50.6157 127.58 51.1681 127.512 51.7285C127.46 52.1759 127.371 52.6266 127.224 53.1014H112.877C112.876 53.0982 112.876 53.0949 112.874 53.0917C112.79 52.7267 112.737 52.3778 112.696 52.0435C112.683 51.9369 112.672 51.8319 112.662 51.7285C112.65 51.6074 112.638 51.4879 112.627 51.37C112.583 50.9 112.54 50.4559 112.436 50.0311C112.297 49.4448 112.045 48.8924 111.529 48.3594C111.317 48.1414 111.106 47.9718 110.899 47.8232C110.858 47.7957 110.82 47.7683 110.779 47.7408C110.207 47.3483 109.666 47.0657 109.198 46.2646C109.19 46.2533 109.183 46.2404 109.177 46.2291C109.096 46.0886 108.886 45.7203 108.734 45.2294C108.575 44.719 108.478 44.0777 108.652 43.4221C109.067 41.8683 110.605 41.7132 111.861 40.1433C111.997 39.9738 112.131 39.7864 112.259 39.578C112.827 38.6541 112.981 37.8402 113.162 36.8727C113.191 36.716 113.216 36.561 113.237 36.4108C113.254 36.2977 113.268 36.1863 113.279 36.0764C113.379 35.1542 113.331 34.3596 113.213 33.6489C112.829 31.3215 111.695 29.8809 112.496 27.7925C112.748 27.1368 113.105 26.6442 113.465 26.2226C114.227 25.3294 115.011 24.7496 114.875 23.5965C114.738 22.4336 113.856 22.2736 113.758 21.2577C113.707 20.7442 113.875 20.2031 114.19 19.6717V19.6701C115.198 17.9597 117.715 16.3849 119.313 16.435C119.609 16.4431 119.871 16.5093 120.089 16.6369C120.879 17.102 120.549 18.1179 121.759 19.5425C122.658 20.6004 123.676 21.0236 124.062 21.2238C125.591 22.0217 126.835 24.3749 127.68 27.3839C127.686 27.4065 127.693 27.4291 127.699 27.4534C128.221 29.3382 128.589 31.4782 128.772 33.6489C128.849 34.5679 128.894 35.4918 128.904 36.4059C128.912 37.1359 128.896 37.7691 128.862 38.3328Z" fill="#4345FD"/>
<path d="M118.118 49.217L117.826 50.031L117.642 50.5413L117.216 51.7285L116.721 53.1013H113.544L114.077 51.7285L114.325 51.0889L114.735 50.031L115.423 48.2544L118.118 49.217Z" fill="#FFB6B6"/>
<path d="M127.73 27.1061C127.722 27.2111 127.711 27.3273 127.699 27.4534C127.573 28.7358 127.276 31.0308 126.842 33.6489C126.612 35.0298 126.344 36.5013 126.042 37.9629C125.393 41.1172 124.585 44.2231 123.673 46.2646C123.51 46.6329 123.342 46.9656 123.17 47.2595C123.04 47.4841 122.902 47.7053 122.759 47.9233C122.293 48.6388 121.772 49.3172 121.231 49.9503C121.21 49.9778 121.185 50.0037 121.161 50.0311C121.074 50.1344 120.983 50.2362 120.893 50.338C120.451 50.837 119.998 51.3021 119.561 51.7285C119.028 52.2486 118.514 52.709 118.054 53.1014H112.895L112.874 53.0917L112.131 52.7622C112.131 52.7622 112.343 52.5135 112.696 52.0435C112.769 51.9482 112.847 51.8432 112.931 51.7285C113.034 51.588 113.145 51.433 113.265 51.265C113.514 50.9129 113.796 50.4995 114.1 50.0311C114.688 49.125 115.358 48.0105 116.035 46.7201C116.112 46.5699 116.191 46.4181 116.271 46.2646C116.272 46.2598 116.276 46.2549 116.277 46.2501C116.411 45.9884 116.544 45.7187 116.676 45.4441C117.799 43.1086 118.12 41.1705 118.212 40.5423C118.341 39.654 118.52 38.4119 118.472 37.0455C118.44 36.1443 118.309 35.1913 117.997 34.2449V34.2433C117.933 34.0447 117.86 33.846 117.778 33.6489C117.631 33.2952 117.456 32.9463 117.249 32.6023C116.337 31.0874 115.596 31.0244 115.006 29.3737C114.832 28.8843 114.436 27.7796 114.557 26.6135V26.6119C114.572 26.4681 114.596 26.3228 114.628 26.1774V26.1758C114.636 26.1354 114.647 26.0934 114.659 26.0531C114.751 25.6961 114.903 25.3424 115.134 25.0064C115.584 24.354 116.199 23.9663 116.75 23.7354L116.752 23.7337C117.388 23.4689 117.937 23.4123 118.044 23.4026C120.404 23.1927 122.234 25.176 123.233 26.2598C123.619 26.6781 123.973 27.0286 124.296 27.3144C126.811 29.5595 127.501 28.1252 127.68 27.3839C127.707 27.2692 127.722 27.1707 127.73 27.1061Z" fill="#4345FD"/>
<path d="M127.738 27.0222C127.738 27.0303 127.736 27.0577 127.73 27.103C127.733 27.0787 127.735 27.0545 127.736 27.0318C127.736 27.027 127.736 27.0238 127.738 27.0222Z" fill="#4345FD"/>
<path d="M114.911 61.1028H28.3324C27.528 61.1028 26.8723 61.7569 26.8723 62.5613C26.8723 63.3672 27.528 64.0213 28.3324 64.0213H114.911C115.715 64.0213 116.369 63.3672 116.369 62.5613C116.369 61.7569 115.715 61.1028 114.911 61.1028Z" fill="#E6E6E6"/>
<path d="M95.6972 68.6421H47.5441C46.7398 68.6421 46.0857 69.2962 46.0857 70.1005C46.0857 70.9048 46.7398 71.5606 47.5441 71.5606H95.6972C96.5016 71.5606 97.1573 70.9048 97.1573 70.1005C97.1573 69.2962 96.5016 68.6421 95.6972 68.6421Z" fill="#E6E6E6"/>
<path d="M37.9666 13.1269L43.423 10.8306L45.7634 15.6283L40.0295 17.9687L37.9666 13.1269Z" fill="#FFB6B6"/>
<path opacity="0.1" d="M37.9666 13.1269L43.423 10.8306L45.7634 15.6283L40.0295 17.9687L37.9666 13.1269Z" fill="black"/>
<path d="M38.7421 11.2986L44.125 17.5007C44.125 17.5007 40.3804 29.3196 36.6358 30.3727C32.8912 31.4259 25.987 36.5747 25.987 36.5747L17.3276 30.9578L21.5403 24.7558C21.5403 24.7558 31.721 10.8306 34.4124 10.8306C37.1038 10.8306 38.7421 11.2986 38.7421 11.2986Z" fill="#4345FD"/>
<path d="M31.4693 51.7287H18.9389L18.1467 50.6696L14.9123 46.3458L14.1681 45.3511C14.1681 45.3511 11.3596 40.2023 11.9447 35.5215C12.5298 30.8408 18.6148 29.7876 18.6148 29.7876H18.8652L26.3146 36.3336L25.87 42.4257L28.2291 46.3458L31.4693 51.7287Z" fill="#2F2E41"/>
<path d="M21.5052 51.7287H18.1467V46.7554L21.5052 51.7287Z" fill="#2F2E41"/>
<path d="M93.9424 44.1785L93.5247 46.3457L92.4879 51.7286H71.6597C71.8223 50.5221 72.0447 48.7855 72.2822 46.9109C72.3056 46.7237 72.3302 46.5353 72.3536 46.3457C72.9492 41.6333 73.601 36.3008 73.601 36.3008L76.3393 36.6331L81.6519 37.2767L83.8168 37.5389L89.6139 38.2421C92.5042 38.592 94.4924 41.3186 93.9424 44.1785Z" fill="#F2F2F2"/>
<path d="M123.418 51.7285H112.121C112.293 51.5261 112.39 51.4091 112.39 51.4091L115.777 50.8497L122.755 49.6982C122.755 49.6982 123.073 50.5209 123.418 51.7285Z" fill="#2F2E41"/>
<path d="M75.4995 15.4673L80.4124 22.4152L71.8427 22.6711L70.9229 16.1417L75.4995 15.4673Z" fill="#A0616A"/>
<path opacity="0.1" d="M75.4995 15.4673L80.4124 22.4152L71.8427 22.6711L70.9229 16.1417L75.4995 15.4673Z" fill="black"/>
<path d="M51.2712 29.8629C50.6408 28.0444 49.1915 26.8956 48.0343 27.297C46.8771 27.6984 46.4503 29.4977 47.0811 31.3167C47.3231 32.0468 47.7365 32.7083 48.2866 33.2459L51.0548 40.9172L54.627 39.5414L51.5188 32.1249C51.6181 31.362 51.5332 30.5863 51.2712 29.8629Z" fill="#A0616A"/>
<path d="M84.5268 26.3226L84.5201 33.4034L83.8613 36.0188L82.5062 41.3982L81.5197 46.3458L80.7848 50.0319L80.5227 51.3483C80.3249 51.4805 80.1283 51.6069 79.9318 51.7286H62.8154C61.843 51.1447 61.2988 50.6907 61.2988 50.6907C61.2988 50.6907 61.568 50.4379 61.8757 50.0319C62.3953 49.3461 63.0237 48.2227 62.6387 47.1497C62.558 46.925 62.5369 46.6512 62.5615 46.3458C62.7183 44.3307 64.8316 40.9231 64.8316 40.9231L64.394 35.8655L64.2021 33.6492L65.5552 22.8424L69.9656 20.2786L70.7271 20.2049L78.2432 19.7988L81.3498 19.9779L81.4913 20.0165L84.5268 26.3226Z" fill="#CCCCCC"/>
<path d="M84.8606 51.7287H81.116L80.951 50.0319L80.9475 49.998L82.0077 49.9255L84.7659 49.7371L84.8138 50.7528L84.8513 51.5321L84.8606 51.7287Z" fill="#FFB6B6"/>
<path d="M85.7824 28.0347L87.3554 37.264L86.0717 46.3458L85.8716 47.7594L85.5182 50.2554L85.4094 51.023L85.4129 51.1061L85.4398 51.7287H80.9931L80.8293 50.0319L80.8152 49.8798L80.4805 46.4043L80.4747 46.3458L79.7644 38.9759L81.1569 33.6492L81.2599 33.2572V33.256L81.8658 24.1356L81.3965 19.9908L81.3919 19.9521C81.4012 19.958 81.4094 19.9639 81.4188 19.9697C81.4433 19.9849 81.4679 20.0001 81.4913 20.0165C84.2249 21.7507 85.8538 24.7932 85.7824 28.0347Z" fill="#CCCCCC"/>
<path d="M67.148 24.6109L65.438 22.8423C65.438 22.8423 61.7775 24.4925 61.595 25.4081C61.4125 26.3236 54.9494 39.7706 54.9494 39.7706L52.1375 32.2605L48.4773 34.7042C48.4773 34.7042 51.4142 46.3641 54.1609 46.9115C56.9075 47.4588 66.113 33.1109 66.113 33.1109L67.148 24.6109Z" fill="#CCCCCC"/>
<path d="M136.581 46.2646H3.41761C1.53279 46.2646 0 47.799 0 49.6838C0 51.5687 1.53278 53.1015 3.41761 53.1015H136.581C138.466 53.1015 140 51.5687 140 49.6838C140 47.7989 138.466 46.2646 136.581 46.2646Z" fill="#E6E6E6"/>
<path d="M83.7473 35.8458L83.4884 47.9273C83.4633 49.0968 82.5081 50.0318 81.3383 50.0318H59.1139C57.9717 50.0318 57.0288 49.1391 56.9665 47.9986L56.306 35.9172C56.2387 34.6851 57.2195 33.6492 58.4534 33.6492H81.5972C82.803 33.6492 83.7731 34.6403 83.7473 35.8458Z" fill="#3F3D56"/>
<path d="M47.8695 16.0432C50.8061 16.0432 53.1868 13.6626 53.1868 10.726C53.1868 7.78931 50.8061 5.40869 47.8695 5.40869C44.9329 5.40869 42.5522 7.78931 42.5522 10.726C42.5522 13.6626 44.9329 16.0432 47.8695 16.0432Z" fill="#FFB6B6"/>
<path d="M38.9763 24.6388L39.5614 30.9578L43.54 46.9894L40.1027 48.1942L34.2955 30.7238L33.4934 23.7026L38.9763 24.6388Z" fill="#FFB6B6"/>
<path d="M37.3935 35.8458L37.1346 47.9273C37.1096 49.0968 36.1543 50.0318 34.9845 50.0318H12.7601C11.618 50.0318 10.6751 49.1391 10.6127 47.9986L9.95225 35.9172C9.88489 34.6851 10.8658 33.6492 12.0996 33.6492H35.2434C36.4492 33.6492 37.4194 34.6403 37.3935 35.8458Z" fill="#3F3D56"/>
<path d="M44.1734 50.1135C46.4926 50.1135 48.3727 49.2819 48.3727 48.2561C48.3727 47.2303 46.4926 46.3987 44.1734 46.3987C41.8542 46.3987 39.9741 47.2303 39.9741 48.2561C39.9741 49.2819 41.8542 50.1135 44.1734 50.1135Z" fill="#FFB6B6"/>
<path d="M30.7263 25.6049L33.1252 12.8199C33.1252 12.8199 39.7953 11.8838 40.0293 14.1071C40.2634 16.3305 39.8621 27.1963 39.8621 27.1963L30.7263 25.6049Z" fill="#4345FD"/>
<path d="M45.7231 11.5619C45.7231 11.5619 49.0124 10.388 50.3998 9.75632C51.7873 9.1247 54.5438 13.5303 54.6051 11.2035C54.6664 8.87681 53.7139 7.90108 53.7139 7.90108C53.7139 7.90108 53.4761 2.81103 48.348 3.4474C48.348 3.4474 49.4759 0.900794 45.7733 0.507007C42.0708 0.113221 36.3105 9.05436 36.8264 10.3906C37.3422 11.7268 37.9606 12.8315 36.4971 14.2602C35.0335 15.6889 32.2928 23.7521 34.378 25.9218C36.4632 28.0916 36.6 29.0331 35.1713 30.383C33.7427 31.7328 30.3657 34.6679 34.017 35.1775C37.6683 35.687 33.6829 35.3065 36.405 32.9121C39.1271 30.5177 43.0993 30.6155 41.6161 26.7739C40.133 22.9323 42.7098 17.4273 42.3873 16.5922C42.0649 15.7571 43.1097 10.454 43.1097 10.454C43.1097 10.454 45.5413 10.0967 45.7231 11.5619Z" fill="#2F2E41"/>
<path d="M72.8727 17.9822C76.0694 17.9822 78.6609 15.3907 78.6609 12.194C78.6609 8.99724 76.0694 6.40576 72.8727 6.40576C69.6759 6.40576 67.0845 8.99724 67.0845 12.194C67.0845 15.3907 69.6759 17.9822 72.8727 17.9822Z" fill="#A0616A"/>
<path d="M73.3347 4.41208C73.1672 4.50985 72.9429 4.36193 72.8892 4.17558C72.8354 3.98923 72.898 3.79137 72.96 3.60763L73.2723 2.68262C73.4938 2.02659 73.7289 1.34763 74.2086 0.848307C74.9326 0.0946544 76.0833 -0.0970712 77.1191 0.0418273C78.4493 0.220201 79.7618 0.940487 80.3803 2.13157C80.9988 3.32266 80.7354 4.98465 79.6179 5.72777C81.2107 7.5534 81.7659 9.588 81.6782 12.0092C81.5906 14.4304 78.952 16.6587 77.2313 18.3644C76.8471 18.1315 76.4978 17.0398 76.7091 16.6433C76.9204 16.2467 76.6176 15.7873 76.8793 15.422C77.141 15.0567 77.36 15.6384 77.0954 15.2752C76.9284 15.046 77.58 14.5187 77.3319 14.3815C76.1316 13.7181 75.7324 12.222 74.9785 11.0763C74.0692 9.69435 72.513 8.75851 70.866 8.60325C69.9588 8.51772 69.0005 8.67263 68.2569 9.19933C67.5133 9.72603 67.0319 10.6672 67.2043 11.562C66.7577 11.1086 66.5354 10.444 66.6192 9.81314C66.7031 9.18224 67.0913 8.59883 67.6408 8.27777C67.3066 7.1728 67.5929 5.90176 68.3684 5.04669C69.144 4.19163 72.29 4.33726 73.4223 4.5623L73.3347 4.41208Z" fill="#2F2E41"/>
<path d="M73.5105 8.63672C75.0101 8.7986 76.0929 10.0976 77.0072 11.2972C77.5342 11.9887 78.0862 12.7522 78.0729 13.6215C78.0596 14.5004 77.472 15.2542 77.1911 16.087C76.7321 17.4484 77.1795 19.0681 78.2722 20.0009C77.1925 20.2058 76.0253 19.3963 75.8389 18.3133C75.622 17.0525 76.5777 15.8357 76.4645 14.5614C76.3648 13.4387 75.4801 12.5747 74.7279 11.7353C73.9758 10.8959 73.2694 9.78201 73.6155 8.70936L73.5105 8.63672Z" fill="#2F2E41"/>
<path d="M95.9296 46.9963C94.4442 47.8412 93.6761 49.2924 94.2139 50.2376C94.7517 51.1828 96.3916 51.264 97.8774 50.4186C98.4756 50.0891 98.9861 49.6211 99.3663 49.0538L105.615 45.3946L103.835 42.499L97.8642 46.4137C97.182 46.4506 96.5186 46.6504 95.9296 46.9963Z" fill="#FFB6B6"/>
<path d="M117.086 20.1633C116.899 20.0893 115.261 19.4688 113.765 20.288C112.047 21.229 111.781 23.3771 111.688 24.1306C111.473 25.871 112.107 26.2611 112.24 28.0231C112.49 31.3196 113.15 27.559 112.097 29.0637C111.732 29.5845 108.008 37.6558 105.954 39.2367C101.959 42.3115 99.4221 44.4768 99.4221 44.4768L102.318 47.6227C102.318 47.6227 106.894 46.4034 110.939 43.777C115.088 41.083 117.162 39.736 118.767 37.1009C118.906 36.874 122.213 31.2581 120.437 25.0482C120.031 23.6318 119.289 21.0365 117.086 20.1633Z" fill="#4345FD"/>
<path d="M132.04 35.8458L131.781 47.9273C131.756 49.0968 130.8 50.0318 129.631 50.0318H107.406C106.264 50.0318 105.321 49.1391 105.259 47.9986L104.598 35.9172C104.531 34.6851 105.512 33.6492 106.746 33.6492H129.889C131.095 33.6492 132.065 34.6403 132.04 35.8458Z" fill="#3F3D56"/>
</g>
<defs>
<clipPath id="clip0_96_498">
<rect width="140" height="71.5606" fill="white"/>
</clipPath>
</defs>
</svg>
