<svg width="140" height="130" viewBox="0 0 140 130" fill="none" xmlns="http://www.w3.org/2000/svg">
<path d="M135.601 111.664H4.39926C3.2325 111.664 2.11353 111.2 1.28851 110.375C0.463491 109.55 0 108.431 0 107.264C47.5605 101.737 94.2272 101.737 140 107.264C140 108.431 139.537 109.55 138.711 110.375C137.886 111.2 136.767 111.664 135.601 111.664Z" fill="#2F2E41"/>
<path d="M140 107.523L0 107.264L16.2255 79.963L16.3031 79.8337V19.6647C16.3031 18.9344 16.4469 18.2112 16.7263 17.5365C17.0058 16.8617 17.4154 16.2486 17.9318 15.7322C18.4483 15.2158 19.0613 14.8062 19.7361 14.5267C20.4108 14.2473 21.134 14.1035 21.8643 14.1035H117.359C118.09 14.1035 118.813 14.2473 119.488 14.5267C120.162 14.8062 120.775 15.2158 121.292 15.7322C121.808 16.2486 122.218 16.8617 122.497 17.5365C122.777 18.2112 122.921 18.9344 122.921 19.6647V80.2477L140 107.523Z" fill="#3F3D56"/>
<path d="M21.7375 17.9852C21.2572 17.9858 20.7968 18.1768 20.4572 18.5164C20.1176 18.856 19.9266 19.3164 19.926 19.7967V74.6581C19.9266 75.1383 20.1176 75.5987 20.4572 75.9383C20.7968 76.2779 21.2572 76.469 21.7375 76.4695H118.262C118.743 76.4689 119.203 76.2779 119.543 75.9383C119.882 75.5987 120.073 75.1383 120.074 74.6581V19.7967C120.073 19.3164 119.882 18.856 119.543 18.5164C119.203 18.1768 118.743 17.9858 118.262 17.9852H21.7375Z" fill="white"/>
<path d="M22.142 83.7153C21.9936 83.7156 21.8483 83.7583 21.7233 83.8383C21.5984 83.9184 21.4989 84.0325 21.4366 84.1672L16.4371 95.036C16.3826 95.1542 16.3588 95.2843 16.3678 95.4142C16.3768 95.5441 16.4184 95.6696 16.4886 95.7792C16.5588 95.8889 16.6555 95.9791 16.7697 96.0415C16.8839 96.104 17.0121 96.1368 17.1422 96.1368H122.281C122.413 96.1368 122.543 96.1029 122.659 96.0385C122.774 95.9741 122.872 95.8811 122.941 95.7685C123.011 95.656 123.05 95.5275 123.056 95.3953C123.062 95.2631 123.034 95.1316 122.975 95.0132L117.541 84.1445C117.477 84.0152 117.378 83.9066 117.255 83.8307C117.132 83.7549 116.991 83.7149 116.846 83.7153H22.142Z" fill="#2F2E41"/>
<path d="M69.6118 17.0795C70.2549 17.0795 70.7763 16.5581 70.7763 15.915C70.7763 15.2719 70.2549 14.7505 69.6118 14.7505C68.9686 14.7505 68.4473 15.2719 68.4473 15.915C68.4473 16.5581 68.9686 17.0795 69.6118 17.0795Z" fill="white"/>
<path d="M59.2776 98.207C59.1069 98.2072 58.9411 98.2636 58.8056 98.3674C58.6702 98.4712 58.5726 98.6167 58.528 98.7815L57.2739 103.439C57.2429 103.555 57.2388 103.675 57.2619 103.792C57.2851 103.909 57.3348 104.019 57.4073 104.114C57.4798 104.208 57.573 104.285 57.6799 104.338C57.7867 104.39 57.9043 104.418 58.0235 104.418H81.8736C81.9974 104.418 82.1193 104.388 82.2293 104.331C82.3393 104.275 82.4342 104.193 82.5059 104.092C82.5777 103.991 82.6243 103.874 82.6419 103.752C82.6595 103.629 82.6475 103.504 82.607 103.387L80.9947 98.7294C80.9418 98.5769 80.8427 98.4447 80.7113 98.351C80.5798 98.2574 80.4224 98.2071 80.261 98.207H59.2776Z" fill="#2F2E41"/>
<path d="M122.92 78.9279V79.9629H16.2255L16.3058 79.8337V78.9279H122.92Z" fill="#2F2E41"/>
<path d="M119.945 36.2292C129.949 36.2292 138.059 28.119 138.059 18.1146C138.059 8.11018 129.949 0 119.945 0C109.94 0 101.83 8.11018 101.83 18.1146C101.83 28.119 109.94 36.2292 119.945 36.2292Z" fill="#4345FD"/>
<path d="M127.449 26.0074H112.44C112.165 26.0072 111.902 25.898 111.708 25.7039C111.514 25.5099 111.405 25.2468 111.405 24.9723V15.915C111.405 15.6406 111.514 15.3774 111.708 15.1834C111.902 14.9893 112.165 14.8802 112.44 14.8799H127.449C127.724 14.8802 127.987 14.9893 128.181 15.1834C128.375 15.3774 128.484 15.6406 128.484 15.915V24.9723C128.484 25.2467 128.375 25.5099 128.181 25.7039C127.987 25.898 127.724 26.0072 127.449 26.0074ZM112.44 15.915V24.9723H127.45L127.449 15.915L112.44 15.915Z" fill="white"/>
<path d="M124.603 15.915H115.286V11.7745C115.286 8.77552 117.246 6.59888 119.945 6.59888C122.644 6.59888 124.603 8.77552 124.603 11.7745L124.603 15.915ZM116.322 14.8798H123.567V11.7745C123.567 9.33666 122.078 7.634 119.945 7.634C117.811 7.634 116.322 9.33667 116.322 11.7745L116.322 14.8798Z" fill="white"/>
<path d="M119.945 21.22C120.516 21.22 120.98 20.7565 120.98 20.1848C120.98 19.6132 120.516 19.1497 119.945 19.1497C119.373 19.1497 118.909 19.6132 118.909 20.1848C118.909 20.7565 119.373 21.22 119.945 21.22Z" fill="white"/>
<path d="M107.299 57.8611H32.701C32.3348 57.8607 31.9836 57.715 31.7247 57.456C31.4657 57.197 31.32 56.8459 31.3196 56.4796V37.9751C31.32 37.6088 31.4657 37.2577 31.7247 36.9987C31.9836 36.7397 32.3348 36.5941 32.701 36.5936H107.299C107.665 36.5941 108.016 36.7397 108.275 36.9987C108.534 37.2577 108.68 37.6088 108.68 37.9751V56.4796C108.68 56.8459 108.534 57.197 108.275 57.456C108.016 57.715 107.665 57.8607 107.299 57.8611ZM32.701 37.1462C32.4813 37.1465 32.2706 37.2339 32.1152 37.3892C31.9598 37.5446 31.8724 37.7553 31.8722 37.9751V56.4796C31.8724 56.6994 31.9598 56.9101 32.1152 57.0655C32.2706 57.2209 32.4813 57.3083 32.701 57.3085H107.299C107.519 57.3083 107.729 57.2209 107.885 57.0655C108.04 56.9101 108.128 56.6994 108.128 56.4796V37.9751C108.128 37.7553 108.04 37.5446 107.885 37.3892C107.729 37.2338 107.519 37.1464 107.299 37.1462L32.701 37.1462Z" fill="#E6E6E6"/>
<path d="M44.2921 52.1446C47.3999 52.1446 49.9193 49.6252 49.9193 46.5173C49.9193 43.4095 47.3999 40.8901 44.2921 40.8901C41.1842 40.8901 38.6648 43.4095 38.6648 46.5173C38.6648 49.6252 41.1842 52.1446 44.2921 52.1446Z" fill="#E6E6E6"/>
<path d="M57.2884 42.7658C57.1651 42.7656 57.0429 42.7897 56.929 42.8368C56.815 42.8838 56.7115 42.9529 56.6242 43.04C56.537 43.1271 56.4678 43.2305 56.4205 43.3444C56.3733 43.4583 56.349 43.5804 56.349 43.7037C56.349 43.827 56.3733 43.9491 56.4205 44.0629C56.4678 44.1768 56.537 44.2803 56.6242 44.3674C56.7115 44.4545 56.815 44.5235 56.929 44.5706C57.0429 44.6176 57.1651 44.6418 57.2884 44.6416H101.503C101.751 44.6416 101.99 44.5427 102.166 44.3669C102.342 44.191 102.44 43.9524 102.44 43.7037C102.44 43.4549 102.342 43.2164 102.166 43.0405C101.99 42.8646 101.751 42.7658 101.503 42.7658H57.2884Z" fill="#E6E6E6"/>
<path d="M57.2883 48.3931C57.0396 48.3931 56.801 48.4919 56.6252 48.6678C56.4493 48.8436 56.3505 49.0822 56.3505 49.3309C56.3505 49.5797 56.4493 49.8182 56.6252 49.9941C56.801 50.17 57.0396 50.2688 57.2883 50.2688H76.3138C76.5626 50.2688 76.8011 50.17 76.977 49.9941C77.1529 49.8182 77.2517 49.5797 77.2517 49.3309C77.2517 49.0822 77.1529 48.8436 76.977 48.6678C76.8011 48.4919 76.5626 48.3931 76.3138 48.3931H57.2883Z" fill="#E6E6E6"/>
</svg>
