<svg viewBox="0 0 161 138" fill="none" xmlns="http://www.w3.org/2000/svg">
<g clip-path="url(#clip0_296_1187)">
<path d="M12.0897 126.641C13.0174 126.967 14.0135 127.049 14.9819 126.878C15.9504 126.708 16.8586 126.291 17.6191 125.668C19.5557 124.045 20.163 121.37 20.657 118.893L22.1183 111.567L19.0589 113.671C16.8586 115.185 14.6089 116.746 13.0855 118.938C11.5622 121.13 10.8976 124.122 12.1212 126.494" fill="#E6E6E6"/>
<path d="M12.5621 136.021C12.1771 133.219 11.7809 130.38 12.0516 127.548C12.2916 125.033 13.0599 122.576 14.6241 120.561C15.4543 119.494 16.4646 118.579 17.6094 117.859C17.9079 117.671 18.1827 118.143 17.8855 118.331C15.9045 119.581 14.3723 121.428 13.5097 123.604C12.557 126.024 12.4041 128.663 12.5682 131.234C12.6673 132.788 12.8781 134.333 13.0898 135.876C13.1065 135.945 13.0961 136.019 13.0606 136.081C13.0251 136.144 12.9673 136.19 12.8987 136.212C12.8288 136.231 12.7542 136.221 12.6913 136.185C12.6283 136.15 12.582 136.09 12.5623 136.021L12.5621 136.021Z" fill="#F2F2F2"/>
<path d="M15.3337 131.525C15.7316 132.129 16.2785 132.62 16.9217 132.952C17.565 133.284 18.283 133.445 19.0065 133.419C20.8662 133.331 22.416 132.035 23.811 130.804L27.9379 127.164L25.2066 127.034C23.2425 126.94 21.2276 126.851 19.3567 127.457C17.4859 128.063 15.7606 129.518 15.4185 131.453" fill="#E6E6E6"/>
<path d="M11.4737 137.632C13.3276 134.355 15.4778 130.714 19.3201 129.55C20.3883 129.228 21.5085 129.112 22.6202 129.21C22.9706 129.24 22.8831 129.779 22.5334 129.749C20.6699 129.595 18.81 130.086 17.2667 131.141C15.7817 132.151 14.6254 133.555 13.6469 135.043C13.0474 135.955 12.5104 136.905 11.9735 137.855C11.8019 138.158 11.3001 137.939 11.4737 137.632Z" fill="#F2F2F2"/>
<path d="M159.812 97.1835H57.6049C57.29 97.1831 56.9881 97.0579 56.7654 96.8355C56.5427 96.613 56.4174 96.3114 56.417 95.9969V1.18661C56.4174 0.872028 56.5427 0.570447 56.7654 0.348004C56.9881 0.125561 57.29 0.000411237 57.6049 0H159.812C160.127 0.000411237 160.429 0.125561 160.652 0.348004C160.874 0.570447 161 0.872028 161 1.18661V95.9966C161 96.3112 160.874 96.6129 160.652 96.8353C160.429 97.0578 160.127 97.1831 159.812 97.1835Z" fill="white"/>
<path d="M159.812 97.1835H57.6049C57.29 97.1831 56.9881 97.0579 56.7654 96.8355C56.5427 96.613 56.4174 96.3114 56.417 95.9969V1.18661C56.4174 0.872028 56.5427 0.570447 56.7654 0.348004C56.9881 0.125561 57.29 0.000411237 57.6049 0H159.812C160.127 0.000411237 160.429 0.125561 160.652 0.348004C160.874 0.570447 161 0.872028 161 1.18661V95.9966C161 96.3112 160.874 96.6129 160.652 96.8353C160.429 97.0578 160.127 97.1831 159.812 97.1835ZM57.6049 0.473709C57.4162 0.474118 57.2353 0.549196 57.1018 0.68251C56.9684 0.815823 56.8932 0.996519 56.8928 1.18505V95.9966C56.8932 96.1852 56.9684 96.3659 57.1018 96.4992C57.2353 96.6325 57.4162 96.7076 57.6049 96.708H159.812C160.001 96.7076 160.182 96.6326 160.315 96.4992C160.449 96.3659 160.524 96.1852 160.524 95.9966V1.18661C160.524 0.998076 160.449 0.81738 160.315 0.684067C160.182 0.550753 160.001 0.475675 159.812 0.475266L57.6049 0.473709Z" fill="#CACACA"/>
<path d="M105.9 24.6367C105.686 24.6371 105.481 24.7221 105.33 24.8732C105.179 25.0242 105.094 25.2289 105.094 25.4423C105.094 25.6557 105.179 25.8604 105.33 26.0115C105.481 26.1625 105.686 26.2475 105.9 26.2479H150.154C150.367 26.2475 150.572 26.1625 150.723 26.0115C150.874 25.8604 150.959 25.6557 150.959 25.4423C150.959 25.2289 150.874 25.0242 150.723 24.8732C150.572 24.7221 150.367 24.6371 150.154 24.6367H105.9Z" fill="#E4E4E4"/>
<path d="M105.9 29.4707C105.686 29.4712 105.481 29.5563 105.331 29.7073C105.18 29.8584 105.095 30.063 105.095 30.2763C105.095 30.4896 105.18 30.6942 105.331 30.8453C105.481 30.9963 105.686 31.0814 105.9 31.0819H128.492C128.706 31.0814 128.91 30.9963 129.061 30.8453C129.212 30.6942 129.297 30.4896 129.297 30.2763C129.297 30.063 129.212 29.8584 129.061 29.7073C128.91 29.5563 128.706 29.4712 128.492 29.4707H105.9Z" fill="#E4E4E4"/>
<path d="M67.2201 55.4663C67.0065 55.4668 66.8019 55.5519 66.651 55.7029C66.5002 55.854 66.4155 56.0586 66.4155 56.2719C66.4155 56.4852 66.5002 56.6898 66.651 56.8409C66.8019 56.9919 67.0065 57.077 67.2201 57.0775H150.197C150.411 57.077 150.615 56.9919 150.766 56.8409C150.917 56.6898 151.002 56.4852 151.002 56.2719C151.002 56.0586 150.917 55.854 150.766 55.7029C150.615 55.5519 150.411 55.4668 150.197 55.4663H67.2201Z" fill="#E4E4E4"/>
<path d="M67.2201 60.3004C67.0065 60.3009 66.8019 60.386 66.651 60.5371C66.5002 60.6881 66.4155 60.8927 66.4155 61.106C66.4155 61.3193 66.5002 61.5239 66.651 61.675C66.8019 61.826 67.0065 61.9111 67.2201 61.9116H128.535C128.749 61.9111 128.954 61.826 129.104 61.675C129.255 61.5239 129.34 61.3193 129.34 61.106C129.34 60.8927 129.255 60.6881 129.104 60.5371C128.954 60.386 128.749 60.3009 128.535 60.3004H67.2201Z" fill="#E4E4E4"/>
<path d="M67.2201 65.025C67.0065 65.0255 66.8019 65.1106 66.651 65.2617C66.5002 65.4127 66.4155 65.6173 66.4155 65.8306C66.4155 66.0439 66.5002 66.2485 66.651 66.3996C66.8019 66.5506 67.0065 66.6357 67.2201 66.6362H150.197C150.411 66.6357 150.615 66.5506 150.766 66.3996C150.917 66.2485 151.002 66.0439 151.002 65.8306C151.002 65.6173 150.917 65.4127 150.766 65.2617C150.615 65.1106 150.411 65.0255 150.197 65.025H67.2201Z" fill="#E4E4E4"/>
<path d="M67.2201 69.859C67.0065 69.8595 66.8019 69.9446 66.651 70.0956C66.5002 70.2467 66.4155 70.4513 66.4155 70.6646C66.4155 70.8779 66.5002 71.0825 66.651 71.2336C66.8019 71.3846 67.0065 71.4697 67.2201 71.4702H128.535C128.749 71.4697 128.954 71.3846 129.104 71.2336C129.255 71.0825 129.34 70.8779 129.34 70.6646C129.34 70.4513 129.255 70.2467 129.104 70.0956C128.954 69.9446 128.749 69.8595 128.535 69.859H67.2201Z" fill="#E4E4E4"/>
<path d="M67.2201 74.7096C67.0065 74.7101 66.8019 74.7952 66.651 74.9462C66.5002 75.0973 66.4155 75.3019 66.4155 75.5152C66.4155 75.7285 66.5002 75.9331 66.651 76.0841C66.8019 76.2352 67.0065 76.3203 67.2201 76.3208H150.197C150.411 76.3203 150.615 76.2352 150.766 76.0841C150.917 75.9331 151.002 75.7285 151.002 75.5152C151.002 75.3019 150.917 75.0973 150.766 74.9462C150.615 74.7952 150.411 74.7101 150.197 74.7096H67.2201Z" fill="#E4E4E4"/>
<path d="M67.2201 79.5436C67.0065 79.5441 66.8019 79.6292 66.651 79.7802C66.5002 79.9312 66.4155 80.1359 66.4155 80.3492C66.4155 80.5625 66.5002 80.7671 66.651 80.9181C66.8019 81.0691 67.0065 81.1542 67.2201 81.1548H128.535C128.749 81.1542 128.954 81.0691 129.104 80.9181C129.255 80.7671 129.34 80.5625 129.34 80.3492C129.34 80.1359 129.255 79.9312 129.104 79.7802C128.954 79.6292 128.749 79.5441 128.535 79.5436H67.2201Z" fill="#E4E4E4"/>
<path d="M80.3627 39.4334C78.071 39.4334 75.8307 38.7546 73.9252 37.4828C72.0196 36.2111 70.5345 34.4034 69.6574 32.2885C68.7804 30.1736 68.5509 27.8464 68.998 25.6013C69.4451 23.3561 70.5487 21.2938 72.1692 19.6751C73.7897 18.0564 75.8543 16.954 78.102 16.5074C80.3497 16.0608 82.6795 16.29 84.7968 17.1661C86.9141 18.0421 88.7237 19.5256 89.997 21.4289C91.2702 23.3323 91.9498 25.57 91.9498 27.8592C91.9463 30.9278 90.7244 33.8697 88.5521 36.0395C86.3799 38.2093 83.4347 39.4299 80.3627 39.4334Z" fill="#6C63FF"/>
<path d="M45.1896 83.1961C45.1695 82.7736 45.057 82.3607 44.8599 81.9864C44.6628 81.612 44.386 81.2854 44.0489 81.0296C43.7117 80.7737 43.3225 80.5947 42.9087 80.5054C42.4949 80.416 42.0664 80.4183 41.6536 80.5122L37.8236 75.1207L33.9758 76.6465L39.4916 84.1844C39.6955 84.8668 40.1429 85.4506 40.749 85.8255C41.355 86.2003 42.0777 86.3401 42.7801 86.2183C43.4824 86.0964 44.1156 85.7215 44.5597 85.1645C45.0038 84.6075 45.2279 83.9071 45.1896 83.1961Z" fill="#A0616A"/>
<path d="M37.725 82.7966L26.136 67.779L30.4783 54.1472C30.7965 50.72 32.9435 49.763 33.0349 49.7239L33.1742 49.6642L36.9528 59.7294L34.1785 67.1195L40.9881 78.5595L37.725 82.7966Z" fill="#3F3D56"/>
<path d="M77.9717 36.5025C77.5516 36.5552 77.1481 36.6992 76.7897 36.9244C76.4313 37.1496 76.1268 37.4506 75.8974 37.8061C75.6681 38.1616 75.5196 38.563 75.4623 38.9821C75.4051 39.4011 75.4406 39.8276 75.5662 40.2315L70.481 44.4626L72.3014 48.1766L79.3987 42.1007C80.064 41.8448 80.6122 41.3542 80.9395 40.7216C81.2668 40.089 81.3504 39.3585 81.1745 38.6685C80.9986 37.9784 80.5754 37.3768 79.9851 36.9776C79.3948 36.5784 78.6784 36.4094 77.9717 36.5025Z" fill="#A0616A"/>
<path d="M78.1499 43.9673L64.0565 56.6697L50.1145 53.3992C46.6691 53.3473 45.5479 51.2831 45.5018 51.1951L45.4314 51.061L55.1857 46.5197L62.7764 48.7113L73.6684 41.0452L78.1499 43.9673Z" fill="#3F3D56"/>
<path d="M53.738 134.269L57.5247 134.269L59.3259 119.68L53.7373 119.68L53.738 134.269Z" fill="#A0616A"/>
<path d="M64.8274 137.781L52.9266 137.781L52.9264 133.188L61.4884 133.188C62.3739 133.188 63.2231 133.539 63.8493 134.165C64.4755 134.79 64.8273 135.638 64.8273 136.523L64.8274 137.781Z" fill="#2F2E41"/>
<path d="M38.6035 134.269L42.3901 134.269L44.1916 119.68L38.603 119.68L38.6035 134.269Z" fill="#A0616A"/>
<path d="M49.6931 137.781L37.7923 137.781L37.7921 133.188L46.3541 133.188C46.7926 133.188 47.2267 133.274 47.6318 133.442C48.0369 133.609 48.405 133.855 48.715 134.165C49.0251 134.474 49.271 134.842 49.4389 135.247C49.6067 135.651 49.693 136.085 49.6931 136.523L49.6931 137.781Z" fill="#2F2E41"/>
<path d="M37.2568 81.017L37.5657 102.613L37.8747 130.997L44.6696 130.38L48.0672 91.1982L52.3913 130.38H59.4063L60.1129 90.8897L57.642 82.2512L37.2568 81.017Z" fill="#2F2E41"/>
<path d="M50.5564 83.9172C43.163 83.9178 36.3575 80.5753 36.2656 80.5294L36.1893 80.4913L35.5688 65.6182C35.3889 65.0926 31.8461 54.7217 31.2461 51.4253C30.6382 48.0856 39.449 45.1546 40.5189 44.8119L40.7617 42.1252L50.6353 41.0625L51.8868 44.5002L55.429 45.8269C55.8306 45.9774 56.1629 46.2699 56.3631 46.6488C56.5632 47.0277 56.6172 47.4669 56.5149 47.8829L54.5462 55.88L59.3544 82.3382L58.3193 82.383C55.838 83.5023 53.16 83.9171 50.5564 83.9172Z" fill="#3F3D56"/>
<path d="M49.4949 38.4906C52.94 36.6095 54.2061 32.2949 52.3229 28.8537C50.4396 25.4125 46.1202 24.1478 42.6751 26.029C39.23 27.9101 37.9639 32.2247 39.8472 35.6659C41.7304 39.1071 46.0499 40.3718 49.4949 38.4906Z" fill="#A0616A"/>
<path d="M40.3271 39.1342C41.6819 40.5757 44.198 39.8019 44.3745 37.8325C44.3884 37.6796 44.3874 37.5258 44.3715 37.3731C44.2804 36.5007 43.7759 35.7087 43.8967 34.7877C43.9241 34.5584 44.0096 34.34 44.1451 34.153C45.2247 32.7089 47.759 34.7989 48.7779 33.4916C49.4027 32.69 48.6683 31.4279 49.1477 30.532C49.7805 29.3496 51.6548 29.9329 52.8302 29.2853C54.1379 28.5648 54.0597 26.5606 53.1988 25.3415C52.149 23.8549 50.3083 23.0616 48.4905 22.9473C46.6728 22.8329 44.8676 23.3238 43.1705 23.9844C41.2423 24.735 39.3303 25.7723 38.1437 27.4658C36.7007 29.5254 36.5618 32.2942 37.2835 34.7025C37.7225 36.1674 39.2208 37.957 40.3271 39.1342Z" fill="#2F2E41"/>
<path d="M90.3327 137.964H0.236473C0.173757 137.964 0.113605 137.939 0.0692576 137.895C0.0249103 137.85 0 137.79 0 137.728C0 137.665 0.0249103 137.605 0.0692576 137.561C0.113605 137.516 0.173757 137.491 0.236473 137.491H90.3327C90.3954 137.491 90.4556 137.516 90.4999 137.561C90.5443 137.605 90.5692 137.665 90.5692 137.728C90.5692 137.79 90.5443 137.85 90.4999 137.895C90.4556 137.939 90.3954 137.964 90.3327 137.964Z" fill="#CACACA"/>
<path d="M79.6936 32.2308C79.4846 32.2311 79.2833 32.1521 79.1304 32.0098L75.3097 28.465C75.1491 28.3157 75.0544 28.1089 75.0464 27.8899C75.0385 27.6709 75.1178 27.4578 75.2671 27.2972C75.4164 27.1367 75.6234 27.0419 75.8426 27.0337C76.0618 27.0255 76.2753 27.1046 76.4362 27.2535L79.6724 30.2562L86.0753 23.8606C86.1521 23.7833 86.2433 23.722 86.3439 23.68C86.4444 23.6381 86.5523 23.6164 86.6613 23.6162C86.7702 23.616 86.8781 23.6373 86.9788 23.6789C87.0795 23.7204 87.171 23.7814 87.2481 23.8584C87.3251 23.9354 87.3862 24.0268 87.4278 24.1274C87.4694 24.228 87.4907 24.3358 87.4904 24.4446C87.4902 24.5535 87.4685 24.6612 87.4265 24.7616C87.3845 24.862 87.323 24.9532 87.2457 25.0298L80.279 31.9887C80.2021 32.0656 80.1109 32.1265 80.0104 32.1681C79.91 32.2096 79.8023 32.231 79.6936 32.2308Z" fill="white"/>
</g>
<defs>
<clipPath id="clip0_296_1187">
<rect width="161" height="138" fill="white"/>
</clipPath>
</defs>
</svg>
