<svg viewBox="0 0 90 108" fill="none" xmlns="http://www.w3.org/2000/svg">
<g clip-path="url(#clip0_330_2077)">
<path d="M88.4199 104.913C87.9109 105.599 87.2798 106.186 86.5584 106.643C86.4049 106.74 86.2474 106.832 86.0872 106.917H82.3162C82.3613 106.827 82.4052 106.735 82.4477 106.643C83.6169 104.176 83.9836 101.404 83.4961 98.7176C83.0086 96.0311 81.6915 93.565 79.73 91.6658C82.0093 92.3698 84.116 93.7424 85.4941 95.6888C86.1636 96.6367 86.6398 97.7073 86.8954 98.8394C87.1231 96.5754 86.7611 94.2909 85.8447 92.2082C87.6953 93.7136 89.1364 95.7751 89.6856 98.0956C90.2349 100.417 89.8363 102.994 88.4199 104.913Z" fill="#F0F0F0"/>
<path d="M89.9477 107.032H54.6431V106.744H90L89.9477 107.032Z" fill="#3F3D56"/>
<path d="M42.292 36.78C42.292 42.0728 40.4428 46.5918 36.9238 49.9546C34.4267 52.3421 30.5804 55.6885 30.5804 59.2267V62.1539H18.8687V59.2267C18.8687 55.6515 15.0072 52.2983 12.5252 49.9546C9.08564 46.7096 7.15698 41.8838 7.15698 36.78V36.6718C7.17209 32.0131 9.03705 27.5511 12.3417 24.2674C15.6463 20.9836 20.1199 19.1469 24.7786 19.1612C29.4373 19.1756 33.8995 21.0398 37.1839 24.3439C40.4682 27.6479 42.3056 32.1213 42.292 36.78Z" fill="#4345FD"/>
<path d="M30.58 62.5649C30.471 62.5649 30.3665 62.5216 30.2894 62.4446C30.2124 62.3675 30.1691 62.263 30.1691 62.154V59.2262C30.1691 55.7846 33.5633 52.5718 36.0418 50.2259C36.2472 50.0311 36.4474 49.8423 36.6394 49.6581C40.0679 46.3805 41.8801 41.9274 41.8801 36.7802C41.8801 27.1603 34.3445 19.6245 24.7246 19.6245H24.6761C20.1489 19.6296 15.8078 21.427 12.6021 24.6237C9.39635 27.8204 7.58676 32.1564 7.56894 36.6836V36.7795C7.56894 41.8203 9.47829 46.5136 12.8077 49.6565C12.9763 49.8158 13.1515 49.9797 13.3314 50.1481C15.8418 52.4985 19.2799 55.7174 19.2799 59.2263V62.154C19.2799 62.263 19.2366 62.3675 19.1596 62.4446C19.0825 62.5216 18.978 62.5649 18.869 62.5649C18.76 62.5649 18.6555 62.5216 18.5784 62.4446C18.5014 62.3675 18.4581 62.263 18.4581 62.154V59.2262C18.4581 56.0736 15.1706 52.9956 12.7696 50.7472C12.5889 50.5782 12.4136 50.4136 12.2435 50.2534C8.75052 46.9561 6.74707 42.0451 6.74707 36.7796V36.681C6.77447 26.8124 14.8131 18.8021 24.6749 18.8021H24.7257C29.4686 18.7775 34.0271 20.6379 37.3983 23.9743C40.7695 27.3106 42.6773 31.8495 42.702 36.5924C42.7023 36.655 42.7023 36.7176 42.702 36.7802C42.702 42.1573 40.8019 46.8158 37.2075 50.2522C37.0145 50.4367 36.8135 50.627 36.6067 50.8227C34.2369 53.066 30.9905 56.1383 30.9905 59.2262V62.154C30.9905 62.263 30.9472 62.3675 30.8702 62.4446C30.7931 62.5216 30.6886 62.5649 30.5796 62.5649H30.58Z" fill="#3F3D56"/>
<path d="M28.6284 67.8379H20.8206C20.639 67.8379 20.4648 67.7658 20.3363 67.6373C20.2079 67.5089 20.1357 67.3347 20.1357 67.153C20.1357 66.9714 20.2079 66.7972 20.3363 66.6687C20.4648 66.5403 20.639 66.4681 20.8206 66.4681H28.6284C28.8101 66.4681 28.9843 66.5403 29.1127 66.6687C29.2412 66.7972 29.3133 66.9714 29.3133 67.153C29.3133 67.3347 29.2412 67.5089 29.1127 67.6373C28.9843 67.7658 28.8101 67.8379 28.6284 67.8379Z" fill="#4345FD"/>
<path d="M25.5641 72.4267H23.8838C23.3002 72.4271 22.7274 72.2684 22.2272 71.9677C22.153 71.9245 22.0956 71.8575 22.0641 71.7777C22.0326 71.6978 22.0288 71.6097 22.0534 71.5274C22.076 71.443 22.1259 71.3684 22.1953 71.3153C22.2647 71.2622 22.3498 71.2336 22.4372 71.234H27.0108C27.0982 71.2336 27.1833 71.2622 27.2527 71.3153C27.3221 71.3684 27.372 71.443 27.3946 71.5274C27.4192 71.6097 27.4155 71.6978 27.3839 71.7777C27.3524 71.8575 27.295 71.9245 27.2208 71.9677C26.7205 72.2684 26.1478 72.4271 25.5641 72.4267Z" fill="#3F3D56"/>
<path d="M28.6297 70.0014L20.7756 70.0006L20.7513 69.9484C20.7281 69.8525 20.7271 69.7525 20.7485 69.6562C20.7699 69.5598 20.813 69.4696 20.8745 69.3925C20.9369 69.3134 21.0165 69.2495 21.1072 69.2056C21.1979 69.1617 21.2974 69.1391 21.3982 69.1393H28.0496C28.1503 69.1391 28.2498 69.1618 28.3406 69.2056C28.4313 69.2495 28.5109 69.3134 28.5733 69.3926C28.6343 69.4686 28.6772 69.5576 28.6989 69.6527C28.7205 69.7478 28.7202 69.8465 28.698 69.9415L28.6857 69.9944L28.6297 70.0014Z" fill="#3F3D56"/>
<path d="M6.56116 20.6359C6.3956 20.6361 6.23562 20.576 6.11105 20.467L0.229317 15.3329C0.0945782 15.2129 0.0126519 15.0445 0.00134654 14.8644C-0.0099588 14.6843 0.0502711 14.507 0.168942 14.3711C0.287612 14.2351 0.455134 14.1515 0.635108 14.1384C0.815081 14.1253 0.99296 14.1837 1.13009 14.301L7.01182 19.4351C7.11688 19.5268 7.19145 19.6484 7.22555 19.7836C7.25966 19.9188 7.25168 20.0612 7.20269 20.1918C7.1537 20.3223 7.06602 20.4348 6.95138 20.5142C6.83674 20.5936 6.70061 20.6361 6.56116 20.636V20.6359Z" fill="#E4E4E4"/>
<path d="M41.9122 20.6358C41.7728 20.6359 41.6367 20.5934 41.522 20.514C41.4074 20.4346 41.3197 20.3221 41.2707 20.1916C41.2217 20.061 41.2137 19.9186 41.2479 19.7834C41.282 19.6482 41.3565 19.5266 41.4616 19.4349L47.3432 14.3004C47.4803 14.1831 47.6582 14.1247 47.8381 14.1378C48.0181 14.1509 48.1856 14.2345 48.3043 14.3705C48.423 14.5064 48.4832 14.6837 48.4719 14.8638C48.4606 15.0439 48.3787 15.2122 48.2439 15.3323L42.3622 20.4664C42.2378 20.5756 42.0778 20.6358 41.9122 20.6358Z" fill="#E4E4E4"/>
<path d="M30.5802 65.4073H18.8685C18.6868 65.4073 18.5126 65.3351 18.3842 65.2067C18.2557 65.0782 18.1836 64.904 18.1836 64.7224C18.1836 64.5407 18.2557 64.3665 18.3842 64.2381C18.5126 64.1096 18.6868 64.0375 18.8685 64.0375H30.5802C30.7618 64.0375 30.936 64.1096 31.0645 64.2381C31.1929 64.3665 31.2651 64.5407 31.2651 64.7224C31.2651 64.904 31.1929 65.0782 31.0645 65.2067C30.936 65.3351 30.7618 65.4073 30.5802 65.4073Z" fill="#4345FD"/>
<path d="M24.4367 47.515L22.0012 62.1539H20.6108L23.0847 47.2903C23.1145 47.1111 23.2143 46.951 23.3621 46.8452C23.5099 46.7395 23.6937 46.6969 23.873 46.7267C24.0523 46.7565 24.2124 46.8563 24.3181 47.0041C24.4238 47.1519 24.4664 47.3357 24.4367 47.515Z" fill="#E6E6E6"/>
<path d="M29.1173 62.1539H27.727L25.2915 47.515C25.2617 47.3357 25.3044 47.1519 25.4101 47.0041C25.5158 46.8563 25.6759 46.7565 25.8552 46.7267C26.0344 46.6969 26.2182 46.7395 26.3661 46.8452C26.5139 46.951 26.6137 47.1111 26.6435 47.2903L29.1173 62.1539Z" fill="#E6E6E6"/>
<path d="M20.2732 47.026C20.2732 46.8443 20.3453 46.6701 20.4738 46.5417C20.6022 46.4132 20.7764 46.3411 20.9581 46.3411H28.491C28.6726 46.3411 28.8468 46.4132 28.9753 46.5417C29.1037 46.6701 29.1759 46.8443 29.1759 47.026C29.1759 47.2076 29.1037 47.3818 28.9753 47.5103C28.8468 47.6387 28.6726 47.7109 28.491 47.7109H20.9581C20.7764 47.7109 20.6022 47.6387 20.4738 47.5103C20.3453 47.3818 20.2732 47.2076 20.2732 47.026Z" fill="#E6E6E6"/>
<path d="M24.7244 13.7991C24.5428 13.7991 24.3686 13.727 24.2402 13.5985C24.1117 13.4701 24.0396 13.2959 24.0396 13.1142V1.40255C24.0396 1.2209 24.1117 1.04669 24.2402 0.918252C24.3686 0.78981 24.5428 0.717651 24.7244 0.717651C24.9061 0.717651 25.0803 0.78981 25.2087 0.918252C25.3372 1.04669 25.4093 1.2209 25.4093 1.40255V13.1142C25.4093 13.2959 25.3372 13.4701 25.2087 13.5985C25.0803 13.727 24.9061 13.7991 24.7244 13.7991Z" fill="#E4E4E4"/>
<path d="M80.7106 105.116H79.0315L78.2327 98.6384H80.7109L80.7106 105.116Z" fill="#FEB8B8"/>
<path d="M81.1388 106.744H75.7239V106.675C75.7239 106.116 75.946 105.58 76.3412 105.185C76.7364 104.79 77.2724 104.568 77.8313 104.568H81.1388L81.1388 106.744Z" fill="#2F2E41"/>
<path d="M67.9527 105.061L66.3303 104.627L67.2316 98.1627L69.626 98.803L67.9527 105.061Z" fill="#FEB8B8"/>
<path d="M67.9459 106.744L62.7148 105.345L62.7325 105.279C62.8769 104.739 63.2299 104.278 63.7139 103.999C64.1978 103.719 64.773 103.643 65.3131 103.787L68.5081 104.641L67.9459 106.744Z" fill="#2F2E41"/>
<path d="M81.6765 68.8149L83.0832 70.4492L81.2641 103.659H77.3781L75.4193 78.1051L69.3445 104.344L65.3047 103.353L68.9779 70.0262L81.6765 68.8149Z" fill="#2F2E41"/>
<path d="M69.9173 47.3742L73.7864 45.433L79.7363 45.5376L84.8566 48.1576L81.9433 62.7072L83.2017 70.2931C78.3379 71.5335 73.2458 71.5754 68.3621 70.4153L68.3232 70.406C68.3232 70.406 71.2154 60.1441 69.9842 57.0123L69.9173 47.3742Z" fill="#E6E6E6"/>
<path d="M81.1104 39.6202C81.1061 38.4593 80.6414 37.3475 79.8182 36.5289C78.9951 35.7103 77.8807 35.2518 76.7198 35.2539C75.5589 35.2561 74.4463 35.7187 73.6262 36.5404C72.8061 37.362 72.3455 38.4755 72.3455 39.6364C72.3455 40.7973 72.8061 41.9108 73.6262 42.7324C74.4463 43.5541 75.5589 44.0167 76.7198 44.0189C77.8807 44.021 78.9951 43.5625 79.8182 42.7439C80.6414 41.9253 81.1061 40.8135 81.1104 39.6526V39.6202Z" fill="#FEB8B8"/>
<path d="M69.3831 57.9821C69.4664 58.1959 69.5955 58.389 69.7615 58.5475C69.9274 58.7061 70.1261 58.8264 70.3435 58.8999C70.561 58.9734 70.7919 58.9983 71.02 58.9729C71.2481 58.9475 71.4679 58.8724 71.6638 58.7528L79.52 62.9058L79.7743 60.992L72.1405 56.4905C71.9179 56.1746 71.5871 55.9514 71.2109 55.8632C70.8347 55.7749 70.4391 55.8277 70.0993 56.0115C69.7594 56.1954 69.4987 56.4975 69.3667 56.8607C69.2347 57.2239 69.2405 57.6229 69.383 57.9821H69.3831Z" fill="#FEB8B8"/>
<path d="M79.8523 58.3128C79.7242 58.5033 79.556 58.6634 79.3594 58.7818C79.1628 58.9003 78.9426 58.9742 78.7143 58.9983C78.4861 59.0224 78.2553 58.9962 78.0383 58.9215C77.8212 58.8468 77.6232 58.7254 77.4582 58.5659L68.8833 60.8994L68.958 58.4696L77.4878 56.2543C77.7741 55.9947 78.1457 55.8493 78.5322 55.8454C78.9186 55.8416 79.293 55.9796 79.5845 56.2334C79.876 56.4872 80.0642 56.8391 80.1135 57.2224C80.1629 57.6057 80.0699 57.9938 79.8522 58.3131L79.8523 58.3128Z" fill="#FEB8B8"/>
<path d="M83.1845 48.263L84.8563 48.1582C84.8563 48.1582 86.8138 50.7409 85.7281 53.5437C85.7281 53.5437 85.9161 63.6116 81.5809 63.1979C77.2457 62.7843 75.8757 62.7844 75.8757 62.7844L77.177 59.1545L80.0882 58.2556C80.0882 58.2556 79.191 54.2977 80.8894 52.651L83.1845 48.263Z" fill="#E6E6E6"/>
<path d="M71.1124 48.1746L70.8761 46.9633C70.8761 46.9633 67.3914 46.8811 66.7024 52.1618C66.7024 52.1618 63.5687 60.0644 66.6402 61.082C69.7117 62.0996 73.0904 61.082 73.0904 61.082L72.836 57.5967L69.4567 56.9073C69.4567 56.9073 71.2025 54.6487 70.2519 52.6895L71.1124 48.1746Z" fill="#E6E6E6"/>
<path d="M78.2453 41.7722C77.9231 41.6457 77.5661 41.6523 77.2254 41.5899C76.0072 41.3654 75.0677 40.1233 75.1834 38.8901C75.2124 38.7303 75.2151 38.5668 75.1913 38.4061C75.1069 38.0542 74.7157 37.8654 74.3564 37.8232C73.9971 37.7811 73.6259 37.835 73.2763 37.7415C72.7367 37.5969 72.3335 37.1047 72.1969 36.563C72.0804 36.0122 72.1412 35.4386 72.3704 34.9243L72.5381 35.2739C72.7125 35.0888 72.8314 34.8585 72.8814 34.6092C73.0278 34.6171 73.1698 34.6624 73.2937 34.7409C73.4176 34.8194 73.5193 34.9284 73.589 35.0574C73.8056 35.1542 73.7792 34.6594 73.995 34.5614C74.0923 34.538 74.1947 34.5513 74.2827 34.5989C74.7584 34.7585 75.2629 34.519 75.7343 34.3474C76.5508 34.0512 77.4256 33.9512 78.2879 34.0556C78.8608 34.1256 79.4392 34.2949 79.8851 34.661C80.2374 34.9802 80.5238 35.3652 80.7283 35.7944C81.2785 36.8229 81.6931 37.9575 81.6818 39.1243C81.6706 40.0793 81.3767 41.0097 80.8374 41.798C80.5563 42.207 79.6484 43.6257 79.045 43.4695C78.287 43.2738 79.1528 42.1281 78.2453 41.7722Z" fill="#2F2E41"/>
</g>
<defs>
<clipPath id="clip0_330_2077">
<rect width="90" height="106.315" fill="white" transform="translate(0 0.717651)"/>
</clipPath>
</defs>
</svg>
