<svg width="28" height="28" viewBox="0 0 28 28" fill="none" xmlns="http://www.w3.org/2000/svg">
<path d="M20 5C21.6569 5 23 6.34315 23 8V20C23 21.6569 21.6569 23 20 23H8C6.34315 23 5 21.6569 5 20V8C5 6.34315 6.34315 5 8 5H20ZM18.4697 9.96967L12 16.4393L9.53033 13.9697C9.23744 13.6768 8.76256 13.6768 8.46967 13.9697C8.17678 14.2626 8.17678 14.7374 8.46967 15.0303L11.4697 18.0303C11.7626 18.3232 12.2374 18.3232 12.5303 18.0303L19.5303 11.0303C19.8232 10.7374 19.8232 10.2626 19.5303 9.96967C19.2374 9.67678 18.7626 9.67678 18.4697 9.96967Z" fill="#4345FD"/>
</svg>
